<?xml version="1.0" encoding="UTF-8" standalone="no"?>
<!DOCTYPE svg  PUBLIC '-//W3C//DTD SVG 1.1//EN'  'http://www.w3.org/Graphics/SVG/1.1/DTD/svg11.dtd'>
<svg xmlns="http://www.w3.org/2000/svg">
<defs>
<font id="LifehackItalic-Bold" horiz-adv-x="898">
<font-face underline-position="-50" font-weight="700" descent="-200" panose-1="0 0 8 0 0 0 0 0 0 0" units-per-em="1000" unicode-range="U+0020-0451" bbox="-96 -390 1473 1074" x-height="449" underline-thickness="50" font-family="LifehackItalic" ascent="800" cap-height="805"/>
<missing-glyph horiz-adv-x="1000"/>
<glyph glyph-name=".notdef" horiz-adv-x="1000"/>
<glyph glyph-name=".null" horiz-adv-x="0"/>
<glyph glyph-name="nonmarkingreturn" horiz-adv-x="333"/>
<glyph glyph-name="space" horiz-adv-x="187" unicode=" "/>
<glyph glyph-name="exclam" horiz-adv-x="330" unicode="!" d="M172 5q-37 0 -57 29t-20 59q0 33 32 55t77 22q37 0 61.5 -16t24.5 -40q0 -31 -37.5 -70t-80.5 -39zM198 217q-34 0 -44.5 24.5t-10.5 79.5q0 163 16 294q3 25 5 38.5t7 35t12.5 33t19.5 24.5t29.5 18.5t40.5 5.5q35 0 57.5 -14t26.5 -38q-7 -60 -45 -245t-62 -235 q-18 -21 -52 -21z"/>
<glyph glyph-name="quotedbl" horiz-adv-x="355" unicode='&quot;' d="M309 485q-27 0 -36 11.5t-10 47.5l-1 50q0 88 18 113.5t64 25.5q36 0 49 -8.5t13 -33.5q0 -43 -35 -146q-13 -38 -24 -49t-38 -11zM155 485q-27 0 -36 11.5t-10 47.5l-1 50q0 88 18 113.5t64 25.5q36 0 49 -8.5t13 -33.5q0 -43 -35 -146q-13 -38 -24 -49t-38 -11z"/>
<glyph glyph-name="numbersign" horiz-adv-x="838" unicode="#" d="M466 234q24 53 50 109q-18 0 -53 -0.5t-53 -0.5q-19 -41 -48 -107q14 0 49 -0.5t55 -0.5zM691 450q65 0 101 -8.5t36 -34.5q0 -18 -19 -34.5t-51 -26.5q-65 0 -115 -1l-51 -111h21q130 0 130 -44q0 -18 -19 -35t-51 -27q-10 0 -54 -0.5t-76 -0.5q-17 -37 -89 -195 q-27 -31 -69 -31q-36 0 -36 34q0 21 13 54q16 43 56 136q-18 0 -53.5 -0.5t-53.5 -1.5l-87 -191q-29 -31 -71 -31q-36 0 -36 34q0 21 13 54q9 24 55 132h-87q-34 9 -34 47q0 24 18 44t52 23q21 2 102 2l46 103q-51 -1 -107 -1q-26 14 -26 47q0 24 18 43.5t52 23.5q26 2 55 2 q8 0 28 -0.5t33 -0.5q61 132 84 169q31 49 85 49q39 0 45 -21q-6 -14 -89 -200q14 0 49 -0.5t56 -0.5q65 140 86 173q31 49 85 49q39 0 45 -21q-9 -25 -90 -201z"/>
<glyph glyph-name="dollar" horiz-adv-x="572" unicode="$" d="M337 8q65 27 65 92q0 42 -45 71q-9 -85 -20 -163zM254 474q0 -40 27 -69q5 33 12.5 94t7.5 64q-47 -29 -47 -89zM422 323q77 -35 109.5 -75t32.5 -99q0 -96 -69 -151.5t-172 -69.5q-10 -55 -25 -78.5t-51 -23.5q-35 0 -46 27q13 34 19 72q-76 7 -130.5 36t-54.5 78 q0 31 29.5 56t62.5 25q12 0 25 -5q20 -84 79 -111q4 38 27 218q-35 17 -59 31q-54 32 -83.5 78t-29.5 95q0 83 63.5 144.5t162.5 77.5l4 32q4 37 21 53.5t49 16.5q15 0 30.5 -6.5t17.5 -11.5q-7 -17 -18 -82q63 -8 107.5 -36t44.5 -70q0 -30 -30 -50.5t-72 -20.5 q-2 0 -6.5 0.5t-6.5 0.5q-6 74 -49 96l-21 -167q-1 -10 -3.5 -29.5t-3.5 -29.5z"/>
<glyph glyph-name="percent" horiz-adv-x="854" unicode="%" d="M643 -16q23 0 35.5 21.5t12.5 48.5q0 70 -46 70q-24 0 -36.5 -19.5t-12.5 -50.5q0 -29 11.5 -49.5t35.5 -20.5zM643 -96q-65 0 -110 38.5t-45 105.5q0 66 45.5 105t109.5 39q63 0 109 -40t46 -104q0 -66 -45.5 -105t-109.5 -39zM210 442q23 0 35.5 21.5t12.5 48.5 q0 70 -46 70q-24 0 -36.5 -19.5t-12.5 -50.5q0 -29 11.5 -49.5t35.5 -20.5zM210 362q-65 0 -110 38.5t-45 105.5q0 66 45.5 105t109.5 39q63 0 109 -40t46 -104q0 -66 -45.5 -105t-109.5 -39zM112 -99q-30 0 -45.5 18t-20.5 56q94 93 241 242.5t249.5 252t155.5 150.5 q44 40 76 40q40 0 59 -55q-128 -147 -333 -365.5t-304 -304.5q-39 -34 -78 -34z"/>
<glyph glyph-name="ampersand" horiz-adv-x="755" unicode="&amp;" d="M218 174q0 -45 21.5 -73t57.5 -28q51 0 115 43q-85 85 -133 187q-34 -38 -47.5 -66.5t-13.5 -62.5zM338 557q0 -13 1 -20q94 71 94 123q0 22 -19 22q-28 0 -52 -35.5t-24 -89.5zM599 168q70 -41 134 -55q-14 -55 -43.5 -85t-71.5 -30q-54 0 -130 54q-102 -80 -220 -80 q-100 0 -163 59.5t-63 151.5q0 82 50 147t137 129q-5 37 -5 66q0 99 57.5 161.5t141.5 62.5q56 0 92 -34.5t36 -87.5q0 -32 -12.5 -62.5t-39 -59.5t-48.5 -48.5t-59 -49.5l-15 -12q47 -97 144 -174q53 67 78 140h9q66 0 66 -45q0 -14 -21 -57.5t-54 -90.5z"/>
<glyph glyph-name="quotesingle" horiz-adv-x="200" unicode="&apos;" d="M161 485q-27 0 -36 11.5t-10 47.5l-1 50q0 88 18 113.5t64 25.5q36 0 49 -8.5t13 -33.5q0 -43 -35 -146q-13 -38 -24 -49t-38 -11z"/>
<glyph glyph-name="parenleft" horiz-adv-x="375" unicode="(" d="M248 -80q-50 0 -90 59t-59.5 143.5t-19.5 172.5q0 111 46.5 230.5t114 196t125.5 76.5q29 0 43 -19t15 -37q-2 -4 -25 -38.5t-30.5 -47t-26.5 -50t-29 -67t-22.5 -76.5t-20.5 -99q-9 -60 -9 -112q0 -43 5 -83.5t14 -74t16.5 -55.5t17.5 -47t12 -29q-5 -13 -29 -28 t-48 -15z"/>
<glyph glyph-name="parenright" horiz-adv-x="317" unicode=")" d="M93 -80q-24 0 -44 15t-22 28q3 4 20 30.5t29 47t31.5 59t32.5 75t25 87t17 102.5q4 44 4 91q0 43 -4 80t-12.5 69.5t-14.5 50t-18.5 48.5t-15.5 39q4 18 23 37t48 19q46 0 88 -51.5t66.5 -136t24.5 -177.5q0 -73 -16 -138q-22 -88 -62.5 -172.5t-95 -143.5t-104.5 -59z "/>
<glyph glyph-name="asterisk" horiz-adv-x="550" unicode="*" d="M569 565q0 -44 -114 -60q64 -90 68 -98q-1 -25 -21 -42t-49 -17q-38 0 -73 38q-24 25 -52 70q-89 -106 -135 -106q-26 0 -41 18t-14 50l66 75h-6q-109 0 -109 44q0 24 41 63q46 0 112 3q-51 92 -55 97q0 21 16.5 36.5t37.5 15.5q30 0 51 -23q11 -11 55 -74q9 11 34 40.5 t40 46.5q12 15 43 15q23 0 40.5 -10.5t18.5 -30.5l-72 -99q20 1 42.5 2.5t34.5 2.5t15 1q26 -30 26 -58z"/>
<glyph glyph-name="plus" horiz-adv-x="585" unicode="+" d="M572 253q0 -25 -29 -55q-58 -9 -185 -9q-2 -77 -16 -110.5t-51 -33.5q-20 0 -47 15q-8 82 -9 130q-80 2 -113.5 15.5t-33.5 51.5q0 22 14 47q84 8 132 9v1q0 12 -0.5 38t-0.5 39q0 71 12.5 110t49.5 39q25 0 55 -30q9 -61 9 -196q11 0 34 0.5t35 0.5q69 0 106.5 -12.5 t37.5 -49.5z"/>
<glyph glyph-name="comma" horiz-adv-x="312" unicode="," d="M101 -94q-35 0 -42 38q20 19 28.5 27.5t19 23t15.5 30.5q-41 23 -41 67q0 39 29 64t73 25q34 0 55 -24.5t21 -64.5q0 -55 -56.5 -120.5t-101.5 -65.5z"/>
<glyph glyph-name="hyphen" horiz-adv-x="610" unicode="-" d="M351 134q-69 0 -99 1t-64 7.5t-45 21t-11 39.5q0 21 13 47q87 10 219 10q11 0 33 0.5t33 0.5q61 0 95 -12.5t34 -49.5q0 -25 -26 -55q-60 -10 -182 -10z"/>
<glyph glyph-name="period" horiz-adv-x="299" unicode="." d="M140 7q-35 0 -55 29.5t-20 58.5q0 32 31.5 54.5t74.5 22.5q38 0 63.5 -15.5t25.5 -38.5q0 -39 -38.5 -75t-81.5 -36z"/>
<glyph glyph-name="slash" horiz-adv-x="628" unicode="/" d="M74 -35q-28 0 -45.5 19t-28.5 61q67 99 172.5 261.5t178.5 272.5t113 161q34 43 65 43q35 0 65 -59q-94 -168 -237 -399t-216 -322q-30 -38 -67 -38z"/>
<glyph glyph-name="zero" horiz-adv-x="578" unicode="0" d="M281 -15q69 0 125.5 111.5t56.5 250.5q0 98 -29 166t-73 68q-56 0 -107 -84t-67 -206q-6 -43 -6 -84q0 -97 28 -159.5t72 -62.5zM273 -99q-66 0 -116.5 27.5t-79 72.5t-43 97.5t-14.5 108.5q0 37 6 70q29 174 123.5 281t220.5 107q54 0 98 -19t72.5 -49.5t48 -72 t27.5 -85t8 -88.5q0 -21 -4 -59q-22 -171 -121 -281t-226 -110z"/>
<glyph glyph-name="one" horiz-adv-x="469" unicode="1" d="M287 -104q-30 0 -43 19t-13 62q0 70 44.5 265t44.5 260q0 22 -5 32q-42 -30 -72 -81q-22 -39 -41 -92q-16 -4 -33 -4q-27 0 -43 13t-16 36q0 42 53.5 109t124 117.5t114.5 50.5q78 0 78 -128q0 -60 -39.5 -237t-39.5 -279q0 -47 3 -72q-26 -31 -60 -51t-57 -20z"/>
<glyph glyph-name="two" horiz-adv-x="626" unicode="2" d="M170 -1q29 0 67 24q-44 21 -73 21q-30 0 -30 -21q0 -10 9.5 -17t26.5 -7zM563 80q45 -30 45 -69q0 -37 -34.5 -63t-81.5 -26q-60 0 -164 54q-84 -51 -168 -51q-58 0 -87.5 25.5t-29.5 60.5q0 44 46 74t111 30q44 0 109 -26q66 76 112 183.5t46 202.5q0 54 -25.5 88.5 t-67.5 34.5q-47 0 -82.5 -44t-43.5 -113q-26 -6 -47 -6q-37 0 -59.5 16t-22.5 44q0 66 88 128t195 62t168 -57.5t61 -156.5t-58 -216.5t-149 -204.5q15 -3 31 -3q52 0 108 33z"/>
<glyph glyph-name="three" horiz-adv-x="624" unicode="3" d="M472 379q74 -16 114 -66.5t40 -127.5q0 -112 -95 -198t-258 -86q-87 0 -156.5 42t-69.5 95q0 31 31.5 55t80.5 31q3 -8 9.5 -30t13 -36t19 -30.5t35 -25t54.5 -8.5q70 0 123 52.5t53 123.5q0 51 -31.5 85.5t-80.5 34.5q-12 0 -34.5 -2.5t-38.5 -2.5q-25 0 -41 10t-16 27 q0 9 3.5 18t9.5 21t9 20q55 0 96 16t60.5 41.5t28.5 49t9 46.5q0 21 -17.5 39t-37.5 18q-29 0 -54.5 -20.5t-57.5 -68.5h-9q-35 0 -56.5 15t-21.5 40q0 56 68 87t148 31t130 -40.5t50 -104.5q0 -47 -29 -86.5t-81 -64.5z"/>
<glyph glyph-name="four" horiz-adv-x="611" unicode="4" d="M640 514q0 -60 -12 -109.5t-26.5 -84.5t-26.5 -118.5t-12 -202.5q0 -51 4 -62q0 -2 -11 -7.5t-32.5 -11t-42.5 -5.5q-74 0 -74 62q0 10 1 16q12 88 24 164l-248 -3h-3q-50 0 -80 25.5t-30 67.5q0 9 1 14q88 114 135 205.5t81 208.5q22 4 32 4q39 0 64 -21t25 -54 q0 -10 -3 -21q-28 -117 -174 -337l215 -1q10 60 19 102.5t11.5 55t3.5 34.5t1 75q0 46 -3 63q48 21 74 21q41 0 64 -21t23 -59z"/>
<glyph glyph-name="five" horiz-adv-x="591" unicode="5" d="M278 -95h-9q-103 0 -163.5 40.5t-60.5 93.5q0 32 32.5 58t69.5 26q1 0 5 -0.5t5 -0.5q20 -65 46 -91t71 -26q65 0 111 55.5t46 134.5q0 59 -37 96.5t-97 37.5q-10 0 -114 -13q-30 51 -30 147q0 115 44.5 161t170.5 46q17 0 62 -2t71 -2q66 0 107 11q23 -25 23 -48 q0 -30 -22.5 -51t-55.5 -21q-50 0 -118 10t-84 10q-60 0 -60 -100q0 -29 3 -54q21 3 44 3q114 0 184 -63.5t70 -163.5q0 -111 -89.5 -201t-224.5 -93z"/>
<glyph glyph-name="six" horiz-adv-x="601" unicode="6" d="M329 8q63 0 100.5 42.5t37.5 114.5q0 52 -24 81t-68 29q-40 0 -84.5 -21t-80.5 -58v-4q0 -82 32.5 -133t86.5 -51zM419 369q89 0 142 -49.5t53 -131.5q0 -117 -88 -199t-210 -82q-121 0 -190 74t-69 200q0 84 33 171t90 159t143.5 118t183.5 46q40 0 67 -19t27 -47 q0 -8 -2 -14t-8.5 -13t-11.5 -12t-17 -15.5l-20 -17.5q-28 28 -66 28q-87 0 -154.5 -75t-95.5 -183q95 62 193 62z"/>
<glyph glyph-name="seven" horiz-adv-x="548" unicode="7" d="M643 605q0 -33 -74 -59q-214 -292 -214 -519q0 -40 5 -72q-13 -12 -41.5 -21.5t-53.5 -9.5q-43 0 -67 27.5t-24 73.5q0 40 20 94t63 126.5t79 127t99 144.5q-48 -8 -88 -8q-243 0 -243 111q0 40 43 66q156 -78 273 -78q86 0 172 40q51 -14 51 -43z"/>
<glyph glyph-name="eight" horiz-adv-x="578" unicode="8" d="M282 -14q59 0 98.5 34.5t39.5 85.5q0 40 -28 72t-81 71q-61 -45 -94 -84.5t-33 -82.5q0 -41 26.5 -68.5t71.5 -27.5zM276 505q0 -54 60 -105q100 64 100 127q0 27 -12.5 48t-31.5 27l-20 3q-46 0 -71 -31.5t-25 -68.5zM428 333q35 -24 57.5 -42.5t47.5 -44.5t37 -56.5 t12 -65.5q0 -93 -94 -161.5t-218 -68.5q-112 0 -179.5 52t-67.5 138q0 78 50.5 134t139.5 109q-63 63 -63 135q0 93 63.5 151t167.5 58h12q81 -3 131.5 -44t50.5 -103q0 -50 -38.5 -94.5t-108.5 -96.5z"/>
<glyph glyph-name="nine" horiz-adv-x="598" unicode="9" d="M305 294q81 0 156 83q1 14 1 40q0 81 -27 130.5t-74 49.5q-58 0 -101.5 -55.5t-43.5 -132.5q0 -52 24 -83.5t65 -31.5zM373 668q118 0 184.5 -69t66.5 -189q0 -135 -59 -251.5t-159 -184.5t-216 -68q-52 0 -82 16.5t-30 44.5q0 40 56 76q43 -35 88 -35q74 0 134 71.5 t88 184.5q-76 -60 -175 -60q-91 0 -146.5 53t-55.5 138q0 105 84.5 189t221.5 84z"/>
<glyph glyph-name="colon" horiz-adv-x="298" unicode=":" d="M145 45q-35 0 -55 29.5t-20 58.5q0 32 31.5 54.5t74.5 22.5q38 0 63.5 -15.5t25.5 -38.5q0 -39 -38.5 -75t-81.5 -36zM176 305q-34 0 -54.5 29.5t-20.5 58.5q0 32 32 54.5t75 22.5q38 0 63.5 -15.5t25.5 -38.5q0 -39 -39 -75t-82 -36z"/>
<glyph glyph-name="semicolon" horiz-adv-x="299" unicode=";" d="M94 -78q-35 0 -42 38q2 2 8.5 8t8.5 8.5t7.5 7.5t7.5 7.5t6.5 7.5t6.5 8l5 7.5t5 8.5t4 8.5t4 9.5q-41 23 -41 67q0 39 29 64t73 25q34 0 55 -24.5t21 -64.5q0 -55 -56.5 -120.5t-101.5 -65.5zM176 304q-34 0 -54.5 29.5t-20.5 58.5q0 32 32 54.5t75 22.5 q38 0 63.5 -15.5t25.5 -38.5q0 -39 -39 -75t-82 -36z"/>
<glyph glyph-name="less" horiz-adv-x="477" unicode="&lt;" d="M387 -63q-94 30 -254 125t-174 142q-1 3 -1 9q0 46 105 134t226 161q65 -14 79 -61q3 -9 3 -18q0 -21 -13 -43.5t-42.5 -47.5t-50.5 -41t-64 -44.5t-57 -38.5q262 -159 280 -220q2 -5 2 -13q0 -25 -39 -44z"/>
<glyph glyph-name="equal" horiz-adv-x="560" unicode="=" d="M326 16q-138 0 -186.5 9t-48.5 50q0 17 14 41q96 9 235 9q12 0 35.5 0.5t34.5 0.5q43 0 70 -3t48.5 -15.5t21.5 -35.5t-28 -48q-62 -8 -196 -8zM326 185q-138 0 -186.5 9t-48.5 50q0 16 14 41q96 9 235 9q12 0 35.5 0.5t34.5 0.5q43 0 70 -3t48.5 -15.5t21.5 -35.5 t-28 -48q-62 -8 -196 -8z"/>
<glyph glyph-name="greater" horiz-adv-x="497" unicode="&gt;" d="M92 527q94 -30 254 -125t174 -142q1 -3 1 -9q0 -46 -105 -134t-226 -161q-65 14 -79 61q-3 9 -3 18q0 21 13 43.5t42.5 47.5t50.5 41t64 44.5t57 38.5q-262 159 -280 220q-2 5 -2 13q0 25 39 44z"/>
<glyph glyph-name="question" horiz-adv-x="468" unicode="?" d="M198 5q-35 0 -55 29.5t-20 58.5q0 32 31.5 54.5t74.5 22.5q38 0 63.5 -15.5t25.5 -38.5q0 -39 -38.5 -75t-81.5 -36zM229 218q-63 0 -63 69q0 43 15.5 78.5t39 58t50.5 46.5t50.5 44.5t39 51t15.5 65.5q0 26 -13 43t-34 17q-38 0 -57 -28.5t-19 -68.5q0 -24 6 -43 q-12 -13 -38.5 -24t-45.5 -11q-31 0 -48.5 16.5t-17.5 44.5q0 8 1 12q12 80 73 129t148 49q76 0 129 -45.5t53 -109.5q0 -47 -23 -87t-52 -64.5t-65 -57t-53 -58.5q-24 -36 -24 -85q0 -12 1 -18q-34 -24 -68 -24z"/>
<glyph glyph-name="at" horiz-adv-x="810" unicode="@" d="M386 236q13 0 45.5 34t64.5 87q-2 10 -16 10q-29 0 -66.5 -42.5t-37.5 -74.5q0 -14 10 -14zM715 184q28 -14 28 -33q0 -8 -4 -17q-17 -39 -112.5 -92.5t-207.5 -53.5q-150 0 -233 77.5t-83 184.5q0 58 26 115t73 104t121.5 76t163.5 29q111 0 193 -60t82 -164 q0 -73 -46 -124.5t-114 -51.5q-37 0 -60.5 26.5t-25.5 64.5q-80 -96 -159 -96q-38 0 -57.5 20.5t-19.5 52.5q0 70 66.5 127t142.5 57q43 0 68.5 -22t30.5 -45q-4 -31 -4 -60q0 -59 22 -59q21 0 34.5 33t13.5 65q0 72 -45.5 122t-126.5 50q-111 0 -184.5 -76.5t-73.5 -171.5 q0 -82 55 -137t152 -55q150 0 284 114z"/>
<glyph glyph-name="A" horiz-adv-x="899" unicode="A" d="M753 610q0 4 0.5 11.5t0.5 10.5q0 39 -17 56q-52 -23 -149 -137.5t-190 -263.5q98 -24 191 -24q43 0 87 6q8 32 31.5 124t34 140.5t11.5 76.5zM880 637q0 -40 -33 -260.5t-33 -248.5q0 -115 50 -191q-46 -55 -112 -55q-56 0 -85.5 41t-29.5 117q0 30 4 58q4 31 12 73 q-67 -14 -162 -14q-81 0 -163 11q-98 -180 -129 -308q-10 -47 -10 -112q0 -5 0.5 -13.5t0.5 -12.5q-43 3 -60.5 5t-46 8t-40 15t-21 26t-9.5 41q0 102 161 384q-83 26 -90 60q-2 8 -2 25t5 55t5 57v11q87 -47 165 -77q47 64 107 133t132.5 139.5t148 120t133.5 57.5 q102 -12 102 -145z"/>
<glyph glyph-name="B" horiz-adv-x="818" unicode="B" d="M863 578q0 -63 -45 -120t-103.5 -91.5t-119.5 -52.5q82 -21 126.5 -81t44.5 -133q0 -42 -19 -84.5t-55.5 -79.5t-98.5 -60.5t-139 -23.5q-80 0 -132.5 31t-52.5 74q0 30 35 50q60 -37 136 -37q87 0 136 53t49 122q0 50 -27 81.5t-73 32.5q-109 0 -153 -24q-43 15 -43 51 q0 32 24 48t62 16q28 0 58 -8q72 25 136 87t64 140q0 62 -50.5 97.5t-140.5 35.5q-34 0 -85 -7q8 -18 7 -33q-82 -130 -133 -337.5t-51 -379.5q0 -124 28 -184q-9 -10 -45 -16.5t-63 -6.5q-54 0 -84 29.5t-31 82.5v15q0 151 57.5 361.5t123.5 353.5q17 37 38 69 q-78 -33 -128 -77q-23 6 -37 19.5t-14 28.5q0 10 9 23q27 40 156 90.5t280 50.5q98 0 170.5 -19.5t110.5 -51.5t55 -66t17 -69z"/>
<glyph glyph-name="C" horiz-adv-x="925" unicode="C" d="M480 -160q-182 0 -298 105.5t-116 267.5q0 96 44 193t120.5 177t193.5 130.5t251 50.5q125 0 206 -60.5t81 -151.5q0 -56 -25.5 -90t-67.5 -34q-25 0 -49 9t-36.5 19t-12.5 16q0 3 12.5 22t25 46.5t12.5 49.5q0 81 -128 81q-94 0 -177.5 -41t-139 -106t-88 -145.5 t-32.5 -160.5q0 -119 65 -198.5t183 -79.5q67 0 126.5 20t98 49.5t60 52t31.5 38.5h8q26 0 42 -12.5t16 -33.5q0 -42 -61.5 -92.5t-158.5 -86t-186 -35.5z"/>
<glyph glyph-name="D" horiz-adv-x="867" unicode="D" d="M416 742q217 -23 326.5 -121.5t109.5 -231.5q0 -78 -34.5 -152.5t-90.5 -132t-127.5 -106t-146.5 -80.5t-145.5 -49.5t-126.5 -17.5q-65 0 -100 24t-36 69h12q159 0 302 61t229.5 165t86.5 221q0 113 -80.5 186.5t-215.5 85.5q-119 -240 -159 -544q-9 -69 -12 -143 q-21 -7 -42 -7q-47 0 -72.5 40.5t-25.5 105.5q0 111 52 260t123 280q-14 -3 -41 -11t-45.5 -11.5t-38.5 -3.5q-67 0 -67 59q0 13 7 43q133 17 235 17h4q34 50 48 57q3 -1 17.5 -6.5t24.5 -10t19.5 -16.5t9.5 -27v-3z"/>
<glyph glyph-name="E" horiz-adv-x="790" unicode="E" d="M547 812q144 0 251.5 -53t107.5 -123q0 -2 -0.5 -5t-0.5 -4q-6 -54 -90 -72q-24 42 -34 58.5t-34 45.5t-45.5 40.5t-57 21.5t-80.5 10q-139 0 -218.5 -71.5t-79.5 -169.5q0 -48 21 -94.5t66 -75.5q54 9 115 9q131 0 148 -46v-1q0 -1 0.5 -2.5t1.5 -2.5q1 -3 1 -9 q0 -33 -39.5 -55t-99.5 -22q-82 0 -181 38q-41 -22 -66.5 -61.5t-25.5 -85.5q0 -64 53.5 -107.5t133.5 -43.5q166 0 310 127q42 -14 42 -39q0 -6 -1 -9q-2 -9 -16 -27t-47 -44.5t-76.5 -50t-115 -40t-153.5 -16.5q-130 0 -217.5 62.5t-87.5 153.5q0 62 45.5 123t127.5 102 q-151 90 -151 219q0 87 67.5 161t181 116.5t244.5 42.5z"/>
<glyph glyph-name="F" horiz-adv-x="753" unicode="F" d="M1046 917q36 -53 36 -94q0 -44 -29.5 -75t-84.5 -36q-61 -6 -154 -9q-218 -10 -357 -41v-33q0 -81 -30 -212q20 6 29 8q91 22 182 22q107 0 107 -48q0 -28 -57 -87q-70 19 -104 19q-83 0 -187 -33q-54 -216 -54 -314q0 -87 20 -133q-71 -23 -105 -23h-4q-83 6 -83 103 q0 55 75 304q-57 -29 -100 -59q1 53 20 89q25 47 116 95q41 150 41 210q0 19 -4 45q-104 -52 -104 -134q0 -29 18 -47q-52 -45 -102 -45q-30 0 -48.5 19t-18.5 53q0 217 434 307q79 16 206.5 43t184.5 39q45 9 76.5 20.5t43.5 19.5t37 27z"/>
<glyph glyph-name="G" horiz-adv-x="1028" unicode="G" d="M492 -142q-102 0 -183 31.5t-130 85t-74.5 120.5t-25.5 142t24 149.5t74 143t119.5 121t167.5 84t211 32.5h3q70 0 135.5 -16.5t109 -40.5t69.5 -51t26 -48q0 -26 -32 -55t-88 -34q-75 154 -242 154h-3q-83 0 -157.5 -40t-124.5 -103.5t-79 -141.5t-29 -154 q0 -119 62 -197.5t179 -78.5q139 0 245 77t106 155q0 46 -77 46q-22 0 -34 -2q-120 -15 -154 -15q-40 0 -63 16t-23 43q0 41 52 93q60 -23 162 -23q59 0 102.5 -5t83.5 -17.5t61.5 -38.5t21.5 -64q0 -83 -51 -155t-128 -117t-161 -70.5t-155 -25.5z"/>
<glyph glyph-name="H" horiz-adv-x="815" unicode="H" d="M865 744q0 -65 -32.5 -187t-65.5 -261t-33 -245q0 -92 18 -139q-55 -16 -109 -16q-3 0 -7.5 0.5t-6.5 0.5q-80 5 -80 100q0 25 6 59.5t11.5 55t19 67t15.5 54.5q2 7 5.5 20t5.5 19q-85 21 -148 25q-22 2 -63 2q-69 0 -126 -9l-38 -147q-49 -193 -49 -291q0 -25 2 -39 q-9 3 -33.5 9t-37.5 10t-32.5 13t-30 20t-18.5 30t-8 43q0 26 7.5 61.5t16.5 64t27 84t28 89.5q-36 -19 -75 -48q-2 0 -4.5 -0.5t-4.5 -0.5q-20 0 -31 13t-11 31q0 27 43.5 58t115.5 59q48 174 48 250q0 79 -40 126q77 83 128 83q77 0 77 -121q0 -28 -5 -71q-7 -58 -46 -216 q100 25 177 25q59 0 107 -8.5t53 -19.5l4 -4q17 62 44 178q20 87 20 108q0 46 -23 112q16 25 45 40t60 15q74 0 74 -102z"/>
<glyph glyph-name="I" horiz-adv-x="678" unicode="I" d="M853 812q2 -14 2 -22q0 -30 -17 -60q-14 -25 -48.5 -47t-91.5 -22q-50 0 -118.5 4t-86.5 5q1 -4 1 -11q0 -10 -5 -33q-12 -42 -39 -162t-35 -177q-23 -152 -23 -262q0 -41 3 -75q6 0 18 -0.5t18 -0.5t17.5 0.5t17.5 0.5q70 4 95 10t42 23q20 -7 33 -25.5t13 -39.5 q0 -31 -30 -54t-95 -27q-15 -1 -49 -1q-43 0 -129 4.5t-115 4.5q-108 0 -221 -27q-33 29 -33 64q0 34 29.5 58t77.5 25h30q48 0 126 -4q-3 30 -3 32v8q0 62 24.5 223t52.5 271q39 155 37 173q-184 -13 -207 -85q-4 -1 -11 -1q-27 0 -44.5 19t-17.5 46q0 10 1 15 q40 132 407 132q53 0 145 -2t99 -2h22t19 1t14.5 1t13.5 2t11.5 2.5t11.5 3t10.5 3.5t13 4.5t14.5 4.5z"/>
<glyph glyph-name="J" horiz-adv-x="885" unicode="J" d="M966 745q-19 -46 -74 -77q-24 -39 -33 -114q-9 -73 -16 -198.5t-14 -179.5q-19 -158 -153 -263.5t-314 -105.5q-111 0 -206.5 62t-95.5 142q0 42 28 73.5t81 40.5q26 -80 99 -134.5t154 -54.5q110 0 185 77.5t91 207.5q6 53 11 165t12 163q7 49 17 81q-10 -1 -30 -1 q-32 0 -93 4.5t-88 4.5q-71 0 -110.5 -26.5t-39.5 -71.5q0 -11 1 -17q-44 -29 -90 -29q-37 0 -58.5 19t-21.5 52q0 65 73 124t179 59q47 0 136 -12.5t127 -12.5q37 0 60 4q46 63 105 63q27 0 51 -14t27 -31z"/>
<glyph glyph-name="K" horiz-adv-x="784" unicode="K" d="M751 584q-22 -19 -110.5 -66.5t-148.5 -85.5l-54 -34q22 -136 116.5 -249t216.5 -147q-51 -106 -138 -109h-1q-27 0 -71.5 31t-92.5 83.5t-90 135t-59 171.5q-80 -70 -100 -162q-6 -54 -6 -105q0 -93 11 -144q-47 -11 -86 -11q-50 0 -69.5 24.5t-19.5 107.5 q0 122 32 269.5t64 273t32 193.5q0 46 -5 66q25 5 42 5q52 0 80 -32t28 -81q0 -25 -8 -69.5t-28 -133.5t-28 -129q64 61 137 107q98 61 189.5 143.5t133.5 148.5q46 -7 75.5 -34t29.5 -61q0 -44 -72 -106z"/>
<glyph glyph-name="L" horiz-adv-x="820" unicode="L" d="M548 712q-25 0 -47.5 -27t-44.5 -85.5t-37.5 -109.5t-39.5 -139q-5 -17 -7 -26q106 51 166.5 132t60.5 191q0 29 -13 46.5t-38 17.5zM773 -77q43 -49 43 -95q0 -48 -50 -76t-134 -28q-68 0 -151 25.5t-167.5 58t-133.5 42.5q-49 -55 -120 -55q-47 0 -72.5 22t-25.5 63 q0 14 3 29q63 14 127 17q54 85 97 217q-51 -9 -102 -9t-81.5 23.5t-30.5 61.5q0 15 4 28h13q121 0 234 27l18 69q24 94 37.5 141t42.5 117.5t59 104.5t79.5 60.5t111.5 26.5q57 0 91 -44.5t34 -115.5q0 -132 -105 -256.5t-262 -190.5q-58 -186 -114 -264q20 -3 83.5 -15 t121.5 -18.5t121 -6.5q111 0 229 41z"/>
<glyph glyph-name="M" horiz-adv-x="1192" unicode="M" d="M1159 519q0 -23 -27.5 -175t-27.5 -278q0 -49 4 -84t8 -48.5t14 -36t13 -31.5q-49 -52 -126 -52q-85 0 -85 139q0 73 43.5 257.5t46.5 212.5l7 60q-9 0 -59.5 -105.5t-115 -238.5t-99.5 -181q-17 -27 -45.5 -46.5t-60.5 -19.5q-53 0 -83 52.5t-30 140.5q0 72 33.5 290 t33.5 255q0 18 -5 18q-38 0 -119 -142.5t-157 -333t-103 -321.5q-10 -48 -10 -106q0 -16 2 -34q-101 12 -131 25q-55 23 -55 77q0 55 49.5 181t123.5 272q23 46 52.5 98.5t79 129.5t97 136t103 102t100.5 43q37 0 49 -40.5t12 -157.5q0 -38 -2.5 -200.5t-2.5 -292.5 q0 -12 2 -30q37 72 100 193q133 260 184.5 336t109.5 76q35 0 56 -39.5t21 -100.5z"/>
<glyph glyph-name="N" horiz-adv-x="872" unicode="N" d="M894 776q38 0 59.5 -26.5t21.5 -70.5q0 -14 -1 -21q-12 -9 -33 -20t-30.5 -18.5t-23.5 -26.5t-25 -53t-23 -88q-10 -47 -20.5 -120t-17.5 -128.5t-22.5 -119.5t-36 -106.5t-58 -74t-88.5 -38.5q-5 -1 -16 -1q-52 0 -99.5 49t-80 118.5t-60.5 164t-43.5 166.5t-27.5 145 q-16 -108 -30.5 -233.5t-21 -194.5t-6.5 -74q0 -79 8 -124q-8 -8 -35 -15.5t-55 -7.5q-10 0 -26 2q-33 6 -48.5 36t-15.5 92q0 83 19 178.5t42.5 168t42.5 166t19 172.5q0 47 -1 63q53 16 94 16q52 0 76 -25q28 -31 34 -110q4 -63 50 -231t85 -248q28 -58 57.5 -94.5 t42.5 -36.5q8 0 20.5 33.5t26.5 100t25 150.5q10 78 18.5 129.5t21.5 113.5t28.5 100.5t37 73.5t51 51.5t65.5 16.5z"/>
<glyph glyph-name="O" d="M397 -156q-163 0 -255.5 105.5t-92.5 287.5q0 64 17 142t46 150t75 120.5t98 48.5q23 0 41.5 -11.5t25.5 -30.5q-63 -56 -102.5 -165.5t-39.5 -238.5q0 -146 50.5 -232.5t138.5 -86.5q136 0 229 141.5t93 356.5q0 121 -36.5 192.5t-101.5 71.5q-63 0 -109.5 -57.5 t-46.5 -138.5q0 -61 30.5 -97.5t82.5 -36.5h4q-11 -54 -45.5 -86.5t-79.5 -32.5q-60 0 -95 47t-35 126q0 60 21.5 122.5t59.5 116t99 88t133 34.5q64 0 115 -24t81 -61.5t50 -88t27.5 -97.5t7.5 -96q0 -134 -42.5 -244.5t-112 -180t-155.5 -107t-176 -37.5z" unicode="O"/>
<glyph glyph-name="P" horiz-adv-x="946" unicode="P" d="M590 803q179 0 294.5 -80t115.5 -201q0 -70 -41 -140.5t-112.5 -128t-182 -93.5t-238.5 -36h-11q-19 -85 -19 -175q0 -81 20 -123q-49 -14 -102 -14q-3 0 -8 0.5t-7 0.5q-80 4 -80 94q0 42 58 233q-88 26 -88 67q0 18 9 31.5t18.5 20t29.5 17t29 16.5q12 -28 35 -46 q48 161 48 218t-26 91q42 42 90 42q36 0 60.5 -25.5t24.5 -67.5q0 -36 -3.5 -68t-12 -65.5t-14 -51.5t-19.5 -58t-18 -52q94 2 178 36.5t141 105.5t57 164q0 89 -74.5 142t-203.5 53q-68 0 -134.5 -19.5t-113.5 -59.5t-47 -90q0 -17 8 -31t14.5 -19.5t21.5 -16.5 q-11 -25 -41.5 -41t-65.5 -16q-43 0 -71 28.5t-28 72.5q0 42 34 90t95 92.5t161.5 73.5t218.5 29z"/>
<glyph glyph-name="Q" horiz-adv-x="900" unicode="Q" d="M943 -127q6 -32 6 -59q0 -69 -36 -109.5t-99 -40.5q-37 0 -89.5 24.5t-98 55t-102.5 61.5t-98 40q-10 -1 -28 -1q-171 0 -266.5 107.5t-95.5 295.5q0 92 29.5 194t88 179t128.5 77q49 0 59 -41q-59 -52 -106 -175.5t-47 -246.5q0 -144 54.5 -222.5t155.5 -78.5 q92 0 165.5 74t110 183.5t36.5 227.5q0 114 -29.5 180.5t-80.5 66.5q-31 0 -64.5 -33.5t-54.5 -88.5q-7 -1 -21 -1q-43 0 -69 23t-26 60q0 55 61 103t149 48q139 0 215.5 -95t76.5 -266q0 -106 -29 -206t-90.5 -185t-147.5 -131q4 -2 20.5 -9.5t21.5 -9.5t21 -8.5t23.5 -9 t22 -7t25.5 -6.5t26 -4.5t29.5 -3.5t30.5 -1q60 0 123 39z"/>
<glyph glyph-name="R" horiz-adv-x="883" unicode="R" d="M728 125q76 -130 133 -195.5t102 -76.5q-17 -55 -51.5 -87t-75.5 -32q-5 0 -17 2q-30 7 -57 31t-49.5 63.5t-39 75t-38 85t-33.5 74.5q-52 106 -71 128q-76 -13 -152 -13h-4q-35 -109 -35 -231q0 -81 20 -123q-51 -14 -101 -14q-3 0 -8.5 0.5t-7.5 0.5q-80 5 -80 90 q0 50 43 184q4 14 15.5 49.5t17.5 57.5q-94 25 -94 64q0 13 3.5 23.5t12.5 19.5t15 14t20.5 14.5t18.5 12.5q14 -26 53 -43l15 60q20 67 20 120q0 41 -26 76q14 14 45 27t59 13q34 0 49 -21q21 -21 21 -68q0 -104 -43 -229q53 2 102.5 12.5t95 31.5t79 50.5t53.5 72.5t20 94 q0 83 -73.5 131.5t-200.5 48.5q-105 0 -196.5 -43.5t-91.5 -109.5q0 -15 7.5 -28t15 -19t22.5 -15q-11 -22 -47 -40.5t-68 -18.5q-43 0 -67 21t-24 59q0 45 33 93t93 90t158.5 69t214.5 27q176 0 290.5 -73.5t114.5 -185.5q0 -89 -73.5 -175.5t-201.5 -137.5q17 -25 64 -106 z"/>
<glyph glyph-name="S" horiz-adv-x="885" unicode="S" d="M390 -199q-125 0 -208 31.5t-83 87.5q0 44 55 90q67 -48 133 -76t152 -28q91 0 163.5 43t72.5 97q0 24 -16 42.5t-49 33t-65.5 24.5t-85 24.5t-88.5 27.5q-130 46 -191 108t-61 148q0 82 40 147.5t107.5 105.5t150.5 60.5t175 20.5q79 0 157 -18.5t132 -55t54 -81.5 q0 -37 -44 -61.5t-89 -24.5q-3 0 -7 0.5t-6 0.5q-1 14 -15.5 37t-41 49t-74 44.5t-103.5 18.5q-104 0 -191.5 -54.5t-87.5 -128.5q0 -29 13.5 -53.5t33.5 -41.5t54 -34t63 -28t73 -25q149 -49 198 -74q125 -64 125 -168q0 -68 -41 -124.5t-106.5 -91.5t-143 -54t-155.5 -19z "/>
<glyph glyph-name="T" horiz-adv-x="699" unicode="T" d="M1025 882q34 -11 54 -30t20 -40q0 -20 -14 -34.5t-38.5 -23t-53.5 -14t-64.5 -7.5t-66.5 -3t-63 -1h-23q-33 0 -91 -2q-38 -102 -79.5 -252t-62.5 -286q-18 -113 -18 -194q0 -83 19 -132q-2 -7 -36.5 -15t-64.5 -8q-48 0 -75 27.5t-27 75.5q0 49 11 121q25 162 81 357 t114 299q-261 -23 -261 -108q0 -31 42 -56q-18 -22 -51.5 -36t-65.5 -14q-48 0 -76.5 26t-28.5 68q0 84 105.5 143t288.5 79q93 10 237 11.5t197 7.5q63 6 91 41z"/>
<glyph glyph-name="U" horiz-adv-x="871" unicode="U" d="M926 724l-12 -24q-13 -24 -18.5 -35.5t-20 -41.5t-22.5 -53t-20.5 -59t-20 -70.5t-15 -75.5t-11 -86t-3.5 -92q0 -96 13 -151.5t40 -99.5q-55 -51 -111 -51q-70 0 -91 63q-12 35 -12 108v19q-82 -117 -176 -191.5t-176 -74.5q-95 0 -145.5 70.5t-50.5 200.5q0 56 11 130 q12 74 42.5 211.5t39.5 196.5q4 36 4 44q0 23 -12 65q16 22 48.5 36t70.5 14q37 0 58 -23.5t21 -65.5q0 -47 -50.5 -221t-66.5 -281q-11 -74 -11 -122q0 -125 65 -125q57 0 133.5 76t143.5 192.5t100 231.5q33 156 68 244q14 35 43.5 52.5t64.5 17.5q50 0 79 -29z"/>
<glyph glyph-name="V" horiz-adv-x="911" unicode="V" d="M416 -192q-28 0 -72 46t-51 75q-10 59 -23.5 175.5t-29.5 216.5q-21 132 -54 198t-95 101q7 45 38 72t76 27q32 0 58.5 -13.5t46 -41.5t35 -61t27 -81.5t20 -91.5t15.5 -104t11.5 -107t10.5 -110.5t10 -105.5q3 -38 20 -51q42 17 96.5 76t105.5 140.5t86 188.5t35 206 q0 165 -78 254q9 4 25 12t24 11.5t21 6.5t28 3q41 0 70.5 -23.5t43.5 -62.5t20.5 -78t6.5 -80q0 -89 -29 -188t-75 -185t-104 -165.5t-116.5 -136t-112 -90t-90.5 -33.5z"/>
<glyph glyph-name="W" horiz-adv-x="1087" unicode="W" d="M980 871q68 0 99.5 -42t31.5 -138q0 -56 -13 -155q-10 -73 -30.5 -153.5t-58.5 -173t-85.5 -165.5t-117 -121t-148.5 -48q-37 0 -67 16t-49.5 39t-35 61.5t-24 72t-14.5 81.5t-8.5 78.5t-5 75.5t-3.5 60q-27 -115 -67 -233q-35 -124 -101 -204.5t-135 -80.5q-63 0 -94 42 t-31 136q0 71 17 204t17 177q0 114 -36 151q15 8 49.5 34.5t64 42t55.5 15.5q64 0 64 -105q0 -63 -42.5 -248t-42.5 -232q0 -28 6.5 -46.5t16.5 -18.5q23 0 57.5 59.5t71 182t54.5 268.5q5 45 42 79t71.5 47t54.5 13q31 0 41.5 -20.5t12.5 -56.5v-25q0 -79 13.5 -177 t33.5 -204t26 -147q11 0 33 8t61 42t71 89.5t56.5 166t24.5 254.5q0 83 -8.5 167.5t-22.5 120.5q50 11 95 11z"/>
<glyph glyph-name="X" horiz-adv-x="804" unicode="X" d="M791 756q51 0 80 -26t29 -70q0 -28 -11 -57q-54 17 -83 17q-54 0 -113 -60.5t-208 -249.5q-15 -19 -23 -29q-2 -2 -8 -10q57 -117 137.5 -183.5t159.5 -84.5v-12q0 -65 -27.5 -106t-72.5 -41q-84 0 -199 174q-41 62 -86 141q-60 -77 -149 -183l-20 -24l-20 -24t-18.5 -21 t-20 -20.5t-19.5 -17t-21.5 -16t-22 -11.5t-25 -9.5t-26.5 -5t-31 -2.5q-38 0 -63.5 24.5t-25.5 56.5q0 26 17 46q23 -3 39 -3q47 0 104 50q67 57 237 292q-89 201 -89 312q0 59 40.5 99.5t97.5 40.5q8 0 22 -2q-1 -16 -1 -47q0 -140 30 -268q129 171 223 250.5t167 79.5z "/>
<glyph glyph-name="Y" horiz-adv-x="761" unicode="Y" d="M595 591q22 172 157 172q20 0 52 -5q-26 -46 -39 -116t-40 -289q-12 -100 -41 -182.5t-65 -136t-81.5 -94t-86.5 -62t-85.5 -34.5t-73 -16.5t-54.5 -3.5q-81 0 -141.5 27.5t-60.5 66.5q0 58 94 107q28 -54 69 -79t71 -25q68 0 120 27.5t85 79.5t53 113t32 140 q-111 -154 -240 -154q-61 0 -105.5 26t-68.5 71t-35 95.5t-11 108.5q0 90 22.5 167.5t58.5 109.5q55 48 153 48q10 0 36 -2q-4 -6 -21.5 -32t-22 -33t-18 -31.5t-17.5 -38.5t-13 -41.5t-11.5 -53t-5.5 -62t-3 -77.5q0 -74 21 -113t61 -39q74 0 145.5 101.5t108.5 258.5z"/>
<glyph glyph-name="Z" horiz-adv-x="786" unicode="Z" d="M548 -157q-87 0 -266 24t-219 24h-8q-26 58 -26 97q0 52 30 92t150 157q152 148 383 364q-49 0 -119 2t-93 2q-63 0 -94 -11.5t-58 -44.5q-67 35 -67 86q0 49 57 82t138 33q74 0 174 -33t124 -33h7q64 44 116 44q34 0 48.5 -21.5t14.5 -74.5v-12l-1 -1q-84 -22 -253 -179 q-91 -84 -198 -202q-159 -175 -208 -233q154 -26 308 -26q51 0 129.5 17.5t111.5 36.5q15 -43 15 -75q0 -115 -196 -115z"/>
<glyph glyph-name="bracketleft" horiz-adv-x="397" unicode="[" d="M213 -64q-109 0 -143 19q5 99 48.5 442t79.5 386q43 16 126 16q54 0 86 -14t32 -37q0 -13 -22 -48h-114q-2 -21 -10 -87t-17.5 -145.5t-12.5 -106.5q-34 -271 -44 -323l117 -2q9 -15 9 -31q0 -31 -32 -51q-31 -18 -103 -18z"/>
<glyph glyph-name="backslash" horiz-adv-x="555" unicode="\" d="M501 -10q-12 0 -22.5 2t-19 7t-14 8.5t-12 12.5t-8.5 12t-7.5 14t-6.5 12q-102 189 -316 641q29 59 73 59q36 0 63 -45q71 -118 348 -676q-24 -47 -78 -47z"/>
<glyph glyph-name="bracketright" horiz-adv-x="376" unicode="]" d="M151 -64q-72 0 -98 18q-21 15 -21 38t18 44l117 2q3 55 36 323q3 23 21 167t22 172h-114q-11 29 -11 39q0 6 1 9q6 23 41.5 37t89.5 14q83 0 122 -16q9 -15 9 -73q0 -128 -36 -412t-49 -343q-40 -19 -148 -19z"/>
<glyph glyph-name="asciicircum" horiz-adv-x="490" unicode="^" d="M-23 253q28 87 115.5 236t131.5 162q2 1 8 1q42 0 123 -97.5t150 -210.5q-14 -60 -57 -73q-8 -3 -16 -3q-20 0 -40.5 12.5t-43.5 39.5t-38 47t-41.5 59.5t-35.5 52.5q-147 -244 -203 -261q-8 -2 -11 -2q-23 0 -42 37z"/>
<glyph glyph-name="underscore" horiz-adv-x="842" unicode="_" d="M493 -149q-208 0 -281 10.5t-73 57.5q0 20 20 47q143 10 355 10q16 0 50.5 0.5t51.5 0.5q101 0 157.5 -12.5t56.5 -49.5q0 -26 -42 -55q-88 -9 -295 -9z"/>
<glyph glyph-name="grave" horiz-adv-x="253" unicode="`" d="M208 710q12 -2 25.5 -16.5t25 -34t23 -43t19 -42t13.5 -33.5l5 -15q0 -33 -50 -33q-23 0 -50 8q-24 7 -69.5 60.5t-62.5 93.5q-6 13 -6 21q0 17 23.5 27t62.5 10q27 0 41 -3z"/>
<glyph glyph-name="a" horiz-adv-x="513" unicode="a" d="M148 142q26 0 74 72.5t70 143.5q-6 23 -19 23q-31 0 -87 -76.5t-56 -129.5q0 -33 18 -33zM583 332q2 0 4 0.5t3 0.5q15 0 23 -8.5t8 -16.5q0 -11 -25 -46.5t-62 -76t-86.5 -71.5t-91.5 -31q-53 0 -68 51q-32 -46 -81 -75t-98 -30h-2q-50 0 -85.5 34t-35.5 98 q0 108 90 200t196 92q64 0 104.5 -35t44.5 -72q-31 -91 -31 -130q0 -21 6 -33t14 -12q22 0 74.5 51t98.5 110z"/>
<glyph glyph-name="b" horiz-adv-x="542" unicode="b" d="M325 265q0 -29 24 -53q8 29 8 51q0 35 -12 35q-9 0 -14.5 -10.5t-5.5 -22.5zM282 590q-18 0 -48 -73t-47 -162q48 67 75.5 129.5t27.5 89.5q0 16 -8 16zM688 330q0 -44 -89 -117.5t-175 -84.5q-36 -77 -97.5 -130.5t-131.5 -53.5q-77 0 -127.5 65.5t-50.5 181.5 q0 47 9.5 109t32.5 133.5t55 130.5t83 98.5t112 39.5q77 0 77 -82q0 -75 -63 -187t-148 -199q0 -75 14.5 -128.5t35.5 -53.5q20 0 45.5 25t48.5 63q-77 30 -77 102q0 44 36 80.5t96 36.5q39 0 60.5 -28.5t21.5 -77.5q0 -25 -6 -52q95 28 204 162q34 -9 34 -33z"/>
<glyph glyph-name="c" horiz-adv-x="490" unicode="c" d="M185 18q-80 0 -127.5 48t-47.5 127q0 99 70.5 180t183.5 81q53 0 96 -27.5t43 -60.5q0 -19 -18 -33.5t-65 -32.5q-29 67 -58 67q-36 0 -64.5 -48t-28.5 -112q0 -46 17 -74.5t46 -28.5q66 0 171 82t159 162q47 0 47 -33q0 -19 -41.5 -67t-102 -99.5t-139 -91t-141.5 -39.5 z"/>
<glyph glyph-name="d" horiz-adv-x="596" unicode="d" d="M191 124q31 0 55 43t37 114q-21 57 -57 57q-26 0 -47.5 -43.5t-21.5 -97.5q0 -73 34 -73zM658 343q23 -1 38.5 -12t15.5 -26q0 -17 -26 -61.5t-65.5 -94.5t-95.5 -88t-107 -38q-73 0 -109 93q-59 -84 -155 -84q-74 0 -112.5 46.5t-38.5 116.5q0 88 54.5 158.5t143.5 70.5 q50 0 87 -26q23 305 160 305q32 0 65 -40q-98 -205 -98 -403q0 -67 11.5 -107t30.5 -40q68 0 201 230z"/>
<glyph glyph-name="e" horiz-adv-x="498" unicode="e" d="M237 393q-18 0 -37.5 -41.5t-19.5 -94.5q0 -13 1 -19q69 64 69 126q0 29 -13 29zM557 345q18 5 30 5q34 0 34 -31q0 -19 -34.5 -68t-86.5 -103t-125.5 -95.5t-139.5 -41.5q-97 0 -156.5 58.5t-59.5 150.5q0 106 67 184.5t156 78.5q52 0 80.5 -29t28.5 -82 q0 -118 -150 -214q25 -50 74 -50q58 0 135.5 65.5t146.5 171.5z"/>
<glyph glyph-name="f" horiz-adv-x="355" unicode="f" d="M129 -139q5 0 22 34.5t34 97t17 121.5q0 76 -34 116q-10 -72 -14 -104q-27 -218 -27 -252q0 -13 2 -13zM470 321q0 -34 -65.5 -71t-125.5 -37q-11 0 -16 1q20 -42 20 -109q0 -140 -55.5 -245.5t-130.5 -105.5q-101 0 -101 254q0 119 15.5 238t44.5 222.5t78 168.5t109 65 q54 0 78 -57q-13 -61 -50.5 -132t-78.5 -112q-2 -17 -5.5 -43.5t-4.5 -30.5q59 -54 118 -54q24 0 49 10.5t40 22t30 25t17 14.5h6q28 0 28 -24z"/>
<glyph glyph-name="g" horiz-adv-x="512" unicode="g" d="M99 -211q33 0 68.5 89.5t57.5 201.5q-139 -141 -139 -266q0 -25 13 -25zM616 337q16 0 27 -8t11 -23q0 -7 -3 -16q-130 -7 -271 -90q-8 -78 -29.5 -157t-56.5 -150.5t-88.5 -116t-115.5 -44.5q-47 0 -72.5 25.5t-25.5 72.5q0 86 69.5 181t179.5 175q0 2 0.5 7t0.5 8 q-58 -55 -121 -55q-45 0 -69 27t-24 77q0 97 90.5 177.5t190.5 80.5q32 0 54.5 -12t22.5 -33q0 -37 -87 -59q-7 24 -22 24q-34 0 -75 -60.5t-41 -109.5q0 -28 16 -28q20 0 44 33.5t24 68.5q0 9 -1 13q52 32 84 32q29 0 41.5 -24t13.5 -81q133 65 233 65z"/>
<glyph glyph-name="h" horiz-adv-x="554" unicode="h" d="M247 564q-23 0 -59 -160q30 33 50.5 73.5t20.5 66.5q0 20 -12 20zM649 342h6q28 0 28 -28q0 -25 -59 -100t-142 -143t-135 -68q-37 0 -57.5 39t-22.5 101q-45 -111 -95 -174t-96 -63q-76 0 -76 154q0 76 22 178t58 197t90 160.5t111 65.5q36 0 57.5 -28t21.5 -72 q0 -139 -194 -269q-26 -145 -39 -248q4 0 25.5 46t48.5 101t64.5 101t68.5 46q4 0 12 -2q49 -15 66 -54q-26 -61 -26 -120q0 -48 14 -48q25 0 74.5 46.5t104 107.5t70.5 74z"/>
<glyph glyph-name="i" horiz-adv-x="205" unicode="i" d="M70 -16q-34 0 -48 22.5t-14 65.5q0 34 13.5 112t18.5 126q0 3 1.5 15.5t3 27t2.5 25.5q51 8 59 8q73 0 73 -68q0 -10 -4 -33t-15 -97.5t-24 -180.5q-36 -23 -66 -23zM115 412q-29 0 -41.5 25.5t-12.5 53.5q0 27 26 44t64 17q27 0 43.5 -15t16.5 -39q0 -29 -33 -57.5 t-63 -28.5z"/>
<glyph glyph-name="j" horiz-adv-x="382" unicode="j" d="M57 -180q16 0 35 45t25 89q1 6 2.5 16t1.5 12q-76 -89 -76 -146q0 -16 12 -16zM485 378q33 0 33 -34q0 -8 -1 -12q-18 -15 -108 -87.5t-145 -120.5q-6 -192 -71.5 -287.5t-154.5 -95.5q-34 0 -55 23t-21 59q0 88 162 257q-3 80 -19.5 162.5t-35.5 129.5q48 38 87 38 q45 0 73 -56.5t34 -141.5q77 68 143.5 117t78.5 49zM165 447q-37 0 -62 21.5t-25 53.5q0 31 36.5 52t85.5 21q67 0 67 -45q0 -31 -28 -67t-74 -36z"/>
<glyph glyph-name="k" horiz-adv-x="621" unicode="k" d="M290 392q-15 0 -59 -57.5t-75 -115.5q59 37 104 82.5t45 76.5q0 14 -15 14zM698 333q29 -16 29 -34q0 -35 -53 -100t-132.5 -120t-141.5 -55q-59 0 -110.5 39t-86.5 96q-33 -20 -64 -36q-1 -5 -2 -16t-2 -17q-6 -50 -28 -77.5t-56 -27.5q-20 0 -38.5 8t-25.5 16 q88 222 88 548q0 63 -11 118q58 33 100 33q58 0 58 -77q0 -11 -2.5 -29.5t-7.5 -47.5t-10 -56t-13 -70.5t-14 -75.5q88 138 175 138q38 0 59 -20t21 -56q0 -85 -124 -184q26 -42 61.5 -69.5t64.5 -27.5q68 0 141.5 62.5t124.5 137.5z"/>
<glyph glyph-name="l" horiz-adv-x="415" unicode="l" d="M242 554q-35 -98 -52 -180q115 186 115 251q0 17 -8 17q-9 0 -25.5 -25.5t-29.5 -62.5zM496 331q3 1 9 1q24 0 24 -26q0 -34 -59.5 -106t-148 -134.5t-155.5 -62.5q-66 0 -102.5 55t-36.5 157q0 111 42.5 228t108.5 193t129 76q33 0 53 -21t20 -55q0 -131 -210 -408v-3 q0 -60 12.5 -97.5t33.5 -37.5q41 0 123.5 72t156.5 169z"/>
<glyph glyph-name="m" horiz-adv-x="871" unicode="m" d="M978 330h9q41 0 41 -26q0 -16 -34.5 -59t-87.5 -90.5t-129.5 -84t-147.5 -36.5q-54 0 -82 28.5t-28 82.5q0 35 15 95.5t17 79.5q-12 -17 -61 -111q-40 -79 -71 -112.5t-64 -33.5q-51 0 -72 44q33 113 41 176q2 13 2 26t0.5 20.5t1.5 10.5q-7 -8 -37 -60t-61.5 -102 t-76.5 -92t-84 -42q-56 0 -81 37q5 25 16 72.5t17 76t11.5 66.5t5.5 69q0 36 -7 67q32 32 81 32q52 0 52 -93q0 -19 -2.5 -40t-7.5 -45.5t-8.5 -37.5t-10.5 -39.5t-8 -29.5q10 17 30.5 53t29 51.5t26.5 44t28.5 41t27.5 31t31.5 26.5t32.5 14t38 6q57 0 57 -104 q0 -37 -7 -75q45 80 90 125t100 45q38 0 60 -22t22 -60q0 -24 -14.5 -91.5t-14.5 -95.5q0 -54 30 -54q49 0 133 63.5t151 152.5z"/>
<glyph glyph-name="n" horiz-adv-x="676" unicode="n" d="M743 322q9 3 19 3q16 0 27 -8.5t11 -23.5q0 -21 -38 -69.5t-93.5 -100.5t-130 -91.5t-136.5 -39.5q-105 0 -105 120q0 44 23.5 124.5t23.5 109.5q0 20 -10 23q-32 -15 -78.5 -92.5t-97.5 -209.5q-24 -13 -53 -13q-84 0 -84 97q0 52 18 132.5t18 121.5q0 29 -3 45 q42 37 93 37q30 0 46.5 -17t16.5 -47q0 -9 -3 -27t-8 -47t-8 -49q107 147 201 147q91 0 91 -109q0 -28 -11.5 -89t-11.5 -91q0 -70 32 -70q35 0 113.5 69t137.5 165z"/>
<glyph glyph-name="o" horiz-adv-x="548" unicode="o" d="M186 94q29 0 55.5 60t26.5 132q0 47 -14.5 74t-39.5 27q-16 0 -40 -29q32 -17 32 -62q0 -22 -12 -56q-17 0 -32.5 -26t-15.5 -56q0 -26 12 -45t28 -19zM632 332q28 -2 28 -27q0 -40 -74.5 -96.5t-146.5 -56.5q-31 0 -60 13q-32 -59 -85 -96t-121 -38h-4q-82 0 -124 53 t-42 121q0 66 34 111.5t87 50.5q13 51 54 80t99 29q65 0 103 -44.5t38 -119.5q0 -36 -9 -72q23 -15 46 -15q40 0 87.5 28t89.5 79z"/>
<glyph glyph-name="p" horiz-adv-x="480" unicode="p" d="M239 153q18 0 53 85q-29 -17 -44.5 -39t-15.5 -36q0 -10 7 -10zM541 347q77 0 77 -28q0 -21 -28 -36q-24 4 -59 4q-57 0 -120 -11q-36 -65 -88 -111.5t-95 -46.5q-44 0 -44 42q0 92 132 146q12 41 12 56q0 20 -16 20q-32 0 -65 -39.5t-59.5 -108t-43 -170.5t-16.5 -216 l1 -81q-49 -11 -81 -11q-41 0 -59.5 20t-18.5 67q0 35 11 98q5 31 21 118t24 133.5t15.5 108.5t7.5 100q0 52 -6 94q45 39 88 39q57 0 57 -72q0 -24 -9 -56q107 75 181 75q39 0 64 -21t25 -63q0 -25 -10 -58q56 8 102 8z"/>
<glyph glyph-name="q" horiz-adv-x="540" unicode="q" d="M627 359q12 0 20 -7.5t6 -20.5q-93 -72 -187 -208t-169 -334q-17 -15 -39 -27t-36 -12q-33 0 -47.5 28.5t-14.5 91.5q0 147 55 282q-68 -57 -134 -57q-39 0 -62 25.5t-23 67.5q0 12 1 18q14 112 121 196.5t234 84.5q29 0 47.5 -13t18.5 -33q0 -30 -42 -52q-17 14 -37 14 q-60 0 -134.5 -66t-74.5 -130q0 -18 15 -18q26 0 69 45t52 86q35 27 72 27q21 0 34.5 -12t13.5 -36q0 -17 -14.5 -55.5t-36 -107t-35.5 -143.5q-1 -4 -5.5 -28t-6.5 -40q44 93 91.5 170.5t86 124.5t73.5 80t56.5 46t31.5 13z"/>
<glyph glyph-name="r" horiz-adv-x="460" unicode="r" d="M540 335q44 -7 44 -35q0 -23 -34.5 -78t-85.5 -112.5t-119 -101.5t-125 -44q-58 0 -88.5 31t-30.5 82q0 78 76 192q-90 14 -124 48.5t-34 74.5q0 59 47 96t93 37q24 0 34.5 -14.5t10.5 -32.5q0 -32 -36 -94q16 -4 46 -8t52 -8t45 -10.5t35 -17.5t12 -27q0 -23 -29 -64.5 t-58 -87t-29 -78.5q0 -34 28 -34q30 0 68.5 30t77.5 79.5t67.5 90.5t56.5 86z"/>
<glyph glyph-name="s" horiz-adv-x="408" unicode="s" d="M175 128q0 10 -3 17q-67 -44 -67 -75q0 -10 9 -10q17 0 39 21.5t22 46.5zM491 328q29 0 29 -21q0 -7 -5 -20q-77 -12 -192 -61q22 -32 22 -69q0 -69 -68.5 -112.5t-145.5 -43.5q-45 0 -74 19t-29 56q0 56 104 122q-19 19 -29 31t-20.5 35.5t-10.5 48.5q0 45 30 80.5 t80 50.5q36 11 71 11q66 0 79 -29q-4 -33 -35.5 -52.5t-77.5 -19.5h-6q-3 -28 54 -71l14 -11q138 56 210 56z"/>
<glyph glyph-name="t" horiz-adv-x="437" unicode="t" d="M511 333q5 1 13 1q31 0 31 -30q0 -13 -15.5 -47t-48 -79.5t-74 -87t-101 -70.5t-122.5 -29q-76 0 -116 50.5t-40 142.5q0 90 42 232h-40q-47 0 -47 41q0 19 19 57q36 -11 94 -14q44 144 51 210h23q64 0 89.5 -14t25.5 -57q0 -59 -33 -144h142q-3 -15 -16 -42 q-11 -21 -43 -29t-115 -9q-59 -147 -59 -251q0 -48 19 -71.5t44 -23.5q69 0 146 76t131 188z"/>
<glyph glyph-name="u" horiz-adv-x="533" unicode="u" d="M616 362q10 2 15 2q14 0 23.5 -8.5t9.5 -23.5t-29.5 -61.5t-73 -98.5t-102 -92t-106.5 -40q-83 0 -93 94q-87 -95 -164 -95q-91 0 -91 103q0 23 17.5 113t17.5 138q0 22 -2 46q60 10 86 10q62 0 62 -63q0 -19 -16.5 -98.5t-16.5 -106.5q0 -33 13 -33t42 22t59 61 q3 17 11 52.5t12.5 63t4.5 52.5q0 27 -3 39q34 6 56 6q81 0 81 -87q0 -21 -17 -92.5t-17 -103.5q0 -40 18 -40q27 0 93.5 77.5t109.5 163.5z"/>
<glyph glyph-name="v" horiz-adv-x="567" unicode="v" d="M639 340q6 2 9 2q10 0 19.5 -8t9.5 -17q0 -5 -8 -16.5t-24.5 -26.5t-38.5 -28t-54.5 -22t-66.5 -9q-53 0 -95 20q-50 -97 -112 -157t-113 -60q-28 0 -46 18t-28.5 55t-17.5 77.5t-19 103.5t-27 114q51 54 121 54q39 0 54.5 -19.5t15.5 -63.5q0 -38 -13 -104t-13 -90 q0 -35 13 -35q15 0 44 60t53 138q-10 24 -10 58q0 48 26.5 78.5t63.5 30.5q32 0 49.5 -21.5t17.5 -60.5q0 -40 -28 -108q33 -25 84 -25q40 0 69.5 15t64.5 47z"/>
<glyph glyph-name="w" horiz-adv-x="736" unicode="w" d="M807 347q17 0 17 -24q0 -19 -47.5 -45t-90.5 -26t-76 18q-16 -92 -74 -163t-144 -71q-72 0 -88 88q-24 -52 -66.5 -78.5t-88.5 -26.5q-58 0 -89.5 50t-31.5 139q0 35 1.5 60.5t5.5 59.5t13.5 58t24.5 46t39 33t56 11q33 0 76 -19q-58 -108 -58 -249q0 -103 21 -103t40 48 t19 121v28q23 20 62 20q37 0 47 -28.5t10 -119.5q0 -71 25 -71q28 0 47.5 55t19.5 124q0 20 -1.5 38t-5 32.5t-6 23t-6.5 18.5t-4 11q11 12 33 21.5t45 9.5q46 0 68 -39q3 -3 4 -5q33 -85 94 -85q18 0 36.5 5t29 10.5t25 14t18.5 10.5z"/>
<glyph glyph-name="x" horiz-adv-x="426" unicode="x" d="M461 419q-69 -55 -169 -195q66 -61 146 -105q-5 -27 -28.5 -47.5t-48.5 -20.5q-52 0 -142 73q-52 -71 -94 -109t-81 -38q-28 0 -46 18.5t-22 50.5q49 26 84.5 56.5t79.5 82.5l6 8q-85 96 -85 166q0 41 33 75.5t71 34.5q26 0 39 -13q12 -8 18 -21q-3 -28 -34 -66 q6 -28 38 -71q12 17 31.5 45.5t28 40.5t23 30t24.5 25.5t23.5 14t27.5 7.5h7q24 0 44.5 -12t25.5 -30z"/>
<glyph glyph-name="y" horiz-adv-x="505" unicode="y" d="M60 -192q20 0 57.5 75.5t69.5 175.5q-136 -126 -136 -234q0 -17 9 -17zM627 378q16 0 26 -9.5t10 -23.5q0 -7 -1 -10q-147 -51 -291 -139q-20 -108 -63 -200.5t-90 -147.5t-90.5 -85.5t-72.5 -30.5q-37 0 -58 27t-21 73q0 171 246 345l6 31q-56 -56 -113 -56 q-43 0 -66.5 36.5t-23.5 98.5q0 21 6.5 57.5t7.5 52.5q2 20 4 58q21 19 67 19q68 0 68 -51q0 -9 -12 -61t-12 -78q0 -38 17 -38q23 0 46.5 60t33.5 147q23 24 73 24q65 0 65 -85q0 -62 -6 -117q82 44 155.5 73.5t88.5 29.5z"/>
<glyph glyph-name="z" horiz-adv-x="551" unicode="z" d="M90 -177q22 0 83.5 74.5t78.5 151.5q-76 -61 -123.5 -119.5t-47.5 -92.5q0 -14 9 -14zM637 323q47 0 47 -35q0 -2 -0.5 -5t-0.5 -5q-113 -24 -288 -130q8 -26 8 -54q0 -14 -1 -21q-9 -76 -58 -152.5t-120 -126t-140 -49.5q-42 0 -69.5 20.5t-27.5 56.5q0 55 72 144 t189 174q-22 47 -121 65q-7 17 -7 25q0 17 28 35q110 68 116 116q-11 0 -47.5 -3t-57.5 -3q-93 0 -93 49q0 27 54 98q13 -26 61 -45t96 -19q55 0 87 -19t32 -52q0 -29 -31.5 -64.5t-80.5 -64.5q41 -12 73 -47q80 45 159.5 78.5t120.5 33.5z"/>
<glyph glyph-name="braceleft" horiz-adv-x="414" unicode="{" d="M393 815q39 0 62.5 -11.5t23.5 -31.5q0 -17 -29 -43q-16 10 -32 10q-22 0 -35.5 -31t-22 -78t-20 -97t-38.5 -95t-68 -64q58 -33 58 -145q0 -27 -4 -78t-4 -69q0 -60 30 -60q16 0 35 10q17 -21 17 -36q0 -25 -26.5 -40t-69.5 -15q-79 0 -104 63.5t-25 209.5 q0 40 -10 68.5t-22.5 39.5t-22.5 23t-10 24v6q3 19 36.5 42t36.5 27q21 25 42 100q6 20 14 59t13.5 63t19.5 55.5t32 49.5t49.5 31t73.5 13z"/>
<glyph glyph-name="bar" horiz-adv-x="348" unicode="|" d="M152 -81q-31 0 -45 14.5t-14 45.5q0 14 13.5 116t37 271.5t36.5 268.5q2 16 6.5 47t5.5 41l6 47q36 18 71 18q31 0 49 -16.5t18 -44.5v-8l-6 -49q-7 -55 -29 -201.5t-37 -270.5q-2 -18 -11 -89.5t-14 -116.5l-6 -46q-34 -27 -81 -27z"/>
<glyph glyph-name="braceright" horiz-adv-x="414" unicode="}" d="M362 444q2 -3 29 -25.5t27 -40.5q0 -13 -8 -23t-20.5 -20t-26 -22.5t-27.5 -38t-22 -60.5q-18 -73 -34 -118t-38.5 -83t-52.5 -55t-72 -17q-38 0 -60.5 12t-22.5 33q0 7 1 10q4 16 26 36q16 -10 32 -10q19 0 31 21.5t17.5 54.5t13.5 74t17.5 79.5t32 72.5t55.5 50 q-67 36 -67 170q0 24 2 66t2 59q0 70 -31 70q-16 0 -35 -10q-19 24 -19 37q0 1 0.5 3t0.5 3q11 43 96 43q44 0 73 -12.5t42.5 -37t18 -49.5t4.5 -61q0 -16 -1 -47.5t-1 -46.5v-17q3 -77 17 -100z"/>
<glyph glyph-name="asciitilde" horiz-adv-x="595" unicode="~" d="M414 153q-38 0 -75.5 19t-68.5 38t-53 19q-20 0 -43 -16.5t-35 -31t-19 -26.5h-8q-32 0 -50.5 15t-18.5 41q0 51 61 96.5t128 45.5q38 0 78.5 -18.5t72.5 -37.5t50 -19q49 0 103 65q61 -15 61 -58q0 -49 -58 -90.5t-125 -41.5z"/>
<glyph glyph-name="exclamdown" horiz-adv-x="318" unicode="¡" d="M149 322q34 0 44.5 -24.5t10.5 -79.5q0 -163 -16 -294q-3 -25 -5 -38.5t-7 -35t-12.5 -33t-19.5 -24.5t-29.5 -18.5t-40.5 -5.5q-35 0 -57.5 14t-26.5 38q7 60 45 245t62 235q18 21 52 21zM175 534q37 0 57 -29t20 -59q0 -33 -32 -55t-77 -22q-37 0 -61.5 16t-24.5 40 q0 31 37.5 70t80.5 39z"/>
<glyph glyph-name="cent" horiz-adv-x="467" unicode="¢" d="M184 229q0 -53 28 -81q5 32 14 116q1 13 5 46.5t6 47.5q-53 -48 -53 -129zM324 375l-11 -88q-7 -52 -19 -162q42 8 66 69h9q31 0 50.5 -14t19.5 -36q0 -42 -44 -73.5t-112 -40.5q-8 -56 -14 -72q-10 -24 -49 -24q-38 0 -40 18q5 28 15 78q-67 12 -106.5 61t-39.5 120 q0 86 55.5 163t146.5 99q2 14 2 20q5 66 60 66q13 0 35 -5q-1 -30 -9 -77q49 -7 81 -30.5t32 -54.5v-7q-4 -28 -28 -44t-61 -16h-9q-4 37 -30 50z"/>
<glyph glyph-name="sterling" horiz-adv-x="663" unicode="£" d="M119 -13q29 0 55 66h-1q-28 0 -47 -13t-19 -33t12 -20zM569 91q78 -14 78 -63q0 -39 -44 -69.5t-100 -30.5q-48 0 -83 13t-80 44.5t-56 37.5q-77 -101 -180 -101q-37 0 -60.5 22t-23.5 57q0 55 52 93t126 39q14 55 27 135q-58 0 -114 7q-2 14 -2 20q0 54 61 63q23 4 69 5 l12 92q12 101 69 161t140 60q74 0 111.5 -34.5t37.5 -75.5q0 -23 -24.5 -40.5t-54.5 -17.5q-29 0 -46 15q2 22 2 30q0 43 -16 43q-12 0 -28.5 -50t-24.5 -116l-9 -63h51q64 0 94 -2q9 -13 9 -28q0 -27 -26 -45q-15 -12 -147 -21q-22 -92 -56 -165q23 -9 58.5 -27.5t60.5 -28 t49 -9.5q16 0 28 9.5t40 40.5z"/>
<glyph glyph-name="currency" horiz-adv-x="652" unicode="¤" d="M363 249q33 0 60 40.5t27 96.5q0 42 -15 66.5t-42 24.5q-37 0 -63 -39t-26 -97q0 -42 15.5 -67t43.5 -25zM566 285q53 -48 68 -101q-4 -27 -26 -44t-54 -17q-42 0 -92 61q-53 -24 -111 -24q-61 0 -109 27q-48 -46 -100 -66h-2q-28 0 -45.5 15.5t-17.5 41.5q0 41 88 113 q-4 26 -4 41q0 46 18 85q-50 46 -65 98q4 27 26 44t54 17q38 0 87 -55q56 27 119 27q60 0 108 -27q42 39 95 60h2q28 0 45 -15.5t17 -41.5q0 -40 -84 -110q4 -16 4 -38q0 -50 -21 -91z"/>
<glyph glyph-name="yen" horiz-adv-x="613" unicode="¥" d="M542 218h-127q-2 -15 -8 -47q164 -2 183 -11v-8q0 -27 -17.5 -45t-46.5 -18h-132q-24 -149 -26 -158q-14 -16 -41.5 -30t-52.5 -14q-23 0 -32 15.5t-9 48.5q0 41 9 136q-126 -2 -169 -3q-7 13 -7 25q0 22 19.5 38t50.5 18q36 2 114 5q1 7 2.5 22.5t2.5 23.5 q-121 -2 -166 -3q-7 13 -7 25q0 22 19.5 38t50.5 18q35 2 113 5q0 2 0.5 4.5t0.5 3.5l-167 324q15 14 46.5 23.5t61.5 9.5q45 0 67 -27q14 -16 32.5 -59.5t40 -104t24.5 -69.5q8 13 34.5 56.5t45.5 72t46.5 63.5t54.5 53t52 18q21 0 36 -6.5t16 -12.5q0 -1 -49.5 -75 t-106 -160.5t-70.5 -112.5q156 -2 175 -11q0 -1 0.5 -5t0.5 -5q0 -27 -17.5 -44t-46.5 -17z"/>
<glyph glyph-name="brokenbar" horiz-adv-x="335" unicode="¦" d="M156 -79q-31 0 -45 14.5t-14 45.5q0 39 4.5 69t12 64t10.5 59q2 14 5 33.5t4.5 33t2.5 21.5l6 47q36 18 71 18q31 0 49.5 -17t18.5 -46v-6l-6 -49q-4 -35 -14.5 -99.5t-16.5 -114.5l-5 -46q-36 -27 -83 -27zM214 392q-31 0 -45 14.5t-14 45.5q0 8 5 45t12.5 83.5 t8.5 56.5q2 14 5 33.5t4.5 33t2.5 21.5l6 47q36 18 71 18q31 0 49 -16.5t18 -44.5v-8l-5 -49q0 -3 -5.5 -37.5t-12.5 -80t-12 -89.5l-6 -46q-34 -27 -82 -27z"/>
<glyph glyph-name="section" horiz-adv-x="550" unicode="§" d="M239 415q0 -15 5 -29.5t20.5 -35.5t23 -30.5t33.5 -38t31 -34.5q10 13 10 31q0 15 -5 29.5t-20.5 35.5t-23 30.5t-33.5 38t-31 34.5q-10 -13 -10 -31zM306 639q0 -25 21 -52t51 -52.5t59.5 -54t50.5 -69.5t21 -87q0 -15 -1 -23q-11 -88 -94 -136q27 -44 27 -88 q0 -73 -60.5 -120.5t-153.5 -47.5q-71 0 -110.5 31.5t-39.5 69.5q0 29 27.5 48.5t56.5 19.5q24 0 31 -14q-1 -5 -1 -15q0 -29 12.5 -46t33.5 -17q28 0 43 18t15 50q0 25 -21 52t-50.5 52.5t-59.5 55t-51 71t-21 88.5q0 101 95 155q-27 44 -27 88q0 73 60.5 120.5t153.5 47.5 q72 0 111.5 -31.5t39.5 -69.5q0 -29 -27.5 -48.5t-56.5 -19.5q-25 0 -32 14q1 5 1 15q0 29 -12.5 46t-33.5 17q-28 0 -43 -18t-15 -50z"/>
<glyph glyph-name="dieresis" horiz-adv-x="365" unicode="¨" d="M336 508q-33 0 -51.5 19t-18.5 52q0 19 6 30q13 21 37 35.5t48 16.5q82 -7 82 -64q0 -41 -28 -65t-75 -24zM140 508q-33 0 -51.5 19t-18.5 52q0 19 6 30q13 21 37 35.5t48 16.5q83 -8 83 -64q0 -40 -28.5 -64.5t-75.5 -24.5z"/>
<glyph glyph-name="copyright" horiz-adv-x="906" unicode="©" d="M481 152q-78 0 -125.5 45t-47.5 117q0 77 64 144.5t163 67.5q48 0 87 -23.5t39 -52.5q0 -17 -16 -29t-59 -29q-28 58 -53 58q-30 0 -55.5 -39.5t-25.5 -92.5q0 -42 15 -66.5t41 -24.5q24 0 71 55h8q25 0 40.5 -11.5t15.5 -30.5q0 -41 -56 -64.5t-106 -23.5zM460 63 q115 0 196 89.5t81 219.5q0 97 -55.5 157.5t-146.5 60.5q-115 0 -198.5 -86.5t-83.5 -211.5q0 -100 57.5 -164.5t149.5 -64.5zM450 -18q-84 0 -149.5 26t-105.5 69.5t-60.5 97t-20.5 113.5q0 71 29 139.5t82 125t136.5 91t183.5 34.5q145 0 234.5 -84t89.5 -216 q0 -68 -28 -137t-79 -127.5t-132.5 -95t-179.5 -36.5z"/>
<glyph glyph-name="ordfeminine" horiz-adv-x="268" unicode="ª" d="M160 563q11 0 37 31t51 75q-2 9 -13 9q-24 0 -54 -37.5t-30 -64.5q0 -13 9 -13zM305 595q0 -40 22 -54h-3q-1 -19 -16.5 -32t-35.5 -13q-35 0 -35 53v12q-45 -68 -100 -68q-31 0 -50 20.5t-19 52.5q0 63 59 121t120 58q32 0 53.5 -20t23.5 -41q-19 -42 -19 -89z"/>
<glyph glyph-name="guillemotleft" horiz-adv-x="833" unicode="«" d="M591 607q33 -19 33 -45q0 -4 -2 -12q-15 -60 -232 -220q11 -10 46.5 -38.5t53 -44.5t41.5 -41t35 -47.5t11 -43.5q0 -6 -2 -18q-12 -48 -65 -61q-99 72 -186.5 161t-87.5 135q0 5 1 8q12 47 144 142t210 125zM333 607q33 -19 33 -45q0 -4 -2 -12q-15 -60 -232 -220 q11 -10 46.5 -38.5t53 -44.5t41.5 -41t35 -47.5t11 -43.5q0 -6 -2 -18q-12 -48 -65 -61q-99 72 -186.5 161t-87.5 135q0 5 1 8q12 47 144 142t210 125z"/>
<glyph glyph-name="logicalnot" horiz-adv-x="656" unicode="¬" d="M682 324q0 -6 -2 -12l-21 -170q-1 -14 -19 -24t-41 -10q-22 0 -41 10t-25 24l14 129q-92 -2 -160 -2q-185 0 -249 9.5t-64 50.5q0 21 18 40q126 9 310 9h87q93 0 143 -10.5t50 -43.5z"/>
<glyph glyph-name="registered" horiz-adv-x="833" unicode="®" d="M340 639v-1q0 -20 -19 -96q25 5 41 23.5t16 44.5q0 29 -36 29h-2zM354 670q41 0 65 -16t24 -43v-7q-4 -40 -58 -70q8 -14 12 -19q29 -40 43 -40h3q-3 -15 -14.5 -25t-26.5 -10t-23.5 9t-26.5 43q-8 16 -14 25l-23 -3q-5 -17 -6 -32v-11q0 -7 2 -33q-14 -4 -32 -4 q-34 0 -34 24q0 1 12 42q1 3 2.5 9.5t2.5 9.5q-20 6 -22 14q4 17 32 30v-1l1 -2q0 1 1 2v2q1 3 9 63v1q-23 -10 -24 -23q-1 -12 10 -18q-16 -16 -24 -16q-23 0 -23 23t38 49.5t94 26.5zM316 385q75 0 126 54.5t51 135.5q0 60 -35.5 97.5t-95.5 37.5q-70 0 -120.5 -46.5 t-59.5 -117.5q-2 -16 -2 -25q0 -61 37.5 -98.5t98.5 -37.5zM367 752q86 0 142.5 -52.5t56.5 -131.5q0 -90 -78.5 -159t-177.5 -69q-86 0 -142.5 52t-56.5 128q0 104 75 168t181 64z"/>
<glyph glyph-name="macron" horiz-adv-x="600" unicode="¯" d="M511 532q-46 7 -87 7q-40 0 -65 -2q-33 -3 -71 -3q-62 0 -89 12t-27 41q0 25 19 47q27 -3 122 -3h54q9 0 43.5 2t53.5 2q77 0 77 -39q0 -34 -30 -64z"/>
<glyph glyph-name="degree" horiz-adv-x="255" unicode="°" d="M197 589q13 0 24 19t11 45q0 38 -20 38q-15 0 -24.5 -17.5t-9.5 -45.5q0 -39 19 -39zM188 515q-54 0 -87.5 29.5t-33.5 77.5q0 57 43.5 95t107.5 38q53 0 87.5 -31t34.5 -78q0 -56 -44 -93.5t-108 -37.5z"/>
<glyph glyph-name="plusminus" horiz-adv-x="585" unicode="±" d="M319 107q12 0 37 0.5t37 0.5q45 0 73.5 -3t51 -15.5t22.5 -35.5q0 -22 -29 -48q-67 -8 -207 -8q-146 0 -197 9t-51 50q0 19 14 41q103 9 249 9zM210 299q-56 1 -87 5.5t-49 17t-18 35.5q0 19 14 41q74 7 139 8v16q0 12 -0.5 35t-0.5 35q0 43 3 70t15.5 48.5t35.5 21.5 t48 -28q8 -62 8 -196v-1h1q12 0 37 0.5t37 0.5q45 0 73.5 -3t51 -15.5t22.5 -35.5q0 -22 -29 -48q-64 -8 -194 -8q-2 -66 -14.5 -95.5t-43.5 -29.5q-16 0 -41 14q-6 62 -8 112z"/>
<glyph glyph-name="uni00B2" horiz-adv-x="283" unicode="²" d="M140 520q20 0 40 14q-21 12 -35 12q-12 0 -19.5 -4.5t-7.5 -10.5q0 -11 22 -11zM316 558q23 -17 23 -37q0 -17 -15.5 -29t-37.5 -12q-25 0 -70 31q-42 -26 -82 -26q-22 0 -36.5 11t-14.5 28q0 22 20.5 37t49.5 15q23 0 59 -14q43 48 43 112q0 19 -7.5 30.5t-19.5 11.5 q-15 0 -29.5 -17t-16.5 -40q-12 -3 -23 -3q-34 0 -34 32q0 33 30.5 58t74.5 25q43 0 67.5 -23t24.5 -65q0 -73 -63 -138q5 -1 14 -1q22 0 43 14z"/>
<glyph glyph-name="uni00B3" horiz-adv-x="241" unicode="³" d="M237 652q29 -7 45.5 -25t16.5 -44q0 -45 -40 -73.5t-100 -28.5q-35 0 -59.5 14.5t-24.5 35.5q0 35 57 40q10 -45 38 -45q17 0 36.5 16.5t19.5 36.5q0 31 -27 31h-30q-32 0 -32 19q0 10 14 27q1 0 3.5 -0.5t3.5 -0.5q22 0 42.5 16t20.5 35q0 16 -15 16q-18 0 -42 -31 q-38 5 -38 26q0 20 24.5 34.5t56.5 14.5q35 0 56 -15.5t21 -40.5q0 -39 -47 -58z"/>
<glyph glyph-name="acute" horiz-adv-x="270" unicode="´" d="M106 493q-47 0 -44 30l2 2q4 7 11.5 19t28.5 43t39.5 55t41 45t37.5 23q15 3 43 3q77 0 77 -32q0 -9 -12 -25q-26 -39 -86.5 -93.5t-86.5 -61.5q-29 -8 -51 -8z"/>
<glyph glyph-name="uni00B5" horiz-adv-x="573" unicode="µ" d="M603 517q0 -30 -30 -208.5t-30 -243.5q0 -45 3 -57q-35 -17 -72 -17q-60 0 -74 63q-4 19 -4 44q0 44 13 103q-51 -47 -102 -47q-54 0 -90 48q-43 -199 -46 -338q-29 -18 -72 -18q-65 0 -65 84q0 28 10 151.5t22 215.5q29 233 68 257q16 10 50 10q58 0 68 -25q5 -11 5 -61 q0 -52 -3 -91q15 -108 65 -108q15 0 29 7t25 20.5t20 27.5t17 33t12 30.5t9 27.5t6 18q19 58 40 83t52 25q52 0 74 -34z"/>
<glyph glyph-name="paragraph" horiz-adv-x="518" unicode="¶" d="M552 780q4 -24 4 -33q0 -6 -4 -42v-5l-6 -46q-5 -36 -25.5 -179.5t-35.5 -265.5l-24 -194l-5 -43q-32 -26 -70 -26q-50 0 -50 55q0 15 14.5 119.5t35 256.5t31.5 244q2 17 5.5 42.5t4.5 30.5h-58l-5 -40q-5 -36 -25.5 -179.5t-35.5 -265.5l-24 -194l-5 -43 q-32 -26 -70 -26q-50 0 -50 55q0 6 63 474q-125 23 -125 131q0 90 62.5 141t170.5 51h15q145 -5 212 -18z"/>
<glyph glyph-name="periodcentered" horiz-adv-x="166" unicode="·" d="M110 235q-31 0 -52 24t-21 58q0 35 30 57t74 22q73 0 73 -54q0 -40 -33 -73.5t-71 -33.5z"/>
<glyph glyph-name="cedilla" horiz-adv-x="221" unicode="¸" d="M106 36q-31 0 -67 15t-36 43q0 12 11.5 20t27.5 8q8 0 22.5 -2.5t20.5 -2.5q38 0 38 45q0 16 -10 24.5t-33 13.5l-9 22q5 9 10 19.5t8 16t6 12t5 9.5t5 6t5.5 4t5.5 1l96 6l-37 -61q73 -19 73 -85q0 -47 -43 -80.5t-99 -33.5z"/>
<glyph glyph-name="uni00B9" horiz-adv-x="201" unicode="¹" d="M266 716q0 -21 -14 -85t-14 -101q0 -19 1 -24q-6 -11 -22 -20t-31 -9q-28 0 -28 39q0 18 12 74t16 88q1 7 3 15q-29 -22 -46 -51q-4 -1 -12 -1q-33 0 -33 32q0 30 44.5 65t79.5 35q44 0 44 -57z"/>
<glyph glyph-name="ordmasculine" horiz-adv-x="266" unicode="º" d="M191 555q18 0 30.5 23.5t12.5 59.5q0 46 -25 46q-20 0 -31.5 -23t-11.5 -60q0 -46 25 -46zM183 492q-50 0 -80.5 31.5t-30.5 81.5q0 61 41.5 102.5t101.5 41.5q49 0 80.5 -33t31.5 -82q0 -60 -42 -101t-102 -41z"/>
<glyph glyph-name="guillemotright" horiz-adv-x="682" unicode="»" d="M330 607q78 -30 210 -125t144 -142q1 -3 1 -8q0 -46 -87.5 -135t-186.5 -161q-53 13 -65 61q-2 12 -2 18q0 21 11 43.5t35 47.5t41.5 41t53 44.5t46.5 38.5q-217 160 -232 220q-2 8 -2 12q0 26 33 45zM72 607q78 -30 210 -125t144 -142q1 -3 1 -8q0 -46 -87.5 -135 t-186.5 -161q-53 13 -65 61q-2 12 -2 18q0 21 11 43.5t35 47.5t41.5 41t53 44.5t46.5 38.5q-217 160 -232 220q-2 8 -2 12q0 26 33 45z"/>
<glyph glyph-name="questiondown" horiz-adv-x="469" unicode="¿" d="M241 320q63 0 63 -69q0 -43 -15.5 -78.5t-39 -58t-50.5 -46.5t-50.5 -44.5t-39 -51t-15.5 -65.5q0 -26 13 -43t34 -17q38 0 57 28.5t19 68.5q0 24 -6 43q12 13 38.5 24t45.5 11q31 0 48.5 -16.5t17.5 -44.5q0 -8 -1 -12q-12 -80 -73 -129t-148 -49q-76 0 -129 45.5 t-53 109.5q0 47 23 87t52 64.5t65 57t53 58.5q24 36 24 85q0 12 -1 18q34 24 68 24zM272 533q35 0 55 -29.5t20 -58.5q0 -32 -31.5 -54.5t-74.5 -22.5q-38 0 -63.5 15.5t-25.5 38.5q0 39 38.5 75t81.5 36z"/>
<glyph glyph-name="Agrave" horiz-adv-x="899" unicode="À" d="M753 610q0 4 0.5 11.5t0.5 10.5q0 39 -17 56q-52 -23 -149 -137.5t-190 -263.5q98 -24 191 -24q43 0 87 6q8 32 31.5 124t34 140.5t11.5 76.5zM778 782q102 -12 102 -145q0 -40 -33 -260.5t-33 -248.5q0 -115 50 -191q-46 -55 -112 -55q-56 0 -85.5 41t-29.5 117 q0 30 4 58q4 31 12 73q-67 -14 -162 -14q-81 0 -163 11q-98 -180 -129 -308q-10 -47 -10 -112q0 -5 0.5 -13.5t0.5 -12.5q-43 3 -60.5 5t-46 8t-40 15t-21 26t-9.5 41q0 102 161 384q-83 26 -90 60q-2 8 -2 25t5 55t5 57v11q87 -47 165 -77q47 64 107 133t132.5 139.5 t148 120t133.5 57.5zM851 825q-54 0 -110 75t-56 126q0 18 22 29t55 11q45 0 74 -22q0 -2 3 -17.5t5 -24.5t8 -28.5t13.5 -35.5t20.5 -38.5t29 -44.5q-37 -30 -64 -30z"/>
<glyph glyph-name="Aacute" horiz-adv-x="899" unicode="Á" d="M753 610q0 4 0.5 11.5t0.5 10.5q0 39 -17 56q-52 -23 -149 -137.5t-190 -263.5q98 -24 191 -24q43 0 87 6q8 32 31.5 124t34 140.5t11.5 76.5zM778 782q102 -12 102 -145q0 -40 -33 -260.5t-33 -248.5q0 -115 50 -191q-46 -55 -112 -55q-56 0 -85.5 41t-29.5 117 q0 30 4 58q4 31 12 73q-67 -14 -162 -14q-81 0 -163 11q-98 -180 -129 -308q-10 -47 -10 -112q0 -5 0.5 -13.5t0.5 -12.5q-43 3 -60.5 5t-46 8t-40 15t-21 26t-9.5 41q0 102 161 384q-83 26 -90 60q-2 8 -2 25t5 55t5 57v11q87 -47 165 -77q47 64 107 133t132.5 139.5 t148 120t133.5 57.5zM903 1066q30 0 49.5 -9.5t19.5 -23.5q0 -27 -36.5 -76.5t-89 -90.5t-90.5 -41q-28 0 -58 30q26 26 46.5 51t34.5 48t21 36.5t15 32.5t9 21q34 22 79 22z"/>
<glyph glyph-name="Acircumflex" horiz-adv-x="899" unicode="Â" d="M753 610q0 4 0.5 11.5t0.5 10.5q0 39 -17 56q-52 -23 -149 -137.5t-190 -263.5q98 -24 191 -24q43 0 87 6q8 32 31.5 124t34 140.5t11.5 76.5zM778 782q102 -12 102 -145q0 -40 -33 -260.5t-33 -248.5q0 -115 50 -191q-46 -55 -112 -55q-56 0 -85.5 41t-29.5 117 q0 30 4 58q4 31 12 73q-67 -14 -162 -14q-81 0 -163 11q-98 -180 -129 -308q-10 -47 -10 -112q0 -5 0.5 -13.5t0.5 -12.5q-43 3 -60.5 5t-46 8t-40 15t-21 26t-9.5 41q0 102 161 384q-83 26 -90 60q-2 8 -2 25t5 55t5 57v11q87 -47 165 -77q47 64 107 133t132.5 139.5 t148 120t133.5 57.5zM820 1061q32 0 70.5 -38.5t119.5 -147.5q-32 -51 -70 -51q-30 0 -66 32.5t-68 87.5q-44 -54 -88.5 -87t-75.5 -33q-39 0 -58 51q107 109 155.5 147.5t80.5 38.5z"/>
<glyph glyph-name="Atilde" horiz-adv-x="899" unicode="Ã" d="M753 610q0 4 0.5 11.5t0.5 10.5q0 39 -17 56q-52 -23 -149 -137.5t-190 -263.5q98 -24 191 -24q43 0 87 6q8 32 31.5 124t34 140.5t11.5 76.5zM778 782q102 -12 102 -145q0 -40 -33 -260.5t-33 -248.5q0 -115 50 -191q-46 -55 -112 -55q-56 0 -85.5 41t-29.5 117 q0 30 4 58q4 31 12 73q-67 -14 -162 -14q-81 0 -163 11q-98 -180 -129 -308q-10 -47 -10 -112q0 -5 0.5 -13.5t0.5 -12.5q-43 3 -60.5 5t-46 8t-40 15t-21 26t-9.5 41q0 102 161 384q-83 26 -90 60q-2 8 -2 25t5 55t5 57v11q87 -47 165 -77q47 64 107 133t132.5 139.5 t148 120t133.5 57.5zM935 997h8q32 0 50 -10.5t18 -29.5q0 -33 -43.5 -72.5t-94.5 -39.5q-40 0 -89.5 29t-59.5 29q-11 0 -26.5 -15t-26.5 -37h-10q-30 0 -47.5 12t-17.5 33q0 38 44 72.5t92 34.5q32 0 62.5 -14.5t52.5 -29t33 -14.5q17 0 55 52z"/>
<glyph glyph-name="Adieresis" horiz-adv-x="899" unicode="Ä" d="M753 610q0 4 0.5 11.5t0.5 10.5q0 39 -17 56q-52 -23 -149 -137.5t-190 -263.5q98 -24 191 -24q43 0 87 6q8 32 31.5 124t34 140.5t11.5 76.5zM778 782q102 -12 102 -145q0 -40 -33 -260.5t-33 -248.5q0 -115 50 -191q-46 -55 -112 -55q-56 0 -85.5 41t-29.5 117 q0 30 4 58q4 31 12 73q-67 -14 -162 -14q-81 0 -163 11q-98 -180 -129 -308q-10 -47 -10 -112q0 -5 0.5 -13.5t0.5 -12.5q-43 3 -60.5 5t-46 8t-40 15t-21 26t-9.5 41q0 102 161 384q-83 26 -90 60q-2 8 -2 25t5 55t5 57v11q87 -47 165 -77q47 64 107 133t132.5 139.5 t148 120t133.5 57.5zM912 998q34 0 54.5 -18.5t20.5 -47.5q0 -37 -29.5 -62t-73.5 -25q-33 0 -52.5 18t-19.5 47q0 37 29 62.5t71 25.5zM688 845q-33 0 -52.5 18t-19.5 47q0 37 29 62.5t71 25.5q34 0 54.5 -18.5t20.5 -47.5q0 -37 -29.5 -62t-73.5 -25z"/>
<glyph glyph-name="Aring" horiz-adv-x="899" unicode="Å" d="M753 610q0 4 0.5 11.5t0.5 10.5q0 39 -17 56q-52 -23 -149 -137.5t-190 -263.5q98 -24 191 -24q43 0 87 6q8 32 31.5 124t34 140.5t11.5 76.5zM778 782q102 -12 102 -145q0 -40 -33 -260.5t-33 -248.5q0 -115 50 -191q-46 -55 -112 -55q-56 0 -85.5 41t-29.5 117 q0 30 4 58q4 31 12 73q-67 -14 -162 -14q-81 0 -163 11q-98 -180 -129 -308q-10 -47 -10 -112q0 -5 0.5 -13.5t0.5 -12.5q-43 3 -60.5 5t-46 8t-40 15t-21 26t-9.5 41q0 102 161 384q-83 26 -90 60q-2 8 -2 25t5 55t5 57v11q87 -47 165 -77q47 64 107 133t132.5 139.5 t148 120t133.5 57.5zM795 894q14 0 23 17.5t9 46.5q0 36 -18 36q-14 0 -23 -17t-9 -46q0 -37 18 -37zM817 1053q48 0 77.5 -27t29.5 -70q0 -52 -39 -86.5t-96 -34.5q-48 0 -78 27t-30 70q0 52 39.5 86.5t96.5 34.5z"/>
<glyph glyph-name="AE" horiz-adv-x="1406" unicode="Æ" d="M413 284q70 -16 167 -16q56 0 107 6q7 28 24.5 92.5t25.5 95t16 69t10 59.5q2 22 2 31q0 52 -21 55q-48 -19 -142.5 -131t-188.5 -261zM1080 631q-88 0 -138 -39t-77 -128q-17 -55 -32 -162q370 63 383 118q33 -14 54 -37.5t21 -45.5q0 -32 -30.5 -54.5t-86 -36 t-111 -21.5t-130 -17.5t-117.5 -17.5q-28 -134 -28 -211q0 -62 20.5 -89.5t64.5 -27.5q52 0 125 33.5t142.5 67t113.5 33.5q34 0 53.5 -18t19.5 -49q0 -63 -65 -125q-32 6 -59 6q-45 0 -148.5 -27t-188.5 -27q-129 0 -185 46.5t-56 154.5q0 65 36 218q-83 -18 -181 -18 q-70 0 -137 9q-99 -181 -129 -319q-11 -47 -11 -116q0 -4 0.5 -11.5t0.5 -10.5q-46 3 -75.5 8.5t-58.5 17t-43 32.5t-14 52q0 96 161 382q-83 29 -90 60q-2 8 -2 25t5 55t5 57v11q94 -49 164 -77q47 63 106.5 131.5t131.5 139.5t147.5 120.5t134.5 58.5h3q41 0 61 -19 t38 -64q18 7 37.5 13t43 11t38.5 8.5t44.5 7.5t39.5 5.5t44.5 5.5t39.5 5q31 4 65 20.5t50 37.5q87 -24 87 -92q0 -25 -16.5 -42.5t-39.5 -26.5t-61 -14t-66 -6t-70 -1h-34z"/>
<glyph glyph-name="Ccedilla" horiz-adv-x="925" unicode="Ç" d="M869 428q-25 0 -49 9t-36.5 19t-12.5 16q0 3 12.5 22t25 46.5t12.5 49.5q0 81 -128 81q-94 0 -177.5 -41t-139 -106t-88 -145.5t-32.5 -160.5q0 -119 65 -198.5t183 -79.5q67 0 126.5 20t98 49.5t60 52t31.5 38.5h8q26 0 42 -12.5t16 -33.5q0 -38 -53 -84.5t-138.5 -82.5 t-170.5 -45l-20 -33q71 -10 71 -78q0 -50 -44 -85.5t-106 -35.5q-39 0 -62.5 17t-23.5 39q0 14 10.5 27.5t31.5 18.5q15 -21 36 -21q15 0 25 11.5t10 29.5t-13.5 28.5t-35.5 10.5l4 30l19 42q-161 16 -260.5 118.5t-99.5 251.5q0 96 44 193t120.5 177t193.5 130.5t251 50.5 q125 0 206 -60.5t81 -151.5q0 -56 -25.5 -90t-67.5 -34z"/>
<glyph glyph-name="Egrave" horiz-adv-x="790" unicode="È" d="M547 812q144 0 251.5 -53t107.5 -123q0 -2 -0.5 -5t-0.5 -4q-6 -54 -90 -72q-24 42 -34 58.5t-34 45.5t-45.5 40.5t-57 21.5t-80.5 10q-139 0 -218.5 -71.5t-79.5 -169.5q0 -48 21 -94.5t66 -75.5q54 9 115 9q131 0 148 -46v-1q0 -1 0.5 -2.5t1.5 -2.5q1 -3 1 -9 q0 -33 -39.5 -55t-99.5 -22q-82 0 -181 38q-41 -22 -66.5 -61.5t-25.5 -85.5q0 -64 53.5 -107.5t133.5 -43.5q166 0 310 127q42 -14 42 -39q0 -6 -1 -9q-2 -9 -16 -27t-47 -44.5t-76.5 -50t-115 -40t-153.5 -16.5q-130 0 -217.5 62.5t-87.5 153.5q0 62 45.5 123t127.5 102 q-151 90 -151 219q0 87 67.5 161t181 116.5t244.5 42.5zM608 833q-54 0 -110 75t-56 126q0 18 22 29t55 11q45 0 74 -22q0 -2 3 -17.5t5 -24.5t8 -28.5t13.5 -35.5t20.5 -38.5t29 -44.5q-37 -30 -64 -30z"/>
<glyph glyph-name="Eacute" horiz-adv-x="790" unicode="É" d="M547 812q144 0 251.5 -53t107.5 -123q0 -2 -0.5 -5t-0.5 -4q-6 -54 -90 -72q-24 42 -34 58.5t-34 45.5t-45.5 40.5t-57 21.5t-80.5 10q-139 0 -218.5 -71.5t-79.5 -169.5q0 -48 21 -94.5t66 -75.5q54 9 115 9q131 0 148 -46v-1q0 -1 0.5 -2.5t1.5 -2.5q1 -3 1 -9 q0 -33 -39.5 -55t-99.5 -22q-82 0 -181 38q-41 -22 -66.5 -61.5t-25.5 -85.5q0 -64 53.5 -107.5t133.5 -43.5q166 0 310 127q42 -14 42 -39q0 -6 -1 -9q-2 -9 -16 -27t-47 -44.5t-76.5 -50t-115 -40t-153.5 -16.5q-130 0 -217.5 62.5t-87.5 153.5q0 62 45.5 123t127.5 102 q-151 90 -151 219q0 87 67.5 161t181 116.5t244.5 42.5zM729 1041q0 -27 -36.5 -76.5t-89 -90.5t-90.5 -41q-28 0 -58 30q26 26 46.5 51t34.5 48t21 36.5t15 32.5t9 21q34 22 79 22q30 0 49.5 -9.5t19.5 -23.5z"/>
<glyph glyph-name="Ecircumflex" horiz-adv-x="790" unicode="Ê" d="M547 812q144 0 251.5 -53t107.5 -123q0 -2 -0.5 -5t-0.5 -4q-6 -54 -90 -72q-24 42 -34 58.5t-34 45.5t-45.5 40.5t-57 21.5t-80.5 10q-139 0 -218.5 -71.5t-79.5 -169.5q0 -48 21 -94.5t66 -75.5q54 9 115 9q131 0 148 -46v-1q0 -1 0.5 -2.5t1.5 -2.5q1 -3 1 -9 q0 -33 -39.5 -55t-99.5 -22q-82 0 -181 38q-41 -22 -66.5 -61.5t-25.5 -85.5q0 -64 53.5 -107.5t133.5 -43.5q166 0 310 127q42 -14 42 -39q0 -6 -1 -9q-2 -9 -16 -27t-47 -44.5t-76.5 -50t-115 -40t-153.5 -16.5q-130 0 -217.5 62.5t-87.5 153.5q0 62 45.5 123t127.5 102 q-151 90 -151 219q0 87 67.5 161t181 116.5t244.5 42.5zM399 832q-39 0 -58 51q107 109 155.5 147.5t80.5 38.5t70.5 -38.5t119.5 -147.5q-32 -51 -70 -51q-30 0 -66 32.5t-68 87.5q-44 -54 -88.5 -87t-75.5 -33z"/>
<glyph glyph-name="Edieresis" horiz-adv-x="790" unicode="Ë" d="M547 812q144 0 251.5 -53t107.5 -123q0 -2 -0.5 -5t-0.5 -4q-6 -54 -90 -72q-24 42 -34 58.5t-34 45.5t-45.5 40.5t-57 21.5t-80.5 10q-139 0 -218.5 -71.5t-79.5 -169.5q0 -48 21 -94.5t66 -75.5q54 9 115 9q131 0 148 -46v-1q0 -1 0.5 -2.5t1.5 -2.5q1 -3 1 -9 q0 -33 -39.5 -55t-99.5 -22q-82 0 -181 38q-41 -22 -66.5 -61.5t-25.5 -85.5q0 -64 53.5 -107.5t133.5 -43.5q166 0 310 127q42 -14 42 -39q0 -6 -1 -9q-2 -9 -16 -27t-47 -44.5t-76.5 -50t-115 -40t-153.5 -16.5q-130 0 -217.5 62.5t-87.5 153.5q0 62 45.5 123t127.5 102 q-151 90 -151 219q0 87 67.5 161t181 116.5t244.5 42.5zM641 853q-33 0 -52.5 18t-19.5 47q0 37 29 62.5t71 25.5q34 0 54.5 -18.5t20.5 -47.5q0 -37 -29.5 -62t-73.5 -25zM445 853q-33 0 -52.5 18t-19.5 47q0 37 29 62.5t71 25.5q34 0 54.5 -18.5t20.5 -47.5 q0 -37 -29.5 -62t-73.5 -25z"/>
<glyph glyph-name="Igrave" horiz-adv-x="678" unicode="Ì" d="M853 812q2 -14 2 -22q0 -30 -17 -60q-14 -25 -48.5 -47t-91.5 -22q-50 0 -118.5 4t-86.5 5q1 -4 1 -11q0 -10 -5 -33q-12 -42 -39 -162t-35 -177q-23 -152 -23 -262q0 -41 3 -75q6 0 18 -0.5t18 -0.5t17.5 0.5t17.5 0.5q70 4 95 10t42 23q20 -7 33 -25.5t13 -39.5 q0 -31 -30 -54t-95 -27q-15 -1 -49 -1q-43 0 -129 4.5t-115 4.5q-108 0 -221 -27q-33 29 -33 64q0 34 29.5 58t77.5 25h30q48 0 126 -4q-3 30 -3 32v8q0 62 24.5 223t52.5 271q39 155 37 173q-184 -13 -207 -85q-4 -1 -11 -1q-27 0 -44.5 19t-17.5 46q0 10 1 15 q40 132 407 132q53 0 145 -2t99 -2h22t19 1t14.5 1t13.5 2t11.5 2.5t11.5 3t10.5 3.5t13 4.5t14.5 4.5zM549 825q-54 0 -110 75t-56 126q0 18 22 29t55 11q45 0 74 -22q0 -2 3 -17.5t5 -24.5t8 -28.5t13.5 -35.5t20.5 -38.5t29 -44.5q-37 -30 -64 -30z"/>
<glyph glyph-name="Iacute" horiz-adv-x="678" unicode="Í" d="M853 812q2 -14 2 -22q0 -30 -17 -60q-14 -25 -48.5 -47t-91.5 -22q-50 0 -118.5 4t-86.5 5q1 -4 1 -11q0 -10 -5 -33q-12 -42 -39 -162t-35 -177q-23 -152 -23 -262q0 -41 3 -75q6 0 18 -0.5t18 -0.5t17.5 0.5t17.5 0.5q70 4 95 10t42 23q20 -7 33 -25.5t13 -39.5 q0 -31 -30 -54t-95 -27q-15 -1 -49 -1q-43 0 -129 4.5t-115 4.5q-108 0 -221 -27q-33 29 -33 64q0 34 29.5 58t77.5 25h30q48 0 126 -4q-3 30 -3 32v8q0 62 24.5 223t52.5 271q39 155 37 173q-184 -13 -207 -85q-4 -1 -11 -1q-27 0 -44.5 19t-17.5 46q0 10 1 15 q40 132 407 132q53 0 145 -2t99 -2h22t19 1t14.5 1t13.5 2t11.5 2.5t11.5 3t10.5 3.5t13 4.5t14.5 4.5zM670 1033q0 -27 -36.5 -76.5t-89 -90.5t-90.5 -41q-28 0 -58 30q26 26 46.5 51t34.5 48t21 36.5t15 32.5t9 21q34 22 79 22q30 0 49.5 -9.5t19.5 -23.5z"/>
<glyph glyph-name="Icircumflex" horiz-adv-x="678" unicode="Î" d="M853 812q2 -14 2 -22q0 -30 -17 -60q-14 -25 -48.5 -47t-91.5 -22q-50 0 -118.5 4t-86.5 5q1 -4 1 -11q0 -10 -5 -33q-12 -42 -39 -162t-35 -177q-23 -152 -23 -262q0 -41 3 -75q6 0 18 -0.5t18 -0.5t17.5 0.5t17.5 0.5q70 4 95 10t42 23q20 -7 33 -25.5t13 -39.5 q0 -31 -30 -54t-95 -27q-15 -1 -49 -1q-43 0 -129 4.5t-115 4.5q-108 0 -221 -27q-33 29 -33 64q0 34 29.5 58t77.5 25h30q48 0 126 -4q-3 30 -3 32v8q0 62 24.5 223t52.5 271q39 155 37 173q-184 -13 -207 -85q-4 -1 -11 -1q-27 0 -44.5 19t-17.5 46q0 10 1 15 q40 132 407 132q53 0 145 -2t99 -2h22t19 1t14.5 1t13.5 2t11.5 2.5t11.5 3t10.5 3.5t13 4.5t14.5 4.5zM340 824q-39 0 -58 51q107 109 155.5 147.5t80.5 38.5t70.5 -38.5t119.5 -147.5q-32 -51 -70 -51q-30 0 -66 32.5t-68 87.5q-44 -54 -88.5 -87t-75.5 -33z"/>
<glyph glyph-name="Idieresis" horiz-adv-x="678" unicode="Ï" d="M853 812q2 -14 2 -22q0 -30 -17 -60q-14 -25 -48.5 -47t-91.5 -22q-50 0 -118.5 4t-86.5 5q1 -4 1 -11q0 -10 -5 -33q-12 -42 -39 -162t-35 -177q-23 -152 -23 -262q0 -41 3 -75q6 0 18 -0.5t18 -0.5t17.5 0.5t17.5 0.5q70 4 95 10t42 23q20 -7 33 -25.5t13 -39.5 q0 -31 -30 -54t-95 -27q-15 -1 -49 -1q-43 0 -129 4.5t-115 4.5q-108 0 -221 -27q-33 29 -33 64q0 34 29.5 58t77.5 25h30q48 0 126 -4q-3 30 -3 32v8q0 62 24.5 223t52.5 271q39 155 37 173q-184 -13 -207 -85q-4 -1 -11 -1q-27 0 -44.5 19t-17.5 46q0 10 1 15 q40 132 407 132q53 0 145 -2t99 -2h22t19 1t14.5 1t13.5 2t11.5 2.5t11.5 3t10.5 3.5t13 4.5t14.5 4.5zM582 845q-33 0 -52.5 18t-19.5 47q0 37 29 62.5t71 25.5q34 0 54.5 -18.5t20.5 -47.5q0 -37 -29.5 -62t-73.5 -25zM386 845q-33 0 -52.5 18t-19.5 47q0 37 29 62.5 t71 25.5q34 0 54.5 -18.5t20.5 -47.5q0 -37 -29.5 -62t-73.5 -25z"/>
<glyph glyph-name="Eth" horiz-adv-x="867" unicode="Ð" d="M416 742q217 -23 326.5 -121.5t109.5 -231.5q0 -78 -34.5 -152.5t-90.5 -132t-127.5 -106t-146.5 -80.5t-145.5 -49.5t-126.5 -17.5q-65 0 -100 24t-36 69h12q159 0 302 61t229.5 165t86.5 221q0 113 -80.5 186.5t-215.5 85.5q-62 -125 -101 -265h29q73 0 114 -10.5 t41 -42.5q0 -16 -10.5 -35t-26.5 -31q-66 10 -175 10q-18 -80 -30 -170q-9 -69 -12 -143q-21 -7 -42 -7q-47 0 -72.5 40.5t-25.5 105.5q0 74 26 175q-76 2 -109 14.5t-33 43.5q0 21 23 52q104 -2 153 -2q44 124 115 257q-14 -3 -41 -11t-45.5 -11.5t-38.5 -3.5q-67 0 -67 59 q0 13 7 43q133 17 235 17h4q34 50 48 57q3 -1 17.5 -6.5t24.5 -10t19.5 -16.5t9.5 -27v-3z"/>
<glyph glyph-name="Ntilde" horiz-adv-x="872" unicode="Ñ" d="M894 776q38 0 59.5 -26.5t21.5 -70.5q0 -14 -1 -21q-12 -9 -33 -20t-30.5 -18.5t-23.5 -26.5t-25 -53t-23 -88q-10 -47 -20.5 -120t-17.5 -128.5t-22.5 -119.5t-36 -106.5t-58 -74t-88.5 -38.5q-5 -1 -16 -1q-52 0 -99.5 49t-80 118.5t-60.5 164t-43.5 166.5t-27.5 145 q-16 -108 -30.5 -233.5t-21 -194.5t-6.5 -74q0 -79 8 -124q-8 -8 -35 -15.5t-55 -7.5q-10 0 -26 2q-33 6 -48.5 36t-15.5 92q0 83 19 178.5t42.5 168t42.5 166t19 172.5q0 47 -1 63q53 16 94 16q52 0 76 -25q28 -31 34 -110q4 -63 50 -231t85 -248q28 -58 57.5 -94.5 t42.5 -36.5q8 0 20.5 33.5t26.5 100t25 150.5q10 78 18.5 129.5t21.5 113.5t28.5 100.5t37 73.5t51 51.5t65.5 16.5zM441 813h-10q-30 0 -47.5 12t-17.5 33q0 38 44 72.5t92 34.5q32 0 62.5 -14.5t52.5 -29t33 -14.5q17 0 55 52h8q32 0 50 -10.5t18 -29.5q0 -33 -43.5 -72.5 t-94.5 -39.5q-40 0 -89.5 29t-59.5 29q-11 0 -26.5 -15t-26.5 -37z"/>
<glyph glyph-name="Ograve" d="M397 -156q-163 0 -255.5 105.5t-92.5 287.5q0 64 17 142t46 150t75 120.5t98 48.5q23 0 41.5 -11.5t25.5 -30.5q-63 -56 -102.5 -165.5t-39.5 -238.5q0 -146 50.5 -232.5t138.5 -86.5q136 0 229 141.5t93 356.5q0 121 -36.5 192.5t-101.5 71.5q-63 0 -109.5 -57.5 t-46.5 -138.5q0 -61 30.5 -97.5t82.5 -36.5h4q-11 -54 -45.5 -86.5t-79.5 -32.5q-60 0 -95 47t-35 126q0 60 21.5 122.5t59.5 116t99 88t133 34.5q64 0 115 -24t81 -61.5t50 -88t27.5 -97.5t7.5 -96q0 -134 -42.5 -244.5t-112 -180t-155.5 -107t-176 -37.5zM586 825 q-54 0 -110 75t-56 126q0 18 22 29t55 11q45 0 74 -22q0 -2 3 -17.5t5 -24.5t8 -28.5t13.5 -35.5t20.5 -38.5t29 -44.5q-37 -30 -64 -30z" unicode="Ò"/>
<glyph glyph-name="Oacute" d="M397 -156q-163 0 -255.5 105.5t-92.5 287.5q0 64 17 142t46 150t75 120.5t98 48.5q23 0 41.5 -11.5t25.5 -30.5q-63 -56 -102.5 -165.5t-39.5 -238.5q0 -146 50.5 -232.5t138.5 -86.5q136 0 229 141.5t93 356.5q0 121 -36.5 192.5t-101.5 71.5q-63 0 -109.5 -57.5 t-46.5 -138.5q0 -61 30.5 -97.5t82.5 -36.5h4q-11 -54 -45.5 -86.5t-79.5 -32.5q-60 0 -95 47t-35 126q0 60 21.5 122.5t59.5 116t99 88t133 34.5q64 0 115 -24t81 -61.5t50 -88t27.5 -97.5t7.5 -96q0 -134 -42.5 -244.5t-112 -180t-155.5 -107t-176 -37.5zM491 825 q-28 0 -58 30q26 26 46.5 51t34.5 48t21 36.5t15 32.5t9 21q34 22 79 22q30 0 49.5 -9.5t19.5 -23.5q0 -27 -36.5 -76.5t-89 -90.5t-90.5 -41z" unicode="Ó"/>
<glyph glyph-name="Ocircumflex" d="M397 -156q-163 0 -255.5 105.5t-92.5 287.5q0 64 17 142t46 150t75 120.5t98 48.5q23 0 41.5 -11.5t25.5 -30.5q-63 -56 -102.5 -165.5t-39.5 -238.5q0 -146 50.5 -232.5t138.5 -86.5q136 0 229 141.5t93 356.5q0 121 -36.5 192.5t-101.5 71.5q-63 0 -109.5 -57.5 t-46.5 -138.5q0 -61 30.5 -97.5t82.5 -36.5h4q-11 -54 -45.5 -86.5t-79.5 -32.5q-60 0 -95 47t-35 126q0 60 21.5 122.5t59.5 116t99 88t133 34.5q64 0 115 -24t81 -61.5t50 -88t27.5 -97.5t7.5 -96q0 -134 -42.5 -244.5t-112 -180t-155.5 -107t-176 -37.5zM377 824 q-39 0 -58 51q107 109 155.5 147.5t80.5 38.5t70.5 -38.5t119.5 -147.5q-32 -51 -70 -51q-30 0 -66 32.5t-68 87.5q-44 -54 -88.5 -87t-75.5 -33z" unicode="Ô"/>
<glyph glyph-name="Otilde" d="M397 -156q-163 0 -255.5 105.5t-92.5 287.5q0 64 17 142t46 150t75 120.5t98 48.5q23 0 41.5 -11.5t25.5 -30.5q-63 -56 -102.5 -165.5t-39.5 -238.5q0 -146 50.5 -232.5t138.5 -86.5q136 0 229 141.5t93 356.5q0 121 -36.5 192.5t-101.5 71.5q-63 0 -109.5 -57.5 t-46.5 -138.5q0 -61 30.5 -97.5t82.5 -36.5h4q-11 -54 -45.5 -86.5t-79.5 -32.5q-60 0 -95 47t-35 126q0 60 21.5 122.5t59.5 116t99 88t133 34.5q64 0 115 -24t81 -61.5t50 -88t27.5 -97.5t7.5 -96q0 -134 -42.5 -244.5t-112 -180t-155.5 -107t-176 -37.5zM608 845 q-40 0 -89.5 29t-59.5 29q-11 0 -26.5 -15t-26.5 -37h-10q-30 0 -47.5 12t-17.5 33q0 38 44 72.5t92 34.5q32 0 62.5 -14.5t52.5 -29t33 -14.5q17 0 55 52h8q32 0 50 -10.5t18 -29.5q0 -33 -43.5 -72.5t-94.5 -39.5z" unicode="Õ"/>
<glyph glyph-name="Odieresis" d="M397 -156q-163 0 -255.5 105.5t-92.5 287.5q0 64 17 142t46 150t75 120.5t98 48.5q23 0 41.5 -11.5t25.5 -30.5q-63 -56 -102.5 -165.5t-39.5 -238.5q0 -146 50.5 -232.5t138.5 -86.5q136 0 229 141.5t93 356.5q0 121 -36.5 192.5t-101.5 71.5q-63 0 -109.5 -57.5 t-46.5 -138.5q0 -61 30.5 -97.5t82.5 -36.5h4q-11 -54 -45.5 -86.5t-79.5 -32.5q-60 0 -95 47t-35 126q0 60 21.5 122.5t59.5 116t99 88t133 34.5q64 0 115 -24t81 -61.5t50 -88t27.5 -97.5t7.5 -96q0 -134 -42.5 -244.5t-112 -180t-155.5 -107t-176 -37.5zM619 845 q-33 0 -52.5 18t-19.5 47q0 37 29 62.5t71 25.5q34 0 54.5 -18.5t20.5 -47.5q0 -37 -29.5 -62t-73.5 -25zM423 845q-33 0 -52.5 18t-19.5 47q0 37 29 62.5t71 25.5q34 0 54.5 -18.5t20.5 -47.5q0 -37 -29.5 -62t-73.5 -25z" unicode="Ö"/>
<glyph glyph-name="multiply" horiz-adv-x="463" unicode="×" d="M472 386q-41 -49 -123 -124q77 -90 107 -140v-9q0 -25 -15 -41.5t-38 -16.5q-25 0 -56 26t-91 97q-76 -69 -114 -96.5t-65 -27.5q-22 0 -38.5 16.5t-21.5 38.5q17 18 34 34.5t31 29t44 39t58 51.5l-116 136q8 17 26 34q25 22 47 22q26 0 55 -25t80 -84q68 61 102 84 t58 23q19 0 30 -11t11 -30q0 -9 -5 -26z"/>
<glyph glyph-name="Oslash" d="M721 431q0 35 -3 66q-78 -99 -227 -280q-131 -157 -201 -237q44 -47 109 -47q136 0 229 141.5t93 356.5zM583 695q-63 0 -109.5 -57.5t-46.5 -138.5q0 -79 48 -113q100 120 202 251q-36 58 -94 58zM887 721q0 -7 -55 -78q51 -95 51 -230q0 -134 -42.5 -244.5t-112 -180 t-155.5 -107t-176 -37.5q-106 0 -184 46q-59 -69 -59 -75q0 -1 3 1l5 -9q-50 26 -71 47t-21 45q0 10 53 74q-74 102 -74 264q0 64 17 142t46 150t75 120.5t98 48.5q23 0 41.5 -11.5t25.5 -30.5q-63 -56 -102.5 -165.5t-39.5 -238.5q0 -90 19 -156q58 66 138 161 q-78 37 -78 162q0 60 21.5 122.5t59.5 116t99 88t133 34.5q88 0 151 -45q31 40 41 59q39 -4 65 -25t28 -48z" unicode="Ø"/>
<glyph glyph-name="Ugrave" horiz-adv-x="871" unicode="Ù" d="M926 724l-12 -24q-13 -24 -18.5 -35.5t-20 -41.5t-22.5 -53t-20.5 -59t-20 -70.5t-15 -75.5t-11 -86t-3.5 -92q0 -96 13 -151.5t40 -99.5q-55 -51 -111 -51q-70 0 -91 63q-12 35 -12 108v19q-82 -117 -176 -191.5t-176 -74.5q-95 0 -145.5 70.5t-50.5 200.5q0 56 11 130 q12 74 42.5 211.5t39.5 196.5q4 36 4 44q0 23 -12 65q16 22 48.5 36t70.5 14q37 0 58 -23.5t21 -65.5q0 -47 -50.5 -221t-66.5 -281q-11 -74 -11 -122q0 -125 65 -125q57 0 133.5 76t143.5 192.5t100 231.5q33 156 68 244q14 35 43.5 52.5t64.5 17.5q50 0 79 -29zM629 787 q-54 0 -110 75t-56 126q0 18 22 29t55 11q45 0 74 -22q0 -2 3 -17.5t5 -24.5t8 -28.5t13.5 -35.5t20.5 -38.5t29 -44.5q-37 -30 -64 -30z"/>
<glyph glyph-name="Uacute" horiz-adv-x="871" unicode="Ú" d="M926 724l-12 -24q-13 -24 -18.5 -35.5t-20 -41.5t-22.5 -53t-20.5 -59t-20 -70.5t-15 -75.5t-11 -86t-3.5 -92q0 -96 13 -151.5t40 -99.5q-55 -51 -111 -51q-70 0 -91 63q-12 35 -12 108v19q-82 -117 -176 -191.5t-176 -74.5q-95 0 -145.5 70.5t-50.5 200.5q0 56 11 130 q12 74 42.5 211.5t39.5 196.5q4 36 4 44q0 23 -12 65q16 22 48.5 36t70.5 14q37 0 58 -23.5t21 -65.5q0 -47 -50.5 -221t-66.5 -281q-11 -74 -11 -122q0 -125 65 -125q57 0 133.5 76t143.5 192.5t100 231.5q33 156 68 244q14 35 43.5 52.5t64.5 17.5q50 0 79 -29zM750 995 q0 -27 -36.5 -76.5t-89 -90.5t-90.5 -41q-28 0 -58 30q26 26 46.5 51t34.5 48t21 36.5t15 32.5t9 21q34 22 79 22q30 0 49.5 -9.5t19.5 -23.5z"/>
<glyph glyph-name="Ucircumflex" horiz-adv-x="871" unicode="Û" d="M926 724l-12 -24q-13 -24 -18.5 -35.5t-20 -41.5t-22.5 -53t-20.5 -59t-20 -70.5t-15 -75.5t-11 -86t-3.5 -92q0 -96 13 -151.5t40 -99.5q-55 -51 -111 -51q-70 0 -91 63q-12 35 -12 108v19q-82 -117 -176 -191.5t-176 -74.5q-95 0 -145.5 70.5t-50.5 200.5q0 56 11 130 q12 74 42.5 211.5t39.5 196.5q4 36 4 44q0 23 -12 65q16 22 48.5 36t70.5 14q37 0 58 -23.5t21 -65.5q0 -47 -50.5 -221t-66.5 -281q-11 -74 -11 -122q0 -125 65 -125q57 0 133.5 76t143.5 192.5t100 231.5q33 156 68 244q14 35 43.5 52.5t64.5 17.5q50 0 79 -29zM420 786 q-39 0 -58 51q107 109 155.5 147.5t80.5 38.5t70.5 -38.5t119.5 -147.5q-32 -51 -70 -51q-30 0 -66 32.5t-68 87.5q-44 -54 -88.5 -87t-75.5 -33z"/>
<glyph glyph-name="Udieresis" horiz-adv-x="871" unicode="Ü" d="M926 724l-12 -24q-13 -24 -18.5 -35.5t-20 -41.5t-22.5 -53t-20.5 -59t-20 -70.5t-15 -75.5t-11 -86t-3.5 -92q0 -96 13 -151.5t40 -99.5q-55 -51 -111 -51q-70 0 -91 63q-12 35 -12 108v19q-82 -117 -176 -191.5t-176 -74.5q-95 0 -145.5 70.5t-50.5 200.5q0 56 11 130 q12 74 42.5 211.5t39.5 196.5q4 36 4 44q0 23 -12 65q16 22 48.5 36t70.5 14q37 0 58 -23.5t21 -65.5q0 -47 -50.5 -221t-66.5 -281q-11 -74 -11 -122q0 -125 65 -125q57 0 133.5 76t143.5 192.5t100 231.5q33 156 68 244q14 35 43.5 52.5t64.5 17.5q50 0 79 -29zM662 807 q-33 0 -52.5 18t-19.5 47q0 37 29 62.5t71 25.5q34 0 54.5 -18.5t20.5 -47.5q0 -37 -29.5 -62t-73.5 -25zM466 807q-33 0 -52.5 18t-19.5 47q0 37 29 62.5t71 25.5q34 0 54.5 -18.5t20.5 -47.5q0 -37 -29.5 -62t-73.5 -25z"/>
<glyph glyph-name="Yacute" horiz-adv-x="761" unicode="Ý" d="M595 591q22 172 157 172q20 0 52 -5q-26 -46 -39 -116t-40 -289q-12 -100 -41 -182.5t-65 -136t-81.5 -94t-86.5 -62t-85.5 -34.5t-73 -16.5t-54.5 -3.5q-81 0 -141.5 27.5t-60.5 66.5q0 58 94 107q28 -54 69 -79t71 -25q68 0 120 27.5t85 79.5t53 113t32 140 q-111 -154 -240 -154q-61 0 -105.5 26t-68.5 71t-35 95.5t-11 108.5q0 90 22.5 167.5t58.5 109.5q55 48 153 48q10 0 36 -2q-4 -6 -21.5 -32t-22 -33t-18 -31.5t-17.5 -38.5t-13 -41.5t-11.5 -53t-5.5 -62t-3 -77.5q0 -74 21 -113t61 -39q74 0 145.5 101.5t108.5 258.5z M679 995q0 -27 -36.5 -76.5t-89 -90.5t-90.5 -41q-28 0 -58 30q26 26 46.5 51t34.5 48t21 36.5t15 32.5t9 21q34 22 79 22q30 0 49.5 -9.5t19.5 -23.5z"/>
<glyph glyph-name="Thorn" horiz-adv-x="885" unicode="Þ" d="M432 496h-2q-10 -64 -54.5 -197.5t-54.5 -237.5h16q83 0 161.5 26.5t135 84.5t56.5 136v9q0 84 -67 131.5t-191 47.5zM332 -13h-15v-25q0 -92 17 -134q-50 -16 -104 -16q-3 0 -7 0.5t-6 0.5q-78 7 -78 99q0 57 46 217q54 193 83 314l6 24q-52 -20 -83 -50t-31 -67 q0 -33 42 -58q-11 -22 -39.5 -36t-60.5 -14q-41 0 -67.5 25t-26.5 63q0 59 75.5 126t204.5 100q1 10 1 27q0 49 -25 87q46 44 103 44q37 0 52 -23q20 -27 20 -76q0 -26 -1 -38q13 1 41 1q168 0 276.5 -69.5t108.5 -176.5q0 -61 -37.5 -121.5t-104 -110.5t-169 -81.5 t-221.5 -31.5z"/>
<glyph glyph-name="germandbls" horiz-adv-x="649" unicode="ß" d="M389 -16q-57 0 -91 15.5t-34 43.5q0 22 15 42.5t41 31.5q23 -22 39 -31t39 -9q34 0 60 28t26 57q0 25 -17.5 49.5t-42 46l-49 43t-42 48.5t-17.5 56q0 28 16 55t34.5 46t34.5 48t16 60q0 27 -10.5 44t-26.5 17q-91 0 -140 -381q-2 -15 -5 -46.5t-5.5 -56t-7 -57 t-11.5 -56t-16.5 -45t-23.5 -33t-32 -11.5q-13 0 -28 7t-21.5 12t-33.5 25q25 48 44 202q9 71 18.5 125.5t25 117.5t36.5 108t50 84t69.5 59t89.5 20q65 0 106 -42t41 -105q0 -39 -17 -70.5t-37 -47.5t-37 -32t-17 -26q0 -13 14.5 -27t53.5 -41q33 -23 54.5 -43.5t39.5 -56 t18 -77.5q0 -83 -65 -140t-154 -57z"/>
<glyph glyph-name="agrave" horiz-adv-x="513" unicode="à" d="M148 142q26 0 74 72.5t70 143.5q-6 23 -19 23q-31 0 -87 -76.5t-56 -129.5q0 -33 18 -33zM583 332q2 0 4 0.5t3 0.5q15 0 23 -8.5t8 -16.5q0 -11 -25 -46.5t-62 -76t-86.5 -71.5t-91.5 -31q-53 0 -68 51q-32 -46 -81 -75t-98 -30h-2q-50 0 -85.5 34t-35.5 98 q0 108 90 200t196 92q64 0 104.5 -35t44.5 -72q-31 -91 -31 -130q0 -21 6 -33t14 -12q22 0 74.5 51t98.5 110zM301 482q-54 0 -110 75t-56 126q0 18 22 29t55 11q45 0 74 -22q0 -2 3 -17.5t5 -24.5t8 -28.5t13.5 -35.5t20.5 -38.5t29 -44.5q-33 -30 -64 -30z"/>
<glyph glyph-name="aacute" horiz-adv-x="513" unicode="á" d="M148 142q26 0 74 72.5t70 143.5q-6 23 -19 23q-31 0 -87 -76.5t-56 -129.5q0 -33 18 -33zM583 332q2 0 4 0.5t3 0.5q15 0 23 -8.5t8 -16.5q0 -11 -25 -46.5t-62 -76t-86.5 -71.5t-91.5 -31q-53 0 -68 51q-32 -46 -81 -75t-98 -30h-2q-50 0 -85.5 34t-35.5 98 q0 108 90 200t196 92q64 0 104.5 -35t44.5 -72q-31 -91 -31 -130q0 -21 6 -33t14 -12q22 0 74.5 51t98.5 110zM462 690q0 -27 -36.5 -76.5t-89 -90.5t-90.5 -41q-28 0 -58 30q22 22 41 44.5t30 38.5t22 36t15 28t11 25l7 17q34 22 79 22q30 0 49.5 -9.5t19.5 -23.5z"/>
<glyph glyph-name="acircumflex" horiz-adv-x="513" unicode="â" d="M148 142q26 0 74 72.5t70 143.5q-6 23 -19 23q-31 0 -87 -76.5t-56 -129.5q0 -33 18 -33zM583 332q2 0 4 0.5t3 0.5q15 0 23 -8.5t8 -16.5q0 -11 -25 -46.5t-62 -76t-86.5 -71.5t-91.5 -31q-53 0 -68 51q-32 -46 -81 -75t-98 -30h-2q-50 0 -85.5 34t-35.5 98 q0 108 90 200t196 92q64 0 104.5 -35t44.5 -72q-31 -91 -31 -130q0 -21 6 -33t14 -12q22 0 74.5 51t98.5 110zM141 486q-36 0 -53 51q97 108 142 147t75 39t65.5 -38.5t106.5 -147.5q-29 -51 -66 -51q-27 0 -59 32t-61 87q-40 -54 -80.5 -86.5t-69.5 -32.5z"/>
<glyph glyph-name="atilde" horiz-adv-x="513" unicode="ã" d="M148 142q26 0 74 72.5t70 143.5q-6 23 -19 23q-31 0 -87 -76.5t-56 -129.5q0 -33 18 -33zM583 332q2 0 4 0.5t3 0.5q15 0 23 -8.5t8 -16.5q0 -11 -25 -46.5t-62 -76t-86.5 -71.5t-91.5 -31q-53 0 -68 51q-32 -46 -81 -75t-98 -30h-2q-50 0 -85.5 34t-35.5 98 q0 108 90 200t196 92q64 0 104.5 -35t44.5 -72q-31 -91 -31 -130q0 -21 6 -33t14 -12q22 0 74.5 51t98.5 110zM159 513h-10q-30 0 -48 12t-18 33q0 38 44.5 72.5t92.5 34.5q32 0 62.5 -14.5t52.5 -29t33 -14.5q18 0 54 52h8q32 0 50 -10.5t18 -29.5q0 -33 -43 -72.5 t-94 -39.5q-31 0 -62 14.5t-53.5 29t-33.5 14.5q-12 0 -27.5 -15t-25.5 -37z"/>
<glyph glyph-name="adieresis" horiz-adv-x="513" unicode="ä" d="M148 142q26 0 74 72.5t70 143.5q-6 23 -19 23q-31 0 -87 -76.5t-56 -129.5q0 -33 18 -33zM583 332q2 0 4 0.5t3 0.5q15 0 23 -8.5t8 -16.5q0 -11 -25 -46.5t-62 -76t-86.5 -71.5t-91.5 -31q-53 0 -68 51q-32 -46 -81 -75t-98 -30h-2q-50 0 -85.5 34t-35.5 98 q0 108 90 200t196 92q64 0 104.5 -35t44.5 -72q-31 -91 -31 -130q0 -21 6 -33t14 -12q22 0 74.5 51t98.5 110zM372 503q-33 0 -52 18t-19 47q0 37 28.5 62.5t70.5 25.5q34 0 55 -18.5t21 -47.5q0 -37 -30 -62t-74 -25zM176 503q-33 0 -52 18t-19 47q0 37 28.5 62.5 t70.5 25.5q34 0 55 -18.5t21 -47.5q0 -37 -30 -62t-74 -25z"/>
<glyph glyph-name="aring" horiz-adv-x="513" unicode="å" d="M148 142q26 0 74 72.5t70 143.5q-6 23 -19 23q-31 0 -87 -76.5t-56 -129.5q0 -33 18 -33zM583 332q2 0 4 0.5t3 0.5q15 0 23 -8.5t8 -16.5q0 -11 -25 -46.5t-62 -76t-86.5 -71.5t-91.5 -31q-53 0 -68 51q-32 -46 -81 -75t-98 -30h-2q-50 0 -85.5 34t-35.5 98 q0 108 90 200t196 92q64 0 104.5 -35t44.5 -72q-31 -91 -31 -130q0 -21 6 -33t14 -12q22 0 74.5 51t98.5 110zM299 651q-15 0 -24 -17t-9 -46q0 -37 18 -37q14 0 23.5 17.5t9.5 46.5q0 36 -18 36zM278 492q-48 0 -77.5 27t-29.5 70q0 52 39 86.5t96 34.5q48 0 77.5 -27 t29.5 -70q0 -52 -39 -86.5t-96 -34.5z"/>
<glyph glyph-name="ae" horiz-adv-x="780" unicode="æ" d="M194 108q68 0 95 101q-50 -2 -82 -18q-42 -21 -42 -56q0 -27 29 -27zM511 394q-20 0 -42.5 -40t-22.5 -91q0 -21 3 -39q80 63 80 131q0 39 -18 39zM836 342q17 7 33 7q34 0 34 -30q0 -18 -33 -67t-83.5 -103t-122.5 -95.5t-138 -41.5q-109 0 -175 71q-70 -76 -174 -76 q-61 0 -96 32t-35 83q0 75 76.5 115.5t175.5 42.5q1 7 1 21q0 91 -65 91q-55 0 -96 -37q-33 21 -33 49q0 34 43 60t112 26q95 0 137 -55q60 47 126 47q52 0 81 -29.5t29 -81.5q0 -120 -159 -217q30 -47 76 -47q57 0 138 67t148 168z"/>
<glyph glyph-name="ccedilla" horiz-adv-x="490" unicode="ç" d="M609 315q0 -17 -35 -59.5t-87.5 -89.5t-122.5 -88.5t-131 -54.5l-15 -24q71 -10 71 -78q0 -50 -43.5 -85.5t-105.5 -35.5q-39 0 -63 17t-24 39q0 14 10.5 27.5t31.5 18.5q15 -21 37 -21q14 0 24 11.5t10 29.5t-13.5 28.5t-35.5 10.5l4 30l15 32q-59 13 -92.5 58.5 t-33.5 111.5q0 99 70.5 180t183.5 81q53 0 96 -27.5t43 -60.5q0 -19 -18 -33.5t-65 -32.5q-29 67 -58 67q-36 0 -64.5 -48t-28.5 -112q0 -46 17 -74.5t46 -28.5q66 0 171 82t159 162q47 0 47 -33z"/>
<glyph glyph-name="egrave" horiz-adv-x="498" unicode="è" d="M237 393q-18 0 -37.5 -41.5t-19.5 -94.5q0 -13 1 -19q69 64 69 126q0 29 -13 29zM557 345q18 5 30 5q34 0 34 -31q0 -19 -34.5 -68t-86.5 -103t-125.5 -95.5t-139.5 -41.5q-97 0 -156.5 58.5t-59.5 150.5q0 106 67 184.5t156 78.5q52 0 80.5 -29t28.5 -82 q0 -118 -150 -214q25 -50 74 -50q58 0 135.5 65.5t146.5 171.5zM276 513q-54 0 -110 75t-56 126q0 18 22 29t55 11q45 0 74 -22q0 -2 3 -17.5t5 -24.5t8 -28.5t13.5 -35.5t20.5 -38.5t29 -44.5q-33 -30 -64 -30z"/>
<glyph glyph-name="eacute" horiz-adv-x="498" unicode="é" d="M237 393q-18 0 -37.5 -41.5t-19.5 -94.5q0 -13 1 -19q69 64 69 126q0 29 -13 29zM557 345q18 5 30 5q34 0 34 -31q0 -19 -34.5 -68t-86.5 -103t-125.5 -95.5t-139.5 -41.5q-97 0 -156.5 58.5t-59.5 150.5q0 106 67 184.5t156 78.5q52 0 80.5 -29t28.5 -82 q0 -118 -150 -214q25 -50 74 -50q58 0 135.5 65.5t146.5 171.5zM437 721q0 -27 -36.5 -76.5t-89 -90.5t-90.5 -41q-28 0 -58 30q22 22 41 44.5t30 38.5t22 36t15 28t11 25l7 17q34 22 79 22q30 0 49.5 -9.5t19.5 -23.5z"/>
<glyph glyph-name="ecircumflex" horiz-adv-x="498" unicode="ê" d="M237 393q-18 0 -37.5 -41.5t-19.5 -94.5q0 -13 1 -19q69 64 69 126q0 29 -13 29zM557 345q18 5 30 5q34 0 34 -31q0 -19 -34.5 -68t-86.5 -103t-125.5 -95.5t-139.5 -41.5q-97 0 -156.5 58.5t-59.5 150.5q0 106 67 184.5t156 78.5q52 0 80.5 -29t28.5 -82 q0 -118 -150 -214q25 -50 74 -50q58 0 135.5 65.5t146.5 171.5zM116 517q-36 0 -53 51q97 108 142 147t75 39t65.5 -38.5t106.5 -147.5q-29 -51 -66 -51q-27 0 -59 32t-61 87q-40 -54 -80.5 -86.5t-69.5 -32.5z"/>
<glyph glyph-name="edieresis" horiz-adv-x="498" unicode="ë" d="M237 393q-18 0 -37.5 -41.5t-19.5 -94.5q0 -13 1 -19q69 64 69 126q0 29 -13 29zM557 345q18 5 30 5q34 0 34 -31q0 -19 -34.5 -68t-86.5 -103t-125.5 -95.5t-139.5 -41.5q-97 0 -156.5 58.5t-59.5 150.5q0 106 67 184.5t156 78.5q52 0 80.5 -29t28.5 -82 q0 -118 -150 -214q25 -50 74 -50q58 0 135.5 65.5t146.5 171.5zM347 534q-33 0 -52 18t-19 47q0 37 28.5 62.5t70.5 25.5q34 0 55 -18.5t21 -47.5q0 -37 -30 -62t-74 -25zM151 534q-33 0 -52 18t-19 47q0 37 28.5 62.5t70.5 25.5q34 0 55 -18.5t21 -47.5q0 -37 -30 -62 t-74 -25z"/>
<glyph glyph-name="igrave" horiz-adv-x="196" unicode="ì" d="M70 -15q-34 0 -48 22.5t-14 65.5q0 34 13.5 112t18.5 126l8 68q48 8 59 8q73 0 73 -68q0 -10 -4 -33t-15.5 -97t-24.5 -181q-36 -23 -66 -23zM141 409q-54 0 -110 75t-56 126q0 18 22 29t55 11q45 0 74 -22q0 -2 3 -17.5t5 -24.5t8 -28.5t13.5 -35.5t20.5 -38.5t29 -44.5 q-33 -30 -64 -30z"/>
<glyph glyph-name="iacute" horiz-adv-x="196" unicode="í" d="M70 -15q-34 0 -48 22.5t-14 65.5q0 34 13.5 112t18.5 126l8 68q48 8 59 8q73 0 73 -68q0 -10 -4 -33t-15.5 -97t-24.5 -181q-36 -23 -66 -23zM86 409q-28 0 -58 30q22 22 41 44.5t30 38.5t22 36t15 28t11 25l7 17q34 22 79 22q30 0 49.5 -9.5t19.5 -23.5 q0 -27 -36.5 -76.5t-89 -90.5t-90.5 -41z"/>
<glyph glyph-name="icircumflex" horiz-adv-x="196" unicode="î" d="M70 -15q-34 0 -48 22.5t-14 65.5q0 34 13.5 112t18.5 126l8 68q48 8 59 8q73 0 73 -68q0 -10 -4 -33t-15.5 -97t-24.5 -181q-36 -23 -66 -23zM-19 413q-36 0 -53 51q97 108 142 147t75 39t65.5 -38.5t106.5 -147.5q-29 -51 -66 -51q-27 0 -59 32t-61 87 q-40 -54 -80.5 -86.5t-69.5 -32.5z"/>
<glyph glyph-name="idieresis" horiz-adv-x="196" unicode="ï" d="M70 -15q-34 0 -48 22.5t-14 65.5q0 34 13.5 112t18.5 126l8 68q48 8 59 8q73 0 73 -68q0 -10 -4 -33t-15.5 -97t-24.5 -181q-36 -23 -66 -23zM212 430q-33 0 -52 18t-19 47q0 37 28.5 62.5t70.5 25.5q34 0 55 -18.5t21 -47.5q0 -37 -30 -62t-74 -25zM16 430q-33 0 -52 18 t-19 47q0 37 28.5 62.5t70.5 25.5q34 0 55 -18.5t21 -47.5q0 -37 -30 -62t-74 -25z"/>
<glyph glyph-name="eth" horiz-adv-x="600" unicode="ð" d="M236 71q43 0 84 84.5t41 196.5v18q-70 -6 -118.5 -63t-48.5 -138q0 -40 12 -69t30 -29zM450 584q62 -87 62 -212q0 -35 -5.5 -76t-24 -97t-48.5 -99.5t-85.5 -75t-127.5 -32.5h-2q-76 0 -125.5 50.5t-49.5 126.5q0 110 88.5 187.5t221.5 85.5q-8 41 -21 71 q-78 -38 -99 -38q-39 2 -39 45q0 6 2 18q33 15 86 42q-29 20 -65 20q-30 0 -72 -14q-27 20 -27 45q0 29 34 48t85 19q84 0 157 -58q59 33 105 56q11 -30 11 -47q0 -20 -61 -65z"/>
<glyph glyph-name="ntilde" horiz-adv-x="676" unicode="ñ" d="M743 322q9 3 19 3q16 0 27 -8.5t11 -23.5q0 -21 -38 -69.5t-93.5 -100.5t-130 -91.5t-136.5 -39.5q-105 0 -105 120q0 44 23.5 124.5t23.5 109.5q0 20 -10 23q-32 -15 -78.5 -92.5t-97.5 -209.5q-24 -13 -53 -13q-84 0 -84 97q0 52 18 132.5t18 121.5q0 29 -3 45 q42 37 93 37q30 0 46.5 -17t16.5 -47q0 -9 -3 -27t-8 -47t-8 -49q107 147 201 147q91 0 91 -109q0 -28 -11.5 -89t-11.5 -91q0 -70 32 -70q35 0 113.5 69t137.5 165zM380 512q-31 0 -62 14.5t-53.5 29t-33.5 14.5q-12 0 -27.5 -15t-25.5 -37h-10q-30 0 -48 12t-18 33 q0 38 44.5 72.5t92.5 34.5q32 0 62.5 -14.5t52.5 -29t33 -14.5q18 0 54 52h8q32 0 50 -10.5t18 -29.5q0 -33 -43 -72.5t-94 -39.5z"/>
<glyph glyph-name="ograve" horiz-adv-x="548" unicode="ò" d="M186 94q29 0 55.5 60t26.5 132q0 47 -14.5 74t-39.5 27q-16 0 -40 -29q32 -17 32 -62q0 -22 -12 -56q-17 0 -32.5 -26t-15.5 -56q0 -26 12 -45t28 -19zM632 332q28 -2 28 -27q0 -40 -74.5 -96.5t-146.5 -56.5q-31 0 -60 13q-32 -59 -85 -96t-121 -38h-4q-82 0 -124 53 t-42 121q0 66 34 111.5t87 50.5q13 51 54 80t99 29q65 0 103 -44.5t38 -119.5q0 -36 -9 -72q23 -15 46 -15q40 0 87.5 28t89.5 79zM288 497q-54 0 -110 75t-56 126q0 18 22 29t55 11q45 0 74 -22q0 -2 3 -17.5t5 -24.5t8 -28.5t13.5 -35.5t20.5 -38.5t29 -44.5 q-33 -30 -64 -30z"/>
<glyph glyph-name="oacute" horiz-adv-x="548" unicode="ó" d="M186 94q29 0 55.5 60t26.5 132q0 47 -14.5 74t-39.5 27q-16 0 -40 -29q32 -17 32 -62q0 -22 -12 -56q-17 0 -32.5 -26t-15.5 -56q0 -26 12 -45t28 -19zM632 332q28 -2 28 -27q0 -40 -74.5 -96.5t-146.5 -56.5q-31 0 -60 13q-32 -59 -85 -96t-121 -38h-4q-82 0 -124 53 t-42 121q0 66 34 111.5t87 50.5q13 51 54 80t99 29q65 0 103 -44.5t38 -119.5q0 -36 -9 -72q23 -15 46 -15q40 0 87.5 28t89.5 79zM449 705q0 -27 -36.5 -76.5t-89 -90.5t-90.5 -41q-28 0 -58 30q22 22 41 44.5t30 38.5t22 36t15 28t11 25l7 17q34 22 79 22q30 0 49.5 -9.5 t19.5 -23.5z"/>
<glyph glyph-name="ocircumflex" horiz-adv-x="548" unicode="ô" d="M186 94q29 0 55.5 60t26.5 132q0 47 -14.5 74t-39.5 27q-16 0 -40 -29q32 -17 32 -62q0 -22 -12 -56q-17 0 -32.5 -26t-15.5 -56q0 -26 12 -45t28 -19zM632 332q28 -2 28 -27q0 -40 -74.5 -96.5t-146.5 -56.5q-31 0 -60 13q-32 -59 -85 -96t-121 -38h-4q-82 0 -124 53 t-42 121q0 66 34 111.5t87 50.5q13 51 54 80t99 29q65 0 103 -44.5t38 -119.5q0 -36 -9 -72q23 -15 46 -15q40 0 87.5 28t89.5 79zM128 501q-36 0 -53 51q97 108 142 147t75 39t65.5 -38.5t106.5 -147.5q-29 -51 -66 -51q-27 0 -59 32t-61 87q-40 -54 -80.5 -86.5 t-69.5 -32.5z"/>
<glyph glyph-name="otilde" horiz-adv-x="548" unicode="õ" d="M186 94q29 0 55.5 60t26.5 132q0 47 -14.5 74t-39.5 27q-16 0 -40 -29q32 -17 32 -62q0 -22 -12 -56q-17 0 -32.5 -26t-15.5 -56q0 -26 12 -45t28 -19zM632 332q28 -2 28 -27q0 -40 -74.5 -96.5t-146.5 -56.5q-31 0 -60 13q-32 -59 -85 -96t-121 -38h-4q-82 0 -124 53 t-42 121q0 66 34 111.5t87 50.5q13 51 54 80t99 29q65 0 103 -44.5t38 -119.5q0 -36 -9 -72q23 -15 46 -15q40 0 87.5 28t89.5 79zM146 528h-10q-30 0 -48 12t-18 33q0 38 44.5 72.5t92.5 34.5q32 0 62.5 -14.5t52.5 -29t33 -14.5q18 0 54 52h8q32 0 50 -10.5t18 -29.5 q0 -33 -43 -72.5t-94 -39.5q-31 0 -62 14.5t-53.5 29t-33.5 14.5q-12 0 -27.5 -15t-25.5 -37z"/>
<glyph glyph-name="odieresis" horiz-adv-x="548" unicode="ö" d="M186 94q29 0 55.5 60t26.5 132q0 47 -14.5 74t-39.5 27q-16 0 -40 -29q32 -17 32 -62q0 -22 -12 -56q-17 0 -32.5 -26t-15.5 -56q0 -26 12 -45t28 -19zM632 332q28 -2 28 -27q0 -40 -74.5 -96.5t-146.5 -56.5q-31 0 -60 13q-32 -59 -85 -96t-121 -38h-4q-82 0 -124 53 t-42 121q0 66 34 111.5t87 50.5q13 51 54 80t99 29q65 0 103 -44.5t38 -119.5q0 -36 -9 -72q23 -15 46 -15q40 0 87.5 28t89.5 79zM359 518q-33 0 -52 18t-19 47q0 37 28.5 62.5t70.5 25.5q34 0 55 -18.5t21 -47.5q0 -37 -30 -62t-74 -25zM163 518q-33 0 -52 18t-19 47 q0 37 28.5 62.5t70.5 25.5q34 0 55 -18.5t21 -47.5q0 -37 -30 -62t-74 -25z"/>
<glyph glyph-name="divide" horiz-adv-x="575" unicode="÷" d="M294 155q31 0 49.5 -26.5t18.5 -52.5q0 -29 -28.5 -49.5t-67.5 -20.5q-34 0 -57 14t-23 35q0 35 35 67.5t73 32.5zM326 192q-153 0 -207 9t-54 50q0 18 15 41q108 9 262 9q12 0 38 0.5t39 0.5q74 0 115 -10.5t41 -43.5q0 -22 -31 -48q-70 -8 -218 -8zM277 328 q-31 0 -49.5 26.5t-18.5 52.5q0 29 28.5 49.5t67.5 20.5q34 0 57 -14t23 -35q0 -35 -35 -67.5t-73 -32.5z"/>
<glyph glyph-name="oslash" horiz-adv-x="548" unicode="ø" d="M186 94q21 0 42.5 35t32.5 87q-45 -50 -100 -107q12 -15 25 -15zM188 239q-18 -5 -32 -36q10 12 32 36zM214 387q-16 0 -40 -29q32 -17 32 -62q0 -20 -9 -47q46 52 68 78q-11 60 -51 60zM632 332q28 -2 28 -27q0 -40 -74.5 -96.5t-146.5 -56.5q-31 0 -60 13 q-32 -59 -85 -96t-121 -38q-44 0 -74 13q-3 -3 -7 -7.5t-6 -6.5q-31 -33 -59 -33t-37 35q26 22 55 53q-42 48 -42 120q0 66 34 111.5t87 50.5q13 51 54 80t99 29q52 0 87 -29q15 19 34 45q51 -6 51 -41q0 -15 -42 -68q11 -33 11 -71q0 -36 -9 -72q23 -15 46 -15 q40 0 87.5 28t89.5 79z"/>
<glyph glyph-name="ugrave" horiz-adv-x="533" unicode="ù" d="M616 362q10 2 15 2q14 0 23.5 -8.5t9.5 -23.5t-29.5 -61.5t-73 -98.5t-102 -92t-106.5 -40q-83 0 -93 94q-87 -95 -164 -95q-91 0 -91 103q0 23 17.5 113t17.5 138q0 22 -2 46q60 10 86 10q62 0 62 -63q0 -19 -16.5 -98.5t-16.5 -106.5q0 -33 13 -33t42 22t59 61 q3 17 11 52.5t12.5 63t4.5 52.5q0 27 -3 39q34 6 56 6q81 0 81 -87q0 -21 -17 -92.5t-17 -103.5q0 -40 18 -40q27 0 93.5 77.5t109.5 163.5zM273 487q-54 0 -110 75t-56 126q0 18 22 29t55 11q45 0 74 -22q0 -2 3 -17.5t5 -24.5t8 -28.5t13.5 -35.5t20.5 -38.5t29 -44.5 q-33 -30 -64 -30z"/>
<glyph glyph-name="uacute" horiz-adv-x="533" unicode="ú" d="M616 362q10 2 15 2q14 0 23.5 -8.5t9.5 -23.5t-29.5 -61.5t-73 -98.5t-102 -92t-106.5 -40q-83 0 -93 94q-87 -95 -164 -95q-91 0 -91 103q0 23 17.5 113t17.5 138q0 22 -2 46q60 10 86 10q62 0 62 -63q0 -19 -16.5 -98.5t-16.5 -106.5q0 -33 13 -33t42 22t59 61 q3 17 11 52.5t12.5 63t4.5 52.5q0 27 -3 39q34 6 56 6q81 0 81 -87q0 -21 -17 -92.5t-17 -103.5q0 -40 18 -40q27 0 93.5 77.5t109.5 163.5zM434 695q0 -27 -36.5 -76.5t-89 -90.5t-90.5 -41q-28 0 -58 30q22 22 41 44.5t30 38.5t22 36t15 28t11 25l7 17q34 22 79 22 q30 0 49.5 -9.5t19.5 -23.5z"/>
<glyph glyph-name="ucircumflex" horiz-adv-x="533" unicode="û" d="M616 362q10 2 15 2q14 0 23.5 -8.5t9.5 -23.5t-29.5 -61.5t-73 -98.5t-102 -92t-106.5 -40q-83 0 -93 94q-87 -95 -164 -95q-91 0 -91 103q0 23 17.5 113t17.5 138q0 22 -2 46q60 10 86 10q62 0 62 -63q0 -19 -16.5 -98.5t-16.5 -106.5q0 -33 13 -33t42 22t59 61 q3 17 11 52.5t12.5 63t4.5 52.5q0 27 -3 39q34 6 56 6q81 0 81 -87q0 -21 -17 -92.5t-17 -103.5q0 -40 18 -40q27 0 93.5 77.5t109.5 163.5zM113 491q-36 0 -53 51q97 108 142 147t75 39t65.5 -38.5t106.5 -147.5q-29 -51 -66 -51q-27 0 -59 32t-61 87q-40 -54 -80.5 -86.5 t-69.5 -32.5z"/>
<glyph glyph-name="udieresis" horiz-adv-x="533" unicode="ü" d="M616 362q10 2 15 2q14 0 23.5 -8.5t9.5 -23.5t-29.5 -61.5t-73 -98.5t-102 -92t-106.5 -40q-83 0 -93 94q-87 -95 -164 -95q-91 0 -91 103q0 23 17.5 113t17.5 138q0 22 -2 46q60 10 86 10q62 0 62 -63q0 -19 -16.5 -98.5t-16.5 -106.5q0 -33 13 -33t42 22t59 61 q3 17 11 52.5t12.5 63t4.5 52.5q0 27 -3 39q34 6 56 6q81 0 81 -87q0 -21 -17 -92.5t-17 -103.5q0 -40 18 -40q27 0 93.5 77.5t109.5 163.5zM344 508q-33 0 -52 18t-19 47q0 37 28.5 62.5t70.5 25.5q34 0 55 -18.5t21 -47.5q0 -37 -30 -62t-74 -25zM148 508q-33 0 -52 18 t-19 47q0 37 28.5 62.5t70.5 25.5q34 0 55 -18.5t21 -47.5q0 -37 -30 -62t-74 -25z"/>
<glyph glyph-name="yacute" horiz-adv-x="505" unicode="ý" d="M60 -192q20 0 57.5 75.5t69.5 175.5q-136 -126 -136 -234q0 -17 9 -17zM627 378q16 0 26 -9.5t10 -23.5q0 -7 -1 -10q-147 -51 -291 -139q-20 -108 -63 -200.5t-90 -147.5t-90.5 -85.5t-72.5 -30.5q-37 0 -58 27t-21 73q0 171 246 345l6 31q-56 -56 -113 -56 q-43 0 -66.5 36.5t-23.5 98.5q0 21 6.5 57.5t7.5 52.5q2 20 4 58q21 19 67 19q68 0 68 -51q0 -9 -12 -61t-12 -78q0 -38 17 -38q23 0 46.5 60t33.5 147q23 24 73 24q65 0 65 -85q0 -62 -6 -117q82 44 155.5 73.5t88.5 29.5zM413 720q0 -27 -36.5 -76.5t-89 -90.5t-90.5 -41 q-28 0 -58 30q22 22 41 44.5t30 38.5t22 36t15 28t11 25l7 17q34 22 79 22q30 0 49.5 -9.5t19.5 -23.5z"/>
<glyph glyph-name="thorn" horiz-adv-x="482" unicode="þ" d="M192 117q63 5 98.5 41t35.5 95q0 100 -107 105q-24 -218 -27 -241zM475 264q0 -98 -86 -161.5t-207 -64.5q-15 -129 -22 -195q-15 -13 -39.5 -21t-40.5 -8q-22 0 -31.5 11.5t-9.5 36.5q0 7 2 25l77 695q1 11 3.5 33.5t3.5 33.5q34 18 59 18q27 0 44.5 -14.5t17.5 -38.5 v-7q-10 -90 -18 -170h9q63 0 114.5 -16.5t87.5 -57t36 -99.5z"/>
<glyph glyph-name="uni0401" horiz-adv-x="790" unicode="Ё" d="M547 812q144 0 251.5 -53t107.5 -123q0 -2 -0.5 -5t-0.5 -4q-6 -54 -90 -72q-24 42 -34 58.5t-34 45.5t-45.5 40.5t-57 21.5t-80.5 10q-139 0 -218.5 -71.5t-79.5 -169.5q0 -48 21 -94.5t66 -75.5q54 9 115 9q131 0 148 -46v-1q0 -1 0.5 -2.5t1.5 -2.5q1 -3 1 -9 q0 -33 -39.5 -55t-99.5 -22q-82 0 -181 38q-41 -22 -66.5 -61.5t-25.5 -85.5q0 -64 53.5 -107.5t133.5 -43.5q166 0 310 127q42 -14 42 -39q0 -6 -1 -9q-2 -9 -16 -27t-47 -44.5t-76.5 -50t-115 -40t-153.5 -16.5q-130 0 -217.5 62.5t-87.5 153.5q0 62 45.5 123t127.5 102 q-151 90 -151 219q0 87 67.5 161t181 116.5t244.5 42.5zM641 853q-33 0 -52.5 18t-19.5 47q0 37 29 62.5t71 25.5q34 0 54.5 -18.5t20.5 -47.5q0 -37 -29.5 -62t-73.5 -25zM445 853q-33 0 -52.5 18t-19.5 47q0 37 29 62.5t71 25.5q34 0 54.5 -18.5t20.5 -47.5 q0 -37 -29.5 -62t-73.5 -25z"/>
<glyph glyph-name="uni0410" horiz-adv-x="899" unicode="А" d="M753 610q0 4 0.5 11.5t0.5 10.5q0 39 -17 56q-52 -23 -149 -137.5t-190 -263.5q98 -24 191 -24q43 0 87 6q8 32 31.5 124t34 140.5t11.5 76.5zM880 637q0 -40 -33 -260.5t-33 -248.5q0 -115 50 -191q-46 -55 -112 -55q-56 0 -85.5 41t-29.5 117q0 30 4 58q4 31 12 73 q-67 -14 -162 -14q-81 0 -163 11q-98 -180 -129 -308q-10 -47 -10 -112q0 -5 0.5 -13.5t0.5 -12.5q-43 3 -60.5 5t-46 8t-40 15t-21 26t-9.5 41q0 102 161 384q-83 26 -90 60q-2 8 -2 25t5 55t5 57v11q87 -47 165 -77q47 64 107 133t132.5 139.5t148 120t133.5 57.5 q102 -12 102 -145z"/>
<glyph glyph-name="uni0411" horiz-adv-x="866" unicode="Б" d="M427 575q-51 0 -99 5q-52 -123 -80 -257q95 25 194 25q67 0 131.5 -13.5t120.5 -39.5t90.5 -71t34.5 -102q0 -53 -26 -98.5t-66.5 -75.5t-91 -52t-99.5 -31.5t-92 -9.5q-27 0 -45.5 2t-46.5 9t-43.5 26t-15.5 49q0 46 20 78q44 -22 106 -22q90 0 159.5 38.5t69.5 109.5 q0 44 -35 72.5t-81.5 38.5t-102.5 10q-103 0 -199 -40q-15 -96 -15 -191q0 -154 26 -217q-8 -10 -41.5 -16.5t-59.5 -6.5q-107 0 -107 155q0 146 54 339.5t120 342.5q-18 30 -18 66q0 41 31 81q129 -51 184 -63q57 -13 131 -13q83 0 168 18q17 3 47 14q13 4 77 25 q24 -16 24 -51q0 -69 -230 -117q-85 -17 -194 -17z"/>
<glyph glyph-name="uni0412" horiz-adv-x="818" unicode="В" d="M863 578q0 -63 -45 -120t-103.5 -91.5t-119.5 -52.5q82 -21 126.5 -81t44.5 -133q0 -42 -19 -84.5t-55.5 -79.5t-98.5 -60.5t-139 -23.5q-80 0 -132.5 31t-52.5 74q0 30 35 50q60 -37 136 -37q87 0 136 53t49 122q0 50 -27 81.5t-73 32.5q-109 0 -153 -24q-43 15 -43 51 q0 32 24 48t62 16q28 0 58 -8q72 25 136 87t64 140q0 62 -50.5 97.5t-140.5 35.5q-34 0 -85 -7q8 -18 7 -33q-82 -130 -133 -337.5t-51 -379.5q0 -124 28 -184q-9 -10 -45 -16.5t-63 -6.5q-54 0 -84 29.5t-31 82.5v15q0 151 57.5 361.5t123.5 353.5q17 37 38 69 q-78 -33 -128 -77q-23 6 -37 19.5t-14 28.5q0 10 9 23q27 40 156 90.5t280 50.5q98 0 170.5 -19.5t110.5 -51.5t55 -66t17 -69z"/>
<glyph glyph-name="uni0413" horiz-adv-x="427" unicode="Г" d="M795 892q70 -31 70 -80q0 -25 -23.5 -45t-53.5 -29.5t-62 -12.5q-8 -1 -168 -7q-126 -6 -189 -12q-58 -132 -103.5 -321.5t-45.5 -346.5q0 -136 24 -191q-44 -23 -99 -23q-105 0 -105 149q0 88 29.5 223.5t51.5 208.5t60 190q14 45 52 79q-35 -16 -58 -35q-20 5 -34 26.5 t-14 42.5q0 39 45 69.5t120 40.5q90 13 228.5 15.5t187.5 8.5q35 4 53.5 15t33.5 35z"/>
<glyph glyph-name="uni0414" horiz-adv-x="981" unicode="Д" d="M290 -69q18 1 55 1q20 0 44 -0.5t53.5 -1.5t47.5 -1q62 -2 178 -11q-15 48 -15 132q0 163 87 574q-17 0 -45 2q-134 -132 -259.5 -343t-145.5 -352zM936 -65q1 -8 1 -22q0 -42 -20 -71q-14 -23 -53.5 -45t-101.5 -22h-14q-74 3 -173.5 11.5t-129.5 10.5q-78 5 -150 5 q-99 0 -157 -19t-106 -67q-49 23 -49 68q0 37 34 73t90 52q24 7 57 12q-36 29 -36 75q0 90 132 282.5t302 371.5q-83 30 -83 81q0 32 35 78q72 -41 122 -51t152 -10q40 0 63.5 -16t23.5 -43q0 -1 -0.5 -4t-0.5 -5q-6 -46 -20 -99.5t-24 -95t-18.5 -142t-8.5 -246.5 q0 -114 32 -182q55 6 101 20z"/>
<glyph glyph-name="uni0415" horiz-adv-x="790" unicode="Е" d="M547 812q144 0 251.5 -53t107.5 -123q0 -2 -0.5 -5t-0.5 -4q-6 -54 -90 -72q-24 42 -34 58.5t-34 45.5t-45.5 40.5t-57 21.5t-80.5 10q-139 0 -218.5 -71.5t-79.5 -169.5q0 -48 21 -94.5t66 -75.5q54 9 115 9q131 0 148 -46v-1q0 -1 0.5 -2.5t1.5 -2.5q1 -3 1 -9 q0 -33 -39.5 -55t-99.5 -22q-82 0 -181 38q-41 -22 -66.5 -61.5t-25.5 -85.5q0 -64 53.5 -107.5t133.5 -43.5q166 0 310 127q42 -14 42 -39q0 -6 -1 -9q-2 -9 -16 -27t-47 -44.5t-76.5 -50t-115 -40t-153.5 -16.5q-130 0 -217.5 62.5t-87.5 153.5q0 62 45.5 123t127.5 102 q-151 90 -151 219q0 87 67.5 161t181 116.5t244.5 42.5z"/>
<glyph glyph-name="uni0416" horiz-adv-x="1290" unicode="Ж" d="M1304 793h14q65 0 110 -29t45 -73q0 -51 -30 -73.5t-73 -22.5q-33 0 -56 9q-1 43 -17 67.5t-42 24.5h-3q-76 -3 -149.5 -91.5t-100.5 -211.5q-8 -42 -9 -65q68 -22 68 -47q0 -11 -10 -24.5t-26 -21.5q-20 6 -31 8q10 -150 73 -221.5t175 -96.5q-2 -51 -29.5 -82.5 t-68.5 -31.5h-9q-70 6 -126.5 48.5t-90 106.5t-51.5 135t-18 141q0 19 1 30q-23 2 -65 4q-55 -286 -55 -375q0 -27 2 -41h-99q-34 0 -52.5 17t-18.5 46q0 13 4 37.5t12.5 61.5t17.5 71.5t22.5 89t22.5 93.5q-43 -2 -63 -5q-50 -172 -160.5 -294t-222.5 -127h-10 q-63 0 -101 30.5t-38 68.5q0 43 27.5 68t74.5 25h3q5 -9 13.5 -27t12.5 -25t11 -17t15 -13.5t19 -3.5h1q45 1 107 75q68 79 110 214q-10 -2 -89 -22q-23 20 -23 51q2 41 52 74q20 13 88 21q7 50 7 97q0 78 -40 115.5t-131 66.5q4 44 40.5 78.5t82.5 35.5h6q79 0 128.5 -75 t49.5 -195q0 -56 -10 -115h12q33 0 50 -1q45 214 45 336q0 65 -4 87h112q52 0 52 -49q0 -5 -2 -21q-20 -141 -63 -363l22 -3q24 -4 36 -5q4 20 9 36q45 162 162 276.5t272 122.5z"/>
<glyph glyph-name="uni0417" horiz-adv-x="842" unicode="З" d="M652 387q67 -31 101.5 -89.5t34.5 -127.5q0 -52 -19 -105.5t-60 -104t-98 -90.5t-140.5 -64t-179.5 -24q-5 0 -15 0.5t-16 0.5q-61 3 -125.5 21t-115.5 55.5t-51 85.5q0 9 1 14q4 24 33 49.5t66 37.5q21 -38 40 -64t47.5 -53.5t66.5 -41.5t84 -14q76 0 136 27t94 70 t51 91.5t17 97.5q0 55 -23.5 98t-66.5 64q-71 -23 -133 -23q-44 0 -70.5 11.5t-26.5 33.5q0 29 34 47.5t71 24t74 5.5q55 0 81 -10q96 69 96 152q0 87 -118 87q-45 0 -132.5 -17.5t-106.5 -17.5q-50 0 -78 22.5t-28 60.5q0 46 38 96q16 -5 39.5 -14.5t37.5 -13t57.5 -7 t114.5 -3.5q147 0 228.5 -48t81.5 -134q0 -102 -122 -186z"/>
<glyph glyph-name="uni0418" horiz-adv-x="871" unicode="И" d="M926 724l-12 -24q-13 -24 -18.5 -35.5t-20 -41.5t-22.5 -53t-20.5 -59t-20 -70.5t-15 -75.5t-11 -86t-3.5 -92q0 -96 13 -151.5t40 -99.5q-55 -51 -111 -51q-70 0 -91 63q-12 35 -12 108v19q-82 -117 -176 -191.5t-176 -74.5q-95 0 -145.5 70.5t-50.5 200.5q0 56 11 130 q12 74 42.5 211.5t39.5 196.5q4 36 4 44q0 23 -12 65q16 22 48.5 36t70.5 14q37 0 58 -23.5t21 -65.5q0 -47 -50.5 -221t-66.5 -281q-11 -74 -11 -122q0 -125 65 -125q57 0 133.5 76t143.5 192.5t100 231.5q33 156 68 244q14 35 43.5 52.5t64.5 17.5q50 0 79 -29z"/>
<glyph glyph-name="uni0419" horiz-adv-x="871" unicode="Й" d="M926 724l-12 -24q-13 -24 -18.5 -35.5t-20 -41.5t-22.5 -53t-20.5 -59t-20 -70.5t-15 -75.5t-11 -86t-3.5 -92q0 -96 13 -151.5t40 -99.5q-55 -51 -111 -51q-70 0 -91 63q-12 35 -12 108v19q-82 -117 -176 -191.5t-176 -74.5q-95 0 -145.5 70.5t-50.5 200.5q0 56 11 130 q12 74 42.5 211.5t39.5 196.5q4 36 4 44q0 23 -12 65q16 22 48.5 36t70.5 14q37 0 58 -23.5t21 -65.5q0 -47 -50.5 -221t-66.5 -281q-11 -74 -11 -122q0 -125 65 -125q57 0 133.5 76t143.5 192.5t100 231.5q33 156 68 244q14 35 43.5 52.5t64.5 17.5q50 0 79 -29zM567 797 q-66 0 -111.5 44t-45.5 105q0 36 18.5 52t58.5 16q45 0 61 -20q-2 -26 -2 -36q0 -76 38 -76q52 0 65 112q20 20 68 20q62 0 62 -46q0 -66 -65.5 -118.5t-146.5 -52.5z"/>
<glyph glyph-name="uni041A" horiz-adv-x="784" unicode="К" d="M751 584q-22 -19 -110.5 -66.5t-148.5 -85.5l-54 -34q22 -136 116.5 -249t216.5 -147q-51 -106 -138 -109h-1q-27 0 -71.5 31t-92.5 83.5t-90 135t-59 171.5q-80 -70 -100 -162q-6 -54 -6 -105q0 -93 11 -144q-47 -11 -86 -11q-50 0 -69.5 24.5t-19.5 107.5 q0 122 32 269.5t64 273t32 193.5q0 46 -5 66q25 5 42 5q52 0 80 -32t28 -81q0 -25 -8 -69.5t-28 -133.5t-28 -129q64 61 137 107q98 61 189.5 143.5t133.5 148.5q46 -7 75.5 -34t29.5 -61q0 -44 -72 -106z"/>
<glyph glyph-name="uni041B" horiz-adv-x="692" unicode="Л" d="M-79 -203q0 55 49.5 181.5t122.5 269.5q118 230 240 368.5t207 138.5q32 0 42.5 -38t10.5 -147q0 -34 -2 -174.5t-2 -251.5q0 -138 71 -185q-14 -31 -46.5 -57.5t-68.5 -26.5q-123 0 -123 201q0 135 77 443q25 100 25 130q0 12 -5 12q-38 0 -125.5 -148t-170.5 -347.5 t-109 -332.5q-11 -55 -11 -109q0 -16 2 -32q-32 0 -60.5 4.5t-58.5 15t-47.5 32.5t-17.5 53z"/>
<glyph glyph-name="uni041C" horiz-adv-x="1192" unicode="М" d="M1159 519q0 -23 -27.5 -175t-27.5 -278q0 -49 4 -84t8 -48.5t14 -36t13 -31.5q-49 -52 -126 -52q-85 0 -85 139q0 73 43.5 257.5t46.5 212.5l7 60q-9 0 -59.5 -105.5t-115 -238.5t-99.5 -181q-17 -27 -45.5 -46.5t-60.5 -19.5q-53 0 -83 52.5t-30 140.5q0 72 33.5 290 t33.5 255q0 18 -5 18q-38 0 -119 -142.5t-157 -333t-103 -321.5q-10 -48 -10 -106q0 -16 2 -34q-101 12 -131 25q-55 23 -55 77q0 55 49.5 181t123.5 272q23 46 52.5 98.5t79 129.5t97 136t103 102t100.5 43q37 0 49 -40.5t12 -157.5q0 -38 -2.5 -200.5t-2.5 -292.5 q0 -12 2 -30q37 72 100 193q133 260 184.5 336t109.5 76q35 0 56 -39.5t21 -100.5z"/>
<glyph glyph-name="uni041D" horiz-adv-x="815" unicode="Н" d="M865 744q0 -65 -32.5 -187t-65.5 -261t-33 -245q0 -92 18 -139q-55 -16 -109 -16q-3 0 -7.5 0.5t-6.5 0.5q-80 5 -80 100q0 25 6 59.5t11.5 55t19 67t15.5 54.5q2 7 5.5 20t5.5 19q-85 21 -148 25q-22 2 -63 2q-69 0 -126 -9l-38 -147q-49 -193 -49 -291q0 -25 2 -39 q-9 3 -33.5 9t-37.5 10t-32.5 13t-30 20t-18.5 30t-8 43q0 26 7.5 61.5t16.5 64t27 84t28 89.5q-36 -19 -75 -48q-2 0 -4.5 -0.5t-4.5 -0.5q-20 0 -31 13t-11 31q0 27 43.5 58t115.5 59q48 174 48 250q0 79 -40 126q77 83 128 83q77 0 77 -121q0 -28 -5 -71q-7 -58 -46 -216 q100 25 177 25q59 0 107 -8.5t53 -19.5l4 -4q17 62 44 178q20 87 20 108q0 46 -23 112q16 25 45 40t60 15q74 0 74 -102z"/>
<glyph glyph-name="uni041E" d="M397 -156q-163 0 -255.5 105.5t-92.5 287.5q0 64 17 142t46 150t75 120.5t98 48.5q23 0 41.5 -11.5t25.5 -30.5q-63 -56 -102.5 -165.5t-39.5 -238.5q0 -146 50.5 -232.5t138.5 -86.5q136 0 229 141.5t93 356.5q0 121 -36.5 192.5t-101.5 71.5q-63 0 -109.5 -57.5 t-46.5 -138.5q0 -61 30.5 -97.5t82.5 -36.5h4q-11 -54 -45.5 -86.5t-79.5 -32.5q-60 0 -95 47t-35 126q0 60 21.5 122.5t59.5 116t99 88t133 34.5q64 0 115 -24t81 -61.5t50 -88t27.5 -97.5t7.5 -96q0 -134 -42.5 -244.5t-112 -180t-155.5 -107t-176 -37.5z" unicode="О"/>
<glyph glyph-name="uni041F" horiz-adv-x="765" unicode="П" d="M948 771q17 -26 17 -53q0 -40 -32.5 -66.5t-80.5 -26.5q-8 0 -22 2q-17 2 -90 22v-5q-46 -88 -71.5 -216t-25.5 -251q0 -175 46 -247q-37 -22 -90 -29h-9q-56 0 -81.5 58.5t-25.5 154.5q0 131 42.5 291t92.5 249q2 3 6 10.5t6 11.5q-94 18 -180 18q-36 0 -69 -3 q7 -14 7 -35v-8q-77 -118 -135 -303t-58 -351q0 -139 26 -193q-53 -24 -101 -24q-108 0 -108 146q0 134 52 310.5t115 311.5q33 68 74 120q-115 -41 -203 -145q-40 16 -56.5 34t-16.5 45q0 67 108 126q145 80 424 80q76 0 222 -18.5t183 -18.5q20 0 34 3z"/>
<glyph glyph-name="uni0420" horiz-adv-x="946" unicode="Р" d="M590 803q179 0 294.5 -80t115.5 -201q0 -70 -41 -140.5t-112.5 -128t-182 -93.5t-238.5 -36h-11q-19 -85 -19 -175q0 -81 20 -123q-49 -14 -102 -14q-3 0 -8 0.5t-7 0.5q-80 4 -80 94q0 42 58 233q-88 26 -88 67q0 18 9 31.5t18.5 20t29.5 17t29 16.5q12 -28 35 -46 q48 161 48 218t-26 91q42 42 90 42q36 0 60.5 -25.5t24.5 -67.5q0 -36 -3.5 -68t-12 -65.5t-14 -51.5t-19.5 -58t-18 -52q94 2 178 36.5t141 105.5t57 164q0 89 -74.5 142t-203.5 53q-68 0 -134.5 -19.5t-113.5 -59.5t-47 -90q0 -17 8 -31t14.5 -19.5t21.5 -16.5 q-11 -25 -41.5 -41t-65.5 -16q-43 0 -71 28.5t-28 72.5q0 42 34 90t95 92.5t161.5 73.5t218.5 29z"/>
<glyph glyph-name="uni0421" horiz-adv-x="925" unicode="С" d="M480 -160q-182 0 -298 105.5t-116 267.5q0 96 44 193t120.5 177t193.5 130.5t251 50.5q125 0 206 -60.5t81 -151.5q0 -56 -25.5 -90t-67.5 -34q-25 0 -49 9t-36.5 19t-12.5 16q0 3 12.5 22t25 46.5t12.5 49.5q0 81 -128 81q-94 0 -177.5 -41t-139 -106t-88 -145.5 t-32.5 -160.5q0 -119 65 -198.5t183 -79.5q67 0 126.5 20t98 49.5t60 52t31.5 38.5h8q26 0 42 -12.5t16 -33.5q0 -42 -61.5 -92.5t-158.5 -86t-186 -35.5z"/>
<glyph glyph-name="uni0422" horiz-adv-x="699" unicode="Т" d="M1025 882q34 -11 54 -30t20 -40q0 -20 -14 -34.5t-38.5 -23t-53.5 -14t-64.5 -7.5t-66.5 -3t-63 -1h-23q-33 0 -91 -2q-38 -102 -79.5 -252t-62.5 -286q-18 -113 -18 -194q0 -83 19 -132q-2 -7 -36.5 -15t-64.5 -8q-48 0 -75 27.5t-27 75.5q0 49 11 121q25 162 81 357 t114 299q-261 -23 -261 -108q0 -31 42 -56q-18 -22 -51.5 -36t-65.5 -14q-48 0 -76.5 26t-28.5 68q0 84 105.5 143t288.5 79q93 10 237 11.5t197 7.5q63 6 91 41z"/>
<glyph glyph-name="uni0423" horiz-adv-x="760" unicode="У" d="M595 591q22 172 157 172q20 0 52 -5q-26 -46 -39 -116t-40 -289q-29 -235 -152.5 -374t-316.5 -154q-8 -1 -30 -1q-80 0 -135 27t-55 67q0 58 94 107q28 -54 69 -79t71 -25q68 0 120 27.5t85 79.5t53 113t32 140q-111 -154 -240 -154q-61 0 -105.5 26t-68.5 71t-35 95.5 t-11 108.5q0 90 22.5 167.5t58.5 109.5q55 48 153 48q10 0 36 -2l-6 -9q-6 -9 -16 -25.5t-22 -39.5t-24 -54.5t-22 -67t-16 -81t-6 -92.5q0 -74 21 -113t61 -39q74 0 145.5 101.5t108.5 258.5z"/>
<glyph glyph-name="uni0424" horiz-adv-x="1366" unicode="Ф" d="M1061 613q122 0 196.5 -80t74.5 -206q0 -26 -5 -63q-12 -81 -52 -149t-94 -111t-115.5 -67t-119.5 -24q-71 0 -116.5 27.5t-45.5 69.5q0 31 27 54t72 31q18 -33 27.5 -48t24.5 -26.5t35 -11.5q66 0 126 95.5t60 206.5q0 53 -14 99.5t-49 80t-86 33.5q-89 0 -157 -95 t-89 -251q-13 -198 -20 -260q-15 -122 -47.5 -180t-90.5 -63h-10q-32 0 -60.5 13.5t-36.5 27.5q70 109 102 295q-89 -98 -243 -98q-111 0 -191.5 81t-80.5 225q0 78 25.5 144.5t66 111.5t90.5 77t99 46.5t93 14.5q70 0 117.5 -28t47.5 -69q0 -14 -5 -25.5t-18 -21.5 t-20.5 -15t-26.5 -14.5l-23 -11.5q-14 15 -30.5 35.5t-24.5 29.5t-21.5 16.5t-29.5 7.5q-64 0 -115.5 -95t-51.5 -218q0 -91 36 -153.5t91 -62.5q53 0 97 30t73.5 80t48.5 105t28 114q15 236 28 306q28 162 108 189q12 4 26 5q2 0 6 0.5t6 0.5q61 0 92 -41 q-63 -100 -97 -266q93 102 262 102z"/>
<glyph glyph-name="uni0425" horiz-adv-x="804" unicode="Х" d="M791 756q51 0 80 -26t29 -70q0 -28 -11 -57q-54 17 -83 17q-54 0 -113 -60.5t-208 -249.5q-15 -19 -23 -29q-2 -2 -8 -10q57 -117 137.5 -183.5t159.5 -84.5v-12q0 -65 -27.5 -106t-72.5 -41q-84 0 -199 174q-41 62 -86 141q-60 -77 -149 -183l-20 -24l-20 -24t-18.5 -21 t-20 -20.5t-19.5 -17t-21.5 -16t-22 -11.5t-25 -9.5t-26.5 -5t-31 -2.5q-38 0 -63.5 24.5t-25.5 56.5q0 26 17 46q23 -3 39 -3q47 0 104 50q67 57 237 292q-89 201 -89 312q0 59 40.5 99.5t97.5 40.5q8 0 22 -2q-1 -16 -1 -47q0 -140 30 -268q129 171 223 250.5t167 79.5z "/>
<glyph glyph-name="uni0426" horiz-adv-x="854" unicode="Ц" d="M786 64q92 -25 92 -90q0 -83 -86 -175t-192 -92q-99 0 -99 87q0 31 16 76q36 -2 51 -2q165 0 188 95q-26 -2 -37 -2q-132 0 -159 121q-73 -86 -153.5 -138t-151.5 -52q-94 0 -145.5 66t-51.5 185q0 43 10 108q11 66 39.5 189.5t36.5 175.5q4 32 4 39q0 21 -12 57 q14 20 46.5 32.5t69.5 12.5q38 0 59 -21.5t21 -59.5q0 -44 -48 -198t-63 -248q-9 -60 -9 -103q0 -117 65 -117q63 0 146 80.5t149 197.5q33 141 138 385q14 31 44 47.5t65 16.5q53 0 84 -29q-48 -90 -101 -236q-39 -108 -51.5 -145t-25.5 -92.5t-13 -100.5q0 -33 14.5 -45.5 t59.5 -24.5z"/>
<glyph glyph-name="uni0427" horiz-adv-x="747" unicode="Ч" d="M615 154q-14 -73 -14 -111q0 -39 12.5 -59.5t39.5 -31.5q-9 -62 -41.5 -102.5t-78.5 -40.5q-95 0 -95 156q0 67 16 150q11 56 20 89q-87 -74 -201 -74q-50 0 -87.5 17t-58 46.5t-30 63.5t-9.5 72q0 54 30.5 163t30.5 123q0 13 -2 24.5t-6.5 23.5t-7.5 19t-11 22t-11 21 q75 65 145 65q38 0 58 -21.5t20 -58.5q0 -30 -38.5 -155.5t-47.5 -182.5q-2 -10 -2 -29q0 -50 27 -79t67 -29q56 0 113 57t102 165l1 4q10 28 24.5 74t22 67.5t20 53.5t22 46.5t24 31t31 22.5t36.5 6q49 0 74 -24q-151 -354 -195 -584z"/>
<glyph glyph-name="uni0428" horiz-adv-x="1247" unicode="Ш" d="M1175 400q-31 -210 -31 -313q0 -136 45 -200q-59 -66 -136 -66q-80 0 -80 193q0 26 1 40q-66 -104 -140.5 -168.5t-141.5 -64.5q-75 0 -114 62t-40 180q-67 -108 -144.5 -175t-147.5 -67q-165 0 -165 233q0 65 14 157q11 74 38.5 208.5t35.5 188.5q4 25 4 47q0 14 -7 58 q10 19 44 34t66 15q37 0 57 -23t20 -64q0 -44 -44 -213.5t-60 -273.5q-11 -79 -11 -123q0 -99 49 -99q44 0 105 70t116 179.5t83 219.5q28 147 32 173q4 27 4 49q0 23 -7 56q7 16 40 32.5t68 16.5q33 0 53 -24.5t20 -63.5q0 -46 -51.5 -222.5t-66.5 -278.5q-8 -49 -8 -96 q0 -111 60 -111t149 138t138 300q32 154 67 260q25 75 102 75q24 0 50.5 -9t32.5 -19q-83 -201 -99 -311z"/>
<glyph glyph-name="uni0429" horiz-adv-x="1205" unicode="Щ" d="M1139 46q92 -26 92 -90q0 -83 -86 -175t-192 -92q-99 0 -99 86q0 32 16 77q36 -2 51 -2q164 0 188 95q-24 -2 -33 -2q-129 0 -158 127q-61 -77 -129.5 -127.5t-132.5 -50.5q-66 0 -108.5 40t-57.5 115q-142 -168 -259 -168q-84 0 -129 63.5t-45 179.5q0 56 10 116 q11 68 37.5 191.5t34.5 172.5q4 23 4 42q0 20 -10 54q14 20 43.5 33t63.5 13t52.5 -21t18.5 -59q0 -43 -45.5 -198t-59.5 -250q-9 -63 -9 -108q0 -111 56 -111q47 0 112 63.5t123 161.5q2 20 4 29q11 63 38 187t35 178q3 24 3 39q0 25 -9 57q13 20 42 32.5t64 12.5 q34 0 52.5 -21t18.5 -59q0 -14 -2.5 -31t-9 -43.5t-10.5 -41t-15.5 -53.5t-15.5 -52q-3 -64 -39 -156q-6 -26 -13 -70q-9 -63 -9 -108q0 -112 55 -112q41 0 90.5 42.5t83.5 89t64 97.5q6 39 34 172q41 193 85 266q40 64 114 64q37 0 70 -18q-40 -85 -87 -245q-5 -19 -17 -59 t-17 -58t-13.5 -51t-12 -56t-6.5 -54t-3 -62q0 -41 17 -61t60 -31z"/>
<glyph glyph-name="uni042A" horiz-adv-x="996" unicode="Ъ" d="M689 385q116 -11 185 -75t69 -159q0 -47 -24 -97t-69.5 -94t-122 -72.5t-169.5 -28.5q-28 0 -59 3q-66 6 -102.5 27.5t-36.5 55.5q0 9 3 18q4 14 30.5 41.5t59.5 51.5q60 -58 121 -64q9 -1 26 -1q80 0 132.5 43t52.5 112q0 61 -41.5 96t-121.5 43q-17 2 -51 2 q-107 0 -243 -42l-3 -25q-10 -94 -10 -171q0 -129 35 -184q-38 -24 -104 -24q-67 0 -92.5 46t-25.5 124q0 224 130 637q-53 -12 -99 -12q-62 0 -97.5 22.5t-35.5 59.5q0 46 54 94q55 -39 150 -39q17 0 137 14q4 1 13 1q39 0 54 -20q10 -11 10 -29q0 -6 -4 -26 q-14 -53 -34 -113t-35.5 -119t-29.5 -149q145 56 284 56q33 0 64 -3z"/>
<glyph glyph-name="uni042B" horiz-adv-x="1169" unicode="Ы" d="M1076 793q26 3 45 3q88 0 88 -56q0 -8 -4 -26q-6 -22 -30.5 -93.5t-43 -134.5t-35 -174.5t-16.5 -230.5q0 -160 35 -215q-36 -24 -103 -24q-68 0 -93.5 46t-25.5 124q0 150 58.5 382.5t124.5 398.5zM622 386q116 -11 185 -75t69 -159q0 -48 -24.5 -97.5t-70.5 -93.5 t-123 -72t-171 -28q-37 0 -56 2q-65 5 -102 27t-37 56q0 9 3 18q4 13 31 41t59 52q58 -57 122 -64q10 -1 28 -1q79 0 131 43t52 112q0 60 -42 95.5t-122 43.5q-17 2 -51 2q-111 0 -247 -43q-8 -80 -8 -164q0 -160 35 -215q-37 -24 -103 -24q-119 0 -119 168q0 154 58.5 382 t124.5 401q25 3 46 3q88 0 88 -57q0 -7 -4 -25q-5 -20 -28 -82.5t-44.5 -139t-34.5 -162.5q148 59 292 59q31 0 63 -3z"/>
<glyph glyph-name="uni042C" d="M540 391q125 0 216 -62t91 -168q0 -127 -118 -213t-289 -86q-74 0 -116.5 22t-42.5 61q0 15 22.5 46t51.5 57q74 -51 139 -51q81 0 136.5 46.5t55.5 116.5q0 65 -57 96.5t-140 31.5q-116 0 -256 -52q-11 -93 -11 -197q0 -160 34 -213q-45 -25 -103 -25q-119 0 -119 169 q0 152 59 384t126 399q23 3 42 3q90 0 90 -57q0 -8 -4 -26q-1 -4 -40.5 -121.5t-58.5 -217.5q146 57 292 57z" unicode="Ь"/>
<glyph glyph-name="uni042D" horiz-adv-x="908" unicode="Э" d="M485 759q91 0 167 -35t124.5 -93t75 -131.5t26.5 -153.5q0 -48 -15 -107.5t-54 -130t-97.5 -127t-156 -95t-218.5 -38.5q-140 0 -232 58t-92 125q0 9 1 14q6 33 39.5 51.5t71.5 18.5q11 0 29 -4q22 -77 56 -115q53 -60 142 -60q71 0 129.5 26.5t96.5 73t62.5 98.5 t38.5 113q-206 -34 -271 -34q-123 0 -123 73q0 39 64 81q63 -27 175 -27q78 0 169 8q1 11 1 31q0 128 -59.5 207.5t-160.5 79.5q-144 0 -254 -168q-18 -2 -28 -2q-94 0 -94 65q0 27 25.5 60t71.5 64.5t123 52.5t167 21z"/>
<glyph glyph-name="uni042E" horiz-adv-x="1157" unicode="Ю" d="M671 -83q88 0 158 65.5t105.5 161.5t35.5 198q0 116 -48 189t-128 73q-86 0 -161.5 -72t-117.5 -192q29 -8 29 -19q0 -16 -49 -50q-5 -20 -10 -55q-5 -33 -5 -60q0 -104 53 -171.5t138 -67.5zM809 719q145 0 231.5 -102t86.5 -269q0 -22 -4.5 -56.5t-18 -87t-34.5 -104 t-58.5 -104.5t-85 -93.5t-118.5 -66t-155 -25.5q-152 0 -242.5 96t-90.5 250q0 36 6 75q0 1 0.5 3t0.5 3q-11 1 -36 1q-43 0 -79 -4q-31 -124 -31 -224q0 -121 31 -192q-6 -8 -36 -15t-56 -7q-49 0 -76.5 28.5t-28.5 78.5v12q0 115 47 300q-32 17 -32 46t59 52 q30 102 62 200q-9 -1 -28 -1q-71 0 -118.5 27.5t-47.5 71.5q0 52 75 103q52 -78 108 -78q28 0 55 7t58.5 19t45.5 16q3 -6 12 -21t13.5 -25t4.5 -20q0 -9 -2 -14q-10 -31 -39.5 -118t-44.5 -136q65 7 111 7q57 175 186.5 271t268.5 96z"/>
<glyph glyph-name="uni042F" horiz-adv-x="815" unicode="Я" d="M628 756q104 0 197.5 -42.5t93.5 -90.5q0 -24 -33.5 -46t-81.5 -30q-51 133 -188 133q-117 0 -190.5 -74.5t-73.5 -167.5q0 -68 43 -108.5t117 -40.5q50 0 88 13q4 15 14 52t14.5 56t10.5 49.5t8 58.5l3 46q24 10 51 10q38 0 63.5 -20.5t25.5 -52.5q0 -14 -17 -78 t-34.5 -149.5t-17.5 -153.5q0 -163 44 -234q-31 -26 -90 -26q-108 0 -108 175q0 96 15 179q-56 -16 -112 -16q-18 0 -27 1q-15 -21 -60.5 -87.5t-77 -107.5t-77 -92t-90.5 -77t-88 -26q-51 0 -77 25.5t-26 67.5q0 35 16 71q26 -14 49 -14q27 0 55 14.5t60.5 46.5t58.5 62.5 t67 80.5q16 20 25 31q12 16 31 35q-67 30 -102 82.5t-35 113.5t30 119.5t85.5 106t144.5 76.5t196 29z"/>
<glyph glyph-name="uni0430" horiz-adv-x="513" unicode="а" d="M148 142q26 0 74 72.5t70 143.5q-6 23 -19 23q-31 0 -87 -76.5t-56 -129.5q0 -33 18 -33zM583 332q2 0 4 0.5t3 0.5q15 0 23 -8.5t8 -16.5q0 -11 -25 -46.5t-62 -76t-86.5 -71.5t-91.5 -31q-53 0 -68 51q-32 -46 -81 -75t-98 -30h-2q-50 0 -85.5 34t-35.5 98 q0 108 90 200t196 92q64 0 104.5 -35t44.5 -72q-31 -91 -31 -130q0 -21 6 -33t14 -12q22 0 74.5 51t98.5 110z"/>
<glyph glyph-name="uni0431" horiz-adv-x="528" unicode="б" d="M179 91q23 0 45 55t22 123q0 39 -6.5 68t-15.5 29q-20 0 -45 -59.5t-25 -123.5q0 -38 7.5 -65t17.5 -27zM590 335q44 -8 44 -36q0 -39 -68 -96.5t-143 -57.5q-31 0 -55 10q-32 -65 -85.5 -106t-123.5 -41q-74 0 -118.5 47t-44.5 123q0 89 48.5 159t125.5 99 q-6 4 -22.5 16.5t-23.5 18t-19.5 17.5t-18 21t-10.5 21.5t-5 25.5q0 44 35 81.5t86.5 59.5t102.5 34t89 12q25 0 40.5 -11.5t15.5 -30.5q0 -36 -48 -68q-14 2 -25 2q-56 0 -113 -20t-57 -47q0 -18 37.5 -48t83 -66t59.5 -62q3 -5 9 -17q15 -35 15 -83q0 -28 -6 -58 q19 -11 40 -11q77 0 155 112z"/>
<glyph glyph-name="uni0432" horiz-adv-x="542" unicode="в" d="M325 265q0 -29 24 -53q8 29 8 51q0 35 -12 35q-9 0 -14.5 -10.5t-5.5 -22.5zM282 590q-18 0 -48 -73t-47 -162q48 67 75.5 129.5t27.5 89.5q0 16 -8 16zM688 330q0 -44 -89 -117.5t-175 -84.5q-36 -77 -97.5 -130.5t-131.5 -53.5q-77 0 -127.5 65.5t-50.5 181.5 q0 47 9.5 109t32.5 133.5t55 130.5t83 98.5t112 39.5q77 0 77 -82q0 -75 -63 -187t-148 -199q0 -75 14.5 -128.5t35.5 -53.5q20 0 45.5 25t48.5 63q-77 30 -77 102q0 44 36 80.5t96 36.5q39 0 60.5 -28.5t21.5 -77.5q0 -25 -6 -52q95 28 204 162q34 -9 34 -33z"/>
<glyph glyph-name="uni0433" horiz-adv-x="450" unicode="г" d="M160 -17q-55 0 -83.5 30t-28.5 72q0 37 24.5 76.5t53.5 66t53.5 54t24.5 43.5q0 7 -8 7q-14 0 -35.5 -19t-46 -38t-46.5 -19q-18 0 -28.5 10.5t-11.5 25.5q62 80 112 115t108 35q51 0 81 -25t30 -69q0 -38 -23.5 -76t-51 -63t-51 -55t-23.5 -54q0 -22 26 -22 q37 0 88 38.5t94.5 90.5t73.5 93t39 58q46 -14 46 -35q0 -18 -38.5 -72t-96 -114.5t-136 -107t-146.5 -46.5z"/>
<glyph glyph-name="uni0434" horiz-adv-x="512" unicode="д" d="M99 -211q33 0 68.5 89.5t57.5 201.5q-139 -141 -139 -266q0 -25 13 -25zM616 337q16 0 27 -8t11 -23q0 -7 -3 -16q-130 -7 -271 -90q-8 -78 -29.5 -157t-56.5 -150.5t-88.5 -116t-115.5 -44.5q-47 0 -72.5 25.5t-25.5 72.5q0 86 69.5 181t179.5 175q0 2 0.5 7t0.5 8 q-58 -55 -121 -55q-45 0 -69 27t-24 77q0 97 90.5 177.5t190.5 80.5q32 0 54.5 -12t22.5 -33q0 -37 -87 -59q-7 24 -22 24q-34 0 -75 -60.5t-41 -109.5q0 -28 16 -28q20 0 44 33.5t24 68.5q0 9 -1 13q52 32 84 32q29 0 41.5 -24t13.5 -81q133 65 233 65z"/>
<glyph glyph-name="uni0435" horiz-adv-x="498" unicode="е" d="M237 393q-18 0 -37.5 -41.5t-19.5 -94.5q0 -13 1 -19q69 64 69 126q0 29 -13 29zM557 345q18 5 30 5q34 0 34 -31q0 -19 -34.5 -68t-86.5 -103t-125.5 -95.5t-139.5 -41.5q-97 0 -156.5 58.5t-59.5 150.5q0 106 67 184.5t156 78.5q52 0 80.5 -29t28.5 -82 q0 -118 -150 -214q25 -50 74 -50q58 0 135.5 65.5t146.5 171.5z"/>
<glyph glyph-name="uni0436" horiz-adv-x="996" unicode="ж" d="M1098 362q39 -9 39 -33q0 -7 -5 -19q-8 -21 -50 -67t-101 -97t-134.5 -89.5t-137.5 -38.5q-73 0 -117.5 43t-49.5 115q-20 -22 -52 -54q-8 -62 -8 -116q0 -44 7 -62q-45 -33 -77 -33q-56 0 -56 74q0 11 4.5 43t13 83.5t12.5 83.5q-10 -11 -60 -52q-26 -64 -83 -102 t-130 -38q-54 0 -88 17t-34 45q0 23 33 57q40 -33 67 -33q45 0 79 38.5t34 100.5q0 40 -15.5 71t-44.5 45q-18 -30 -53 -55h-7q-27 0 -43.5 15.5t-16.5 39.5q0 39 40 67.5t94 28.5q83 0 134.5 -56t51.5 -144v-1q19 18 55 54l19 163q2 22 2 34q0 32 -6 55q16 17 42 28.5 t47 11.5q26 0 37.5 -15t11.5 -48q0 -24 -7 -68t-19.5 -111t-19.5 -112q14 11 50 47q26 77 91 126.5t141 49.5q59 0 84 -28.5t25 -57.5q0 -44 -74 -60q-32 21 -46 45q-95 -36 -95 -157q0 -93 72 -93q58 0 164.5 80t179.5 179z"/>
<glyph glyph-name="uni0437" horiz-adv-x="551" unicode="з" d="M90 -177q22 0 83.5 74.5t78.5 151.5q-76 -61 -123.5 -119.5t-47.5 -92.5q0 -14 9 -14zM637 323q47 0 47 -35q0 -2 -0.5 -5t-0.5 -5q-113 -24 -288 -130q8 -26 8 -54q0 -14 -1 -21q-9 -76 -58 -152.5t-120 -126t-140 -49.5q-42 0 -69.5 20.5t-27.5 56.5q0 55 72 144 t189 174q-22 47 -121 65q-7 17 -7 25q0 17 28 35q110 68 116 116q-11 0 -47.5 -3t-57.5 -3q-93 0 -93 49q0 27 54 98q13 -26 61 -45t96 -19q55 0 87 -19t32 -52q0 -29 -31.5 -64.5t-80.5 -64.5q41 -12 73 -47q80 45 159.5 78.5t120.5 33.5z"/>
<glyph glyph-name="uni0438" horiz-adv-x="533" unicode="и" d="M616 362q10 2 15 2q14 0 23.5 -8.5t9.5 -23.5t-29.5 -61.5t-73 -98.5t-102 -92t-106.5 -40q-83 0 -93 94q-87 -95 -164 -95q-91 0 -91 103q0 23 17.5 113t17.5 138q0 22 -2 46q60 10 86 10q62 0 62 -63q0 -19 -16.5 -98.5t-16.5 -106.5q0 -33 13 -33t42 22t59 61 q3 17 11 52.5t12.5 63t4.5 52.5q0 27 -3 39q34 6 56 6q81 0 81 -87q0 -21 -17 -92.5t-17 -103.5q0 -40 18 -40q27 0 93.5 77.5t109.5 163.5z"/>
<glyph glyph-name="uni0439" horiz-adv-x="566" unicode="й" d="M616 362q10 2 15 2q14 0 23.5 -8.5t9.5 -23.5t-29.5 -61.5t-73 -98.5t-102 -92t-106.5 -40q-83 0 -93 94q-87 -95 -164 -95q-91 0 -91 103q0 23 17.5 113t17.5 138q0 22 -2 46q60 10 86 10q62 0 62 -63q0 -19 -16.5 -98.5t-16.5 -106.5q0 -33 13 -33t42 22t59 61 q3 17 11 52.5t12.5 63t4.5 52.5q0 27 -3 39q34 6 56 6q81 0 81 -87q0 -21 -17 -92.5t-17 -103.5q0 -40 18 -40q27 0 93.5 77.5t109.5 163.5zM233 468q-29 0 -58.5 7t-56.5 29.5t-27 57.5q0 2 0.5 6t0.5 6q2 17 16.5 27.5t34.5 10.5q18 0 39 -9q14 -7 21.5 -17.5t9.5 -18.5 t8.5 -13.5t19.5 -5.5q19 0 31 9t17.5 20.5t22 20.5t43.5 9q21 0 36.5 -11t15.5 -25q0 -28 -19.5 -49t-48.5 -32t-56 -16.5t-50 -5.5z"/>
<glyph glyph-name="uni043A" horiz-adv-x="621" unicode="к" d="M290 392q-15 0 -59 -57.5t-75 -115.5q59 37 104 82.5t45 76.5q0 14 -15 14zM698 333q29 -16 29 -34q0 -35 -53 -100t-132.5 -120t-141.5 -55q-59 0 -110.5 39t-86.5 96q-33 -20 -64 -36q0 -5 -1.5 -16t-2.5 -17q-6 -50 -28 -77.5t-56 -27.5q-20 0 -38.5 8t-25.5 16 q18 46 26.5 70t22.5 112t14 195q0 68 -8 109q59 33 91 33q27 0 36.5 -16.5t9.5 -54.5q0 -42 -8 -109q87 142 179 142q38 0 59 -20t21 -56q0 -85 -124 -184q26 -42 61.5 -69.5t64.5 -27.5q68 0 141.5 62.5t124.5 137.5z"/>
<glyph glyph-name="uni043B" horiz-adv-x="544" unicode="л" d="M1 11q-58 0 -58 47q0 12 3 26q7 34 68 155q18 37 61.5 104.5t65.5 111.5q53 12 74 12q31 0 47 -17.5t29 -60.5q35 -120 53.5 -177.5t26.5 -73t16 -15.5q27 0 94 63t106 139q5 1 14 1q30 0 30 -28q0 -45 -54.5 -114.5t-126.5 -121t-118 -51.5q-45 0 -73.5 42t-48.5 135 q-5 22 -8.5 43.5t-5.5 34.5t-4 23t-3.5 14.5t-3.5 4.5q-8 0 -40.5 -81.5t-41.5 -127.5q-8 -40 -8 -64v-7q-10 -5 -42.5 -11t-51.5 -6z"/>
<glyph glyph-name="uni043C" horiz-adv-x="802" unicode="м" d="M892 338q37 0 37 -22q0 -11 -18.5 -43.5t-53 -75.5t-77.5 -82.5t-99.5 -67t-111.5 -27.5q-70 0 -97 41.5t-27 112.5q0 14 2 44q-73 -118 -150 -118q-78 0 -91 100q-2 -11 -4.5 -32.5t-3.5 -31.5q-3 -27 -6 -43t-11 -37.5t-19 -32.5t-31 -19.5t-48 -8.5q-47 0 -75 15 q25 51 52.5 141.5t42.5 176.5q9 49 9 102v10q29 19 69 19q60 0 84 -57q7 -17 10 -71t10 -94t26 -40q22 0 53.5 37.5t72.5 100t60 85.5q32 40 81 40q21 0 37.5 -7.5t19.5 -16.5q-41 -117 -41 -208q0 -110 42 -110q44 0 115.5 60.5t140.5 159.5z"/>
<glyph glyph-name="uni043D" horiz-adv-x="551" unicode="н" d="M638 358h4q18 0 28.5 -10t10.5 -26q0 -8 -26.5 -54t-67 -102t-99 -100.5t-111.5 -44.5q-107 0 -107 126q0 18 4 52q-77 -2 -111 -5q-6 -58 -6 -89q0 -50 7 -69q-45 -15 -87 -15q-40 0 -57.5 23t-17.5 73q0 30 19 128.5t19 148.5q0 23 -2 45q78 10 87 10q37 0 53.5 -15.5 t16.5 -50.5q0 -19 -19 -112q70 4 113 4q17 77 17 123q0 26 -2 40q36 6 59 6q47 0 68.5 -22t21.5 -70q0 -22 -17.5 -96.5t-17.5 -108.5q0 -43 18 -43q11 0 44 32t78.5 94t79.5 128z"/>
<glyph glyph-name="uni043E" horiz-adv-x="548" unicode="о" d="M186 94q29 0 55.5 60t26.5 132q0 47 -14.5 74t-39.5 27q-16 0 -40 -29q32 -17 32 -62q0 -22 -12 -56q-17 0 -32.5 -26t-15.5 -56q0 -26 12 -45t28 -19zM632 332q28 -2 28 -27q0 -40 -74.5 -96.5t-146.5 -56.5q-31 0 -60 13q-32 -59 -85 -96t-121 -38h-4q-82 0 -124 53 t-42 121q0 66 34 111.5t87 50.5q13 51 54 80t99 29q65 0 103 -44.5t38 -119.5q0 -36 -9 -72q23 -15 46 -15q40 0 87.5 28t89.5 79z"/>
<glyph glyph-name="uni043F" horiz-adv-x="676" unicode="п" d="M743 322q9 3 19 3q16 0 27 -8.5t11 -23.5q0 -21 -38 -69.5t-93.5 -100.5t-130 -91.5t-136.5 -39.5q-105 0 -105 120q0 44 23.5 124.5t23.5 109.5q0 20 -10 23q-32 -15 -78.5 -92.5t-97.5 -209.5q-24 -13 -53 -13q-84 0 -84 97q0 52 18 132.5t18 121.5q0 29 -3 45 q42 37 93 37q30 0 46.5 -17t16.5 -47q0 -9 -3 -27t-8 -47t-8 -49q107 147 201 147q91 0 91 -109q0 -28 -11.5 -89t-11.5 -91q0 -70 32 -70q35 0 113.5 69t137.5 165z"/>
<glyph glyph-name="uni0440" horiz-adv-x="480" unicode="р" d="M239 153q18 0 53 85q-29 -17 -44.5 -39t-15.5 -36q0 -10 7 -10zM541 347q77 0 77 -28q0 -21 -28 -36q-24 4 -59 4q-57 0 -120 -11q-36 -65 -88 -111.5t-95 -46.5q-44 0 -44 42q0 92 132 146q12 41 12 56q0 20 -16 20q-32 0 -65 -39.5t-59.5 -108t-43 -170.5t-16.5 -216 l1 -81q-49 -11 -81 -11q-41 0 -59.5 20t-18.5 67q0 35 11 98q5 31 21 118t24 133.5t15.5 108.5t7.5 100q0 52 -6 94q45 39 88 39q57 0 57 -72q0 -24 -9 -56q107 75 181 75q39 0 64 -21t25 -63q0 -25 -10 -58q56 8 102 8z"/>
<glyph glyph-name="uni0441" horiz-adv-x="490" unicode="с" d="M185 18q-80 0 -127.5 48t-47.5 127q0 99 70.5 180t183.5 81q53 0 96 -27.5t43 -60.5q0 -19 -18 -33.5t-65 -32.5q-29 67 -58 67q-36 0 -64.5 -48t-28.5 -112q0 -46 17 -74.5t46 -28.5q66 0 171 82t159 162q47 0 47 -33q0 -19 -41.5 -67t-102 -99.5t-139 -91t-141.5 -39.5 z"/>
<glyph glyph-name="uni0442" horiz-adv-x="871" unicode="т" d="M978 330h9q41 0 41 -26q0 -16 -34.5 -59t-87.5 -90.5t-129.5 -84t-147.5 -36.5q-54 0 -82 28.5t-28 82.5q0 35 15 95.5t17 79.5q-12 -17 -61 -111q-40 -79 -71 -112.5t-64 -33.5q-51 0 -72 44q33 113 41 176q2 13 2 26t0.5 20.5t1.5 10.5q-7 -8 -37 -60t-61.5 -102 t-76.5 -92t-84 -42q-56 0 -81 37q5 25 16 72.5t17 76t11.5 66.5t5.5 69q0 36 -7 67q32 32 81 32q52 0 52 -93q0 -19 -2.5 -40t-7.5 -45.5t-8.5 -37.5t-10.5 -39.5t-8 -29.5q10 17 30.5 53t29 51.5t26.5 44t28.5 41t27.5 31t31.5 26.5t32.5 14t38 6q57 0 57 -104 q0 -37 -7 -75q45 80 90 125t100 45q38 0 60 -22t22 -60q0 -24 -14.5 -91.5t-14.5 -95.5q0 -54 30 -54q49 0 133 63.5t151 152.5z"/>
<glyph glyph-name="uni0443" horiz-adv-x="505" unicode="у" d="M60 -192q20 0 57.5 75.5t69.5 175.5q-136 -126 -136 -234q0 -17 9 -17zM627 378q16 0 26 -9.5t10 -23.5q0 -7 -1 -10q-147 -51 -291 -139q-20 -108 -63 -200.5t-90 -147.5t-90.5 -85.5t-72.5 -30.5q-37 0 -58 27t-21 73q0 171 246 345l6 31q-56 -56 -113 -56 q-43 0 -66.5 36.5t-23.5 98.5q0 21 6.5 57.5t7.5 52.5q2 20 4 58q21 19 67 19q68 0 68 -51q0 -9 -12 -61t-12 -78q0 -38 17 -38q23 0 46.5 60t33.5 147q23 24 73 24q65 0 65 -85q0 -62 -6 -117q82 44 155.5 73.5t88.5 29.5z"/>
<glyph glyph-name="uni0444" horiz-adv-x="935" unicode="ф" d="M612 119q15 0 27 30.5t16 70.5q-56 -38 -56 -83q0 -18 13 -18zM977 359q29 0 47 -9t18 -24q0 -12 -20 -33q-26 3 -55 3q-90 0 -187 -25q-5 -79 -59 -139.5t-117 -60.5q-35 0 -55 19t-20 52q0 98 125 156q-9 59 -35 59q-45 0 -95.5 -68t-87 -191t-36.5 -259q0 -37 5 -54 q-15 -13 -39.5 -23t-43.5 -10q-61 0 -61 74q0 19 6.5 63.5t20.5 129t22 135.5q-68 -97 -152 -97q-63 0 -101 45.5t-38 118.5q0 93 60.5 158t128.5 65q43 0 72 -19t29 -46q0 -22 -18.5 -37.5t-38.5 -19.5q-17 47 -38 47q-26 0 -46 -44.5t-20 -98.5q0 -36 11.5 -57.5 t31.5 -21.5q27 0 64 30.5t71 93.5q19 142 19 227q0 98 -6 118q17 17 44.5 28.5t50.5 11.5q58 0 58 -69q0 -56 -55 -321q78 174 203 174q49 0 85 -28.5t50 -75.5q105 23 202 23z"/>
<glyph glyph-name="uni0445" horiz-adv-x="426" unicode="х" d="M461 419q-69 -55 -169 -195q66 -61 146 -105q-5 -27 -28.5 -47.5t-48.5 -20.5q-52 0 -142 73q-52 -71 -94 -109t-81 -38q-28 0 -46 18.5t-22 50.5q49 26 84.5 56.5t79.5 82.5l6 8q-85 96 -85 166q0 41 33 75.5t71 34.5q26 0 39 -13q12 -8 18 -21q-3 -28 -34 -66 q6 -28 38 -71q12 17 31.5 45.5t28 40.5t23 30t24.5 25.5t23.5 14t27.5 7.5h7q24 0 44.5 -12t25.5 -30z"/>
<glyph glyph-name="uni0446" horiz-adv-x="728" unicode="ц" d="M312 -194q30 0 62.5 52t51.5 131q-136 -105 -136 -160q0 -23 22 -23zM796 292h4q16 0 28 -9t12 -19q0 -6 -5 -10q-12 -9 -50 -32t-98.5 -60t-108.5 -67q-9 -69 -30.5 -131t-54 -113.5t-81.5 -82t-107 -30.5q-50 0 -76.5 26.5t-26.5 63.5q0 97 248 260q0 3 2 10t2 11 q-32 -35 -71 -35q-90 0 -100 84q-91 -87 -172 -87q-97 0 -97 103q0 20 17.5 108t17.5 136q0 21 -2 45q60 10 90 10q37 0 54 -15t17 -48q0 -20 -16.5 -94t-16.5 -103q0 -35 18 -35q39 0 94 76q3 17 11 52.5t12.5 63.5t4.5 53q0 32 -2 39q36 6 58 6q48 0 70 -21t22 -67 q0 -20 -17 -88t-17 -99q0 -28 10 -28q20 0 31 55v3q34 15 63 15q24 0 38.5 -10t14.5 -27q0 -19 -1 -29q46 27 118 67.5t93 52.5z"/>
<glyph glyph-name="uni0447" horiz-adv-x="510" unicode="ч" d="M221 -24q-61 0 -100 34t-39 85q0 24 5.5 46t18 44t20.5 34t26.5 35t21.5 27q-96 15 -133.5 49.5t-37.5 74.5q0 47 34 75.5t81 28.5q25 0 48.5 -10.5t34.5 -28.5q-11 -34 -35 -77q15 -3 47 -7.5t53.5 -8t45 -10.5t36 -17.5t12.5 -25.5q0 -22 -29 -63.5t-58.5 -87 t-29.5 -78.5q0 -34 28 -34q17 0 36.5 9t42.5 31t40 39.5t43 52.5t38 51.5t39 56t32 46.5q43 -9 43 -36q0 -11 -32.5 -62t-81 -113t-118 -111t-132.5 -49z"/>
<glyph glyph-name="uni0448" horiz-adv-x="830" unicode="ш" d="M908 342h7q15 0 25 -7.5t10 -18.5q0 -19 -32 -65.5t-77 -94.5t-99 -84.5t-91 -36.5q-93 0 -106 87q-88 -88 -172 -88q-85 0 -95 81q-85 -81 -165 -81q-96 0 -96 103q0 21 17 109t17 135q0 33 -1 45q60 10 90 10q37 0 53.5 -15t16.5 -48q0 -19 -16.5 -96t-16.5 -104 q0 -32 14 -32q28 0 99 86q21 101 21 154q0 33 -1 45q60 10 90 10q37 0 53.5 -15t16.5 -48q0 -19 -16.5 -96t-16.5 -104q0 -32 14 -32q28 0 100 87q3 12 9 38t9 41.5t6 37.5t3 41q0 28 -3 39q36 6 59 6q47 0 69 -21t22 -67q0 -19 -17 -89t-17 -104q0 -25 11 -25q12 0 32.5 17 t46.5 46t48 55.5t47 58t32 40.5z"/>
<glyph glyph-name="uni0449" horiz-adv-x="993" unicode="щ" d="M575 -176q33 0 64 54t55 136q-139 -109 -139 -168q0 -22 20 -22zM1060 310h5q15 0 25.5 -7.5t10.5 -19.5q0 -9 -18 -19q-9 -6 -50 -29.5t-92 -54.5t-97 -61q-7 -50 -20 -98.5t-36.5 -97.5t-53.5 -85t-73.5 -59t-93.5 -23q-52 0 -76.5 25.5t-24.5 64.5q0 101 253 265 q1 7 3.5 18t3.5 16q-41 -55 -85 -55q-82 0 -94 87q-90 -88 -172 -88q-84 0 -95 81q-87 -81 -165 -81q-96 0 -96 103q0 20 17 108t17 136q0 21 -2 45q60 10 90 10q37 0 54 -15t17 -48q0 -18 -16.5 -95t-16.5 -105q0 -32 14 -32q28 0 99 86q21 103 21 154q0 21 -2 45 q60 10 90 10q37 0 54 -15t17 -48q0 -18 -16.5 -95t-16.5 -105q0 -32 14 -32q28 0 101 88q2 12 10.5 48t12 60.5t3.5 48.5q0 29 -3 39q36 6 59 6q47 0 69 -21t22 -67q0 -21 -16 -87t-16 -91q0 -38 16 -38q8 0 15 15.5t8 41.5q33 10 59 10q57 0 57 -48v-10q48 28 120 68t90 51 z"/>
<glyph glyph-name="uni044A" horiz-adv-x="644" unicode="ъ" d="M261 3q31 0 57 32q-52 19 -73 58q-13 -31 -13 -53q0 -37 29 -37zM318 132q-2 -26 28 -39q0 1 3 14v5q0 14 -6 26.5t-12 12.5q-10 0 -13 -19zM791 302q0 -35 -55.5 -92.5t-139.5 -109t-156 -68.5q-34 -50 -96.5 -82t-129.5 -32q-63 0 -102 35.5t-39 89.5q0 85 91 212 q-158 11 -158 102q0 45 41 80.5t91 35.5q64 0 64 -47q0 -35 -38 -80h10q11 0 33.5 0.5t34.5 0.5q47 0 74 -13.5t27 -38.5q0 -22 -30 -75q26 7 49 7q45 0 76 -31.5t31 -76.5v-10q72 31 147.5 93t123.5 132q2 0 5 0.5t5 0.5q19 0 30 -9.5t11 -23.5z"/>
<glyph glyph-name="uni044B" horiz-adv-x="870" unicode="ы" d="M187 79q23 0 43 31q-54 17 -83 58q-1 -8 -1 -22q0 -67 41 -67zM229 227q-17 0 -17 -19q0 -28 39 -42q1 6 1 18q0 18 -7 30.5t-16 12.5zM885 334q14 4 20 4q32 0 35 -41q-9 -37 -40.5 -86t-77 -97.5t-109 -82t-126.5 -33.5q-75 0 -111.5 44.5t-38.5 114.5q-39 -29 -72 -42 q-21 -52 -72.5 -86.5t-120.5 -34.5q-82 0 -129 49t-47 132q0 50 24 140.5t24 121.5q0 25 -7 41q13 3 39 3q119 0 119 -89q0 -29 -21 -105q32 16 72 16q58 0 92.5 -34.5t38.5 -84.5q33 22 68 58q2 10 19 70.5t17 98.5q0 29 -6 52q33 12 74 12q87 0 87 -90q0 -41 -24.5 -128 t-24.5 -112q0 -24 9.5 -41.5t27.5 -17.5q34 0 71 21.5t66 51.5t56.5 67.5t43 63t24.5 44.5z"/>
<glyph glyph-name="uni044C" horiz-adv-x="559" unicode="ь" d="M224 11q24 0 44 31q-54 17 -83 58q-1 -8 -1 -22q0 -67 40 -67zM267 159q-18 0 -18 -19q0 -28 40 -42q1 6 1 18q0 18 -7 30.5t-16 12.5zM607 369h6q55 0 55 -24q0 -7 -5 -19q-28 -70 -104 -158t-157 -121q-21 -52 -72.5 -86.5t-119.5 -34.5q-82 0 -129.5 49.5t-47.5 131.5 q0 50 24.5 140.5t24.5 121.5q0 27 -8 41q14 3 40 3q119 0 119 -89q0 -29 -21 -105q32 16 72 16q58 0 92 -34.5t38 -84.5q54 33 105 101t88 152z"/>
<glyph glyph-name="uni044D" horiz-adv-x="530" unicode="э" d="M595 331h5q13 0 21 -8t8 -21q0 -9 -2 -14q-15 -42 -73.5 -93t-130.5 -51q-21 0 -37 4q-22 -73 -85.5 -122t-159.5 -49q-62 0 -98 25t-36 64q0 28 21.5 44t56.5 16h9q4 -25 18.5 -38.5t33.5 -13.5q33 0 58.5 24t37.5 64q-25 -5 -48 -5q-77 0 -77 43q0 14 11 42 q19 -4 46 -4q26 0 76 5q-4 42 -23 68t-47 26q-41 0 -76 -62q-38 13 -54.5 25.5t-16.5 29.5q0 26 47 60t120 34q90 0 141 -58t55 -139q19 -13 43 -13q42 0 78.5 29.5t77.5 87.5z"/>
<glyph glyph-name="uni044E" horiz-adv-x="726" unicode="ю" d="M395 92q21 1 43.5 60.5t22.5 126.5q0 36 -6.5 61.5t-15.5 25.5q-24 0 -48 -58t-24 -126q0 -38 7.5 -64t19.5 -26h1zM802 334q44 -3 44 -35q0 -37 -67 -95t-143 -58q-29 0 -56 9q-31 -65 -85 -106t-124 -41q-158 0 -158 161v17q-52 -41 -74 -83v-16q0 -43 1 -53 q-26 -13 -62 -13q-76 0 -76 94q0 52 18 132.5t18 122.5q0 22 -2 42q37 37 84 37q28 0 43 -17t15 -46q0 -14 -23 -144q39 30 82 51q31 66 92.5 113t140.5 47q66 0 104 -44.5t38 -119.5q0 -23 -5 -53q20 -14 44 -14q73 0 151 112z"/>
<glyph glyph-name="uni044F" horiz-adv-x="535" unicode="я" d="M256 410q-30 0 -60.5 -40.5t-30.5 -83.5q0 -28 16 -28q22 0 47 32.5t61 102.5q-14 17 -33 17zM617 344h4q14 0 24.5 -7.5t10.5 -18.5q0 -4 -3 -10q-14 -27 -43.5 -66t-72 -84t-97 -76.5t-104.5 -31.5q-33 0 -55.5 21t-29.5 57q-34 -56 -81 -92t-95 -36q-31 0 -50 20.5 t-24 58.5q94 23 167 96q-26 -8 -46 -8q-45 0 -70.5 28t-25.5 76q0 81 64.5 146t142.5 65q58 0 95 -45q13 7 34 7q17 0 37.5 -9.5t25.5 -19.5q-56 -135 -56 -212q0 -28 7.5 -46.5t15.5 -18.5q25 0 59 25t57 51t60.5 72t48.5 58z"/>
<glyph glyph-name="uni0451" horiz-adv-x="498" unicode="ё" d="M237 393q-18 0 -37.5 -41.5t-19.5 -94.5q0 -13 1 -19q69 64 69 126q0 29 -13 29zM557 345q18 5 30 5q34 0 34 -31q0 -19 -34.5 -68t-86.5 -103t-125.5 -95.5t-139.5 -41.5q-97 0 -156.5 58.5t-59.5 150.5q0 106 67 184.5t156 78.5q52 0 80.5 -29t28.5 -82 q0 -118 -150 -214q25 -50 74 -50q58 0 135.5 65.5t146.5 171.5zM347 534q-33 0 -52 18t-19 47q0 37 28.5 62.5t70.5 25.5q34 0 55 -18.5t21 -47.5q0 -37 -30 -62t-74 -25zM151 534q-33 0 -52 18t-19 47q0 37 28.5 62.5t70.5 25.5q34 0 55 -18.5t21 -47.5q0 -37 -30 -62 t-74 -25z"/>
</font>
</defs>
</svg>
